<svg xmlns="http://www.w3.org/2000/svg" viewBox="0 0 193 169"><defs><style>.cls-1,.cls-2{fill:#ffecca;}.cls-2{stroke:#cea284;stroke-linecap:round;stroke-linejoin:round;}.cls-3{fill:#cea284;}.cls-4{fill:#fff6e9;}</style></defs><title>base</title><g id="앞머리"><polygon class="cls-1" points="75 32.5 64 47.5 82 52.5 107 49.5 126 49.5 127 39.5 112 32.5 75 32.5"/><path class="cls-2" d="M82,42.5s-5,34-25,51c0,0,5-8,5-10,0,0-8.74,12.57-17.37,14.28S51,62.5,51,62.5l10-15"/><path class="cls-2" d="M82,38.5s-10,22-4,37,9,16,9,16-3-10-3-11,5.57,10.71,9,13c3,2,11,3,13,3s-7-13-8-21c0,0,5,16,12,19s21,5,21,5a106,106,0,0,1-5-12s6,11,10,12a51.3,51.3,0,0,0,10,1s-9-48-20-55"/><path class="cls-3" d="M63,75.26l-.09.23s0,.08,0,.11v0a4.09,4.09,0,0,1-.2.42,7.9,7.9,0,0,1-.46.8.37.37,0,1,0,.64.37,7.56,7.56,0,0,0,.88-1.75.37.37,0,0,0-.26-.46.39.39,0,0,0-.46.26Z"/><path class="cls-2" d="M120,46S139.68,78.29,136.57,98s-13.46,30-13.46,30,8.28-1,12.43-10.36a146.82,146.82,0,0,0-6.22,24.86c-2.07,13.47,3.11,17.61,3.11,17.61s-1-3.11,0-8.29c0,0,0,6.22,3.11,9.32a17.46,17.46,0,0,0,7.25,4.15s-2.07-12.43-1-17.61,6.22-24.86,9.32-36.25,1.14-44.5-5.07-56.93-21-24-21-24"/><path class="cls-2" d="M71.5,46S51.82,78.29,54.93,98s13.46,30,13.46,30S60.11,127,56,117.64a146.82,146.82,0,0,1,6.22,24.86c2.07,13.47-3.11,17.61-3.11,17.61s1-3.11,0-8.29c0,0,0,6.22-3.11,9.32a17.46,17.46,0,0,1-7.25,4.15s2.07-12.43,1-17.61-6.22-24.86-9.32-36.25S38.79,66.93,45,54.5s20-23,20-23"/><path class="cls-3" d="M124.71,82l.56,1.34a.41.41,0,0,0,.17.22.37.37,0,0,0,.29,0,.44.44,0,0,0,.23-.17.37.37,0,0,0,0-.29l-.55-1.34a.39.39,0,0,0-.18-.22.37.37,0,0,0-.55.42Z"/><path class="cls-3" d="M82.83,75l.22,1.12a.41.41,0,0,0,.18.23.39.39,0,0,0,.28,0,.38.38,0,0,0,.27-.46l-.23-1.12a.44.44,0,0,0-.17-.23.41.41,0,0,0-.29,0,.38.38,0,0,0-.26.46Z"/><path class="cls-3" d="M82.8,73.5a.38.38,0,0,0,0-.75.38.38,0,0,0,0,.75Z"/><path class="cls-3" d="M107.61,70.64a114.73,114.73,0,0,0,6,15.34c1.08,2.47,2.21,5,3.51,7.32a11.53,11.53,0,0,0,4.23,4.76.38.38,0,0,0,.38-.65c-2.06-1.15-3.27-3.17-4.34-5.2-1.21-2.3-2.29-4.67-3.33-7a111.35,111.35,0,0,1-5.67-14.73.38.38,0,0,0-.73.2Z"/><path class="cls-3" d="M97.42,73.58a.38.38,0,0,0,0-.75.38.38,0,0,0,0,.75Z"/><path class="cls-3" d="M107.18,67.91V68a.25.25,0,0,0,0,.14.24.24,0,0,0,.07.12.35.35,0,0,0,.13.08.32.32,0,0,0,.14,0h.1a.42.42,0,0,0,.17-.1l.05-.08a.29.29,0,0,0,0-.18v-.12a.23.23,0,0,0,0-.14.24.24,0,0,0-.07-.12.26.26,0,0,0-.13-.08.32.32,0,0,0-.14,0h-.1a.42.42,0,0,0-.17.1l0,.07a.32.32,0,0,0,0,.19Z"/><path class="cls-3" d="M107,66a.38.38,0,0,0,0-.75.38.38,0,0,0,0,.75Z"/><path class="cls-3" d="M54.54,115.42l.11.57a.19.19,0,0,0,.07.12.19.19,0,0,0,.1.1.39.39,0,0,0,.14.05.38.38,0,0,0,.15,0,.44.44,0,0,0,.23-.17l0-.09a.34.34,0,0,0,0-.2l-.11-.56a.21.21,0,0,0-.07-.13.24.24,0,0,0-.1-.1.23.23,0,0,0-.14,0H54.8a.36.36,0,0,0-.22.18l0,.09a.31.31,0,0,0,0,.19Z"/><path class="cls-3" d="M136.62,113.55a16.17,16.17,0,0,1-.63,2.19.37.37,0,0,0,.26.46.38.38,0,0,0,.46-.26,17.8,17.8,0,0,0,.64-2.19.39.39,0,0,0-.26-.46.4.4,0,0,0-.47.26Z"/><path class="cls-3" d="M137.23,111.44l-.06.23a.38.38,0,0,0,0,.15.39.39,0,0,0,.05.14.32.32,0,0,0,.1.1.24.24,0,0,0,.12.07h.1a.41.41,0,0,0,.19,0l.08-.06a.37.37,0,0,0,.09-.16l.07-.23a.38.38,0,0,0,0-.15.25.25,0,0,0,0-.14.24.24,0,0,0-.1-.1.27.27,0,0,0-.13-.07h-.09a.38.38,0,0,0-.19,0l-.08.06a.34.34,0,0,0-.1.16Z"/><path class="cls-3" d="M59.31,155.16l-.08-.57a.32.32,0,0,0,0-.14.2.2,0,0,0-.08-.12.33.33,0,0,0-.26-.11.35.35,0,0,0-.27.11l-.06.07a.41.41,0,0,0-.05.19l.08.57a.22.22,0,0,0,0,.14.2.2,0,0,0,.08.12.33.33,0,0,0,.26.11.35.35,0,0,0,.27-.11l.06-.07a.41.41,0,0,0,.05-.19Z"/><path class="cls-3" d="M58.35,149.74v0a.37.37,0,0,0,0,.15.42.42,0,0,0,.08.12.25.25,0,0,0,.12.08.37.37,0,0,0,.15,0h.09a.37.37,0,0,0,.17-.1l.06-.08a.41.41,0,0,0,.05-.19v0a.4.4,0,0,0,0-.15.42.42,0,0,0-.08-.12.36.36,0,0,0-.12-.08.37.37,0,0,0-.15,0l-.09,0a.35.35,0,0,0-.17.09l-.06.08a.41.41,0,0,0,0,.19Z"/><path class="cls-3" d="M133.06,149.55l.07-.56a.27.27,0,0,0,0-.15.28.28,0,0,0-.08-.12.41.41,0,0,0-.26-.11.44.44,0,0,0-.27.11l-.06.08a.41.41,0,0,0-.05.19l-.07.56a.23.23,0,0,0,0,.14.24.24,0,0,0,.07.12.36.36,0,0,0,.27.11.31.31,0,0,0,.26-.11l.06-.07a.32.32,0,0,0,.05-.19Z"/><path class="cls-2" d="M77.83,4.13s-2,11.92,8.29,15.38C86.12,19.51,79.39,9.93,77.83,4.13Z"/><path class="cls-3" d="M83.1,21.26a25.39,25.39,0,0,1,4.27-.18c.49,0,.49-.73,0-.75a25.39,25.39,0,0,0-4.27.18.39.39,0,0,0-.38.38.37.37,0,0,0,.38.37Z"/><path class="cls-3" d="M84.22,22.12h3.23a.38.38,0,0,0,0-.75H84.22a.38.38,0,0,0,0,.75Z"/><path class="cls-3" d="M85.43,23.4a10.93,10.93,0,0,0,1.8-.15.38.38,0,0,0,.26-.46.39.39,0,0,0-.46-.27l-.22,0h-.13l-.42,0-.83,0a.38.38,0,1,0,0,.75Z"/><path class="cls-4" d="M78,55c-.14,2.77-.14,5.57,1.21,8.07a1.52,1.52,0,0,0,2.59,0,8,8,0,0,0,.92-2.73A5.57,5.57,0,0,1,83.49,58l-2.75-.36,1.35,3.84a1.52,1.52,0,0,0,2.74.36l.61-.83.26-.36c.23-.27.24-.31,0-.11l-1.16.15.18,0-.66-.38c.39.31.74.7,1.1,1.05a1.52,1.52,0,0,0,2.36-.3,26,26,0,0,1,1.57-2.17l-2.36-.31,2.15,4a1.51,1.51,0,0,0,2.35.3l1.07-1.11.43-.45c0-.05.52-.46.35-.41h-.8c.46.08,1,.5,1.58.6A4.84,4.84,0,0,0,96,61.46c1.87-.46,1.08-3.35-.8-2.89-1.12.27-1.86-.82-3-.51a3.57,3.57,0,0,0-1.56,1.16l-1.5,1.56,2.36.31-2.15-4A1.51,1.51,0,0,0,87,56.75a32.65,32.65,0,0,0-2,2.79l2.36-.31c-.8-.78-1.67-1.9-2.93-1.4-.95.37-1.56,1.65-2.14,2.44l2.74.36L83.64,56.8a1.52,1.52,0,0,0-2.74-.36C79.77,58,80.12,60,79.17,61.58h2.59c-1.07-2-.91-4.36-.8-6.55.09-1.93-2.91-1.92-3,0Z"/><path class="cls-4" d="M100.31,58.53A2.74,2.74,0,0,0,102.73,60a4.15,4.15,0,0,0,1.66-.38c.37-.16,1-.67,1.46-.62s.83.57,1.18.76a2.72,2.72,0,0,0,1.38.37c1.34,0,2-1.4,2.65-2.36h-2.59c.94,1.4,2.83,4.59,4.86,3.13a4.77,4.77,0,0,0,1.35-2.63,29.08,29.08,0,0,0,.84-3.58l-2.51.66a39.8,39.8,0,0,1,5.34,8c.58,1,2.55,1,2.75-.36a45.57,45.57,0,0,0,.49-7.29l-1.9,1.45a5.49,5.49,0,0,1,1.77,1c1.46,1.24,3.59-.87,2.12-2.12a9.2,9.2,0,0,0-3.09-1.75,1.51,1.51,0,0,0-1.9,1.44,40.26,40.26,0,0,1-.39,6.49l2.74-.35a42.61,42.61,0,0,0-5.81-8.56,1.51,1.51,0,0,0-2.5.66c-.16.9-.34,1.78-.58,2.65-.1.38-.2.75-.32,1.12l-.24.73c-.16.35,0,.34.33-.06h.79c.31.11.06,0-.07-.17s-.39-.43-.57-.66c-.33-.4-.62-.82-.91-1.24a1.52,1.52,0,0,0-2.59,0,6.26,6.26,0,0,0-.66,1c.8.09,1,0,.47-.2l-.26-.18a3.71,3.71,0,0,0-2-.81,4.38,4.38,0,0,0-2.07.49,3.91,3.91,0,0,1-.9.43c-.27,0-.09.17-.15,0a1.52,1.52,0,0,0-2.05-.54,1.55,1.55,0,0,0-.54,2.06Z"/><path class="cls-4" d="M126.84,54.44a14.28,14.28,0,0,0,1.79,3,1.54,1.54,0,0,0,1.49.72,1.5,1.5,0,0,0,1.25-1.08l.44-1.86.22-.91.11-.45c0-.07,0-.15.05-.22.14-.55-.05.54-.78.69h-.8a1.17,1.17,0,0,1-.27-.15c-.11-.09-.11-.08,0,0a2.08,2.08,0,0,0,.21.21l.45.47.91.92a1.51,1.51,0,0,0,2.51-.66,17.05,17.05,0,0,0,.27-2.36c0-.34,0-.67,0-1,0-.14,0-.29,0-.43s0,.13,0,.17,0-.09,0,.05a1,1,0,0,1-.45.5,1.61,1.61,0,0,0,.69-.89,1.5,1.5,0,0,0-2.2-1.7,2.14,2.14,0,0,0-1,1.72c0,.34,0,.69,0,1s0,.79,0,1.18a2.6,2.6,0,0,1-.06.56c.11-.37,0,0,0,0s0,.22-.05.33l2.51-.66-1.41-1.43a2.75,2.75,0,0,0-1.18-.81,1.72,1.72,0,0,0-1.93.82,8.42,8.42,0,0,0-.57,2.05l-.47,2,2.74-.36a14.54,14.54,0,0,1-1.79-3,1.45,1.45,0,0,0-.9-.69,1.49,1.49,0,0,0-1.15.15,1.47,1.47,0,0,0-.69.89,1.73,1.73,0,0,0,.15,1.16Z"/><path class="cls-4" d="M71.7,57.68c-.07.16-.07.17,0,0l-.12.26c0,.13-.11.25-.17.38-.14.29-.29.58-.44.87-.28.53-.58,1-.91,1.56-.17.25-.33.5-.51.75l-.28.39-.11.14c-.4.51-.82,1-1.27,1.47l2.56,1.06a3,3,0,0,1,0-.42c0,.3,0-.1,0-.17.08-.33.17-.66.26-1l.52-2a1.53,1.53,0,0,0-.69-1.69,1.56,1.56,0,0,0-1.82.23l-1.06.93-.55.45-.33.27-.08.06a12.86,12.86,0,0,1-2.46,1.48,1.5,1.5,0,0,0-.54,2,1.54,1.54,0,0,0,2,.54,20.84,20.84,0,0,0,5.09-3.66l-2.51-1.46-.56,2.12a6.43,6.43,0,0,0-.35,2.21A1.53,1.53,0,0,0,68.36,66,1.49,1.49,0,0,0,70,65.64a23.24,23.24,0,0,0,4.59-7.17,1.5,1.5,0,0,0-1-1.84,1.54,1.54,0,0,0-1.84,1Z"/><path class="cls-4" d="M66.33,59.21a4.79,4.79,0,0,0-.53.34,5.37,5.37,0,0,0-.76.66,5.83,5.83,0,0,0-.61.78,6.29,6.29,0,0,0-.43.91,1.22,1.22,0,0,0,0,.6,1.16,1.16,0,0,0,.18.56,1.12,1.12,0,0,0,.39.42,1,1,0,0,0,.51.26,1.49,1.49,0,0,0,1.15-.15l.31-.23a1.57,1.57,0,0,0,.38-.66v0l-.15.36a3.41,3.41,0,0,1,.46-.78l-.24.3a3.88,3.88,0,0,1,.64-.64l-.3.23a3.71,3.71,0,0,1,.54-.33,1.31,1.31,0,0,0,.42-.39,1.26,1.26,0,0,0,.27-.51,1.73,1.73,0,0,0-.16-1.16,1.5,1.5,0,0,0-.89-.69l-.4-.05a1.57,1.57,0,0,0-.76.2Z"/><path class="cls-4" d="M60.58,57.73l-4,2.45,2.2,1.7L59.34,59a1.56,1.56,0,0,0-.26-1.31,1.49,1.49,0,0,0-1.18-.59,2.75,2.75,0,0,0-1.5.45,1.57,1.57,0,0,0-.69.89,1.5,1.5,0,0,0,2.2,1.7,1.34,1.34,0,0,1,.23-.13l-.36.15a1.31,1.31,0,0,1,.32-.1l-.4.06.2,0-1.45-1.9-.54,2.92a1.54,1.54,0,0,0,.53,1.58,1.5,1.5,0,0,0,1.67.11l4-2.45a1.5,1.5,0,1,0-1.51-2.59Z"/></g></svg>