<svg xmlns="http://www.w3.org/2000/svg" viewBox="0 0 193 169"><defs><style>.cls-1{fill:#f28270;}.cls-2{opacity:0.3;}</style></defs><title>base</title><g id="코_입" data-name="코,입"><path class="cls-1" d="M85,121a10.79,10.79,0,0,0,4.42-.09c1.58-.38,3.13-1.57,4.8-1.34a19.46,19.46,0,0,1,2.47.74,19.23,19.23,0,0,0,2.37.51,20.86,20.86,0,0,0,4.93.15c.48,0,.48-.8,0-.75A19.58,19.58,0,0,1,99,120c-1.57-.26-3-1-4.6-1.22s-2.69.55-4,1a9.71,9.71,0,0,1-5.12.43c-.47-.08-.68.64-.2.72Z"/><path class="cls-1" d="M91,109.75l.12.56a.26.26,0,0,0,.06.13.35.35,0,0,0,.11.1.23.23,0,0,0,.14,0,.38.38,0,0,0,.15,0,.36.36,0,0,0,.22-.18l0-.09a.31.31,0,0,0,0-.19l-.12-.57a.23.23,0,0,0-.06-.12.35.35,0,0,0-.11-.1.34.34,0,0,0-.14,0,.37.37,0,0,0-.37.18l0,.09a.34.34,0,0,0,0,.2Z"/><g class="cls-2"><path class="cls-1" d="M86.41,104.05a7.36,7.36,0,0,0-.59,4.29,1.81,1.81,0,0,0,.45.88,1.72,1.72,0,0,0,1,.42,4.64,4.64,0,0,0,3.33-1.12,2.53,2.53,0,0,0,.78-.88,2.62,2.62,0,0,0,.22-1,2.78,2.78,0,0,0-.16-1.31,2.52,2.52,0,0,0-1.18-1.05,7.34,7.34,0,0,0-2.17-.74,1.7,1.7,0,0,0-1.56.3"/></g></g></svg>