<svg xmlns="http://www.w3.org/2000/svg" viewBox="0 0 193 169"><defs><style>.cls-1{fill:#ffecca;stroke:#cea284;stroke-linecap:round;stroke-linejoin:round;}.cls-2{fill:#cea284;}.cls-3{fill:#e5cda5;}</style></defs><title>base</title><g id="뒷머리"><path class="cls-1" d="M159,109.48c-1.75-4.56-2-17-1.75-21a152.7,152.7,0,0,0-1.74-27.39c-1.75-10-6.12-16.44-10.48-22.83S134,29.5,128,24.58c-7.36-6-19.63-7.3-28.37-9.13a25.6,25.6,0,0,0-15.72,1.83l0,.18c-6.24.85-18.43,1.72-22.93,7-6.15,7.27-8.53,7.38-12.89,13.77S39.27,51,37.63,61.1,34.71,85.72,35,89.5c.61,7.88-3,21-4,25-1.17,4.69-3,26,2,30-.12-.47-1.13-10.1,0-16,0,0-.41,7.46,2.21,11.11A22.7,22.7,0,0,0,42,145.5a60.27,60.27,0,0,1-1.42-7.72s3.49,6.39,6.11,7.31,7,0,7,0h41L95.79,134,97,146h41.05s7.86-.91,10.48-1.83,6.11-7.3,6.11-7.3c0,1.83-2.65,8.63-2.65,8.63a10.38,10.38,0,0,0,7-4c2.62-3.65,1.77-12.85,1.77-12.85,1.12,5.89,2.35,13.38,2.23,13.85C167.91,138.53,160.74,114,159,109.48Z"/><path class="cls-2" d="M154.91,132.56l-.29,1.6a.39.39,0,0,0,.27.46.39.39,0,0,0,.46-.26l.28-1.6a.37.37,0,0,0-.72-.2Z"/><path class="cls-2" d="M160,127.09v.42a.28.28,0,0,0,0,.15.37.37,0,0,0,.07.12l.12.08a.4.4,0,0,0,.15,0,.39.39,0,0,0,.26-.11.4.4,0,0,0,.11-.27v-.42a.22.22,0,0,0,0-.14.37.37,0,0,0-.2-.2.17.17,0,0,0-.14,0,.35.35,0,0,0-.27.11.41.41,0,0,0-.11.26Z"/><path class="cls-2" d="M39.42,134.75a10.52,10.52,0,0,0,.27,1.57.37.37,0,0,0,.46.26.39.39,0,0,0,.26-.46q-.09-.36-.15-.72l0-.16v-.1s0-.13,0,0c0-.12,0-.25,0-.37a.36.36,0,0,0-.11-.26.33.33,0,0,0-.26-.11.38.38,0,0,0-.38.37Z"/><path class="cls-2" d="M33,125.2c-.1.47-.19.94-.26,1.41a.48.48,0,0,0,0,.29.39.39,0,0,0,.23.17.38.38,0,0,0,.29,0,.41.41,0,0,0,.17-.22c.07-.47.15-.94.25-1.41a.37.37,0,1,0-.72-.2Z"/><path class="cls-3" d="M46.5,64s-9,45-7,53,2,22,6,25l56,21,47-21s6-21,0-39-31-44-31-44Z"/></g></svg>