<svg xmlns="http://www.w3.org/2000/svg" viewBox="0 0 193 169"><defs><style>.cls-1{fill:#442815;}</style></defs><title>base</title><g id="눈썹"><path class="cls-1" d="M55.45,84.55a90.66,90.66,0,0,1,23.75-3,.75.75,0,0,0,0-1.5,92,92,0,0,0-24.15,3.11.75.75,0,0,0,.4,1.44Z"/><path class="cls-1" d="M107.1,81.57a57.73,57.73,0,0,1,25.31,3.89c.9.35,1.29-1.1.4-1.45a58.77,58.77,0,0,0-25.71-3.94c-1,.07-1,1.57,0,1.5Z"/><path class="cls-1" d="M60.74,93.6a65.36,65.36,0,0,1,14.75-1.68.38.38,0,0,0,0-.75,66.57,66.57,0,0,0-14.95,1.71c-.47.11-.27.83.2.72Z"/><path class="cls-1" d="M113.4,92.12a43.57,43.57,0,0,1,12.95,1.59.37.37,0,0,0,.2-.72,43.93,43.93,0,0,0-13.15-1.62.38.38,0,0,0,0,.75Z"/></g></svg>