<svg id="장식1" xmlns="http://www.w3.org/2000/svg" viewBox="0 0 284 355"><defs><style>.cls-1,.cls-3{fill:#afd1f9;stroke:#1282d6;}.cls-1{stroke-miterlimit:10;}.cls-2{fill:#1282d6;}.cls-3{stroke-linecap:round;stroke-linejoin:round;}</style></defs><title>base_장식1</title><path class="cls-1" d="M141.42,188.28a35,35,0,0,0-21.84-6.21c-12.73.81-8.41,6.21-6.25,9.46s1.38,7.39,2.85,11.25,1.47,6,4.71,6,3.24,0,8.65-4.32a111.78,111.78,0,0,0,11.88-11.88Z"/><path class="cls-1" d="M141.42,192.61,140.34,225a50.13,50.13,0,0,0,4.32,18.37c4.32,9.72,10.8-14,9.72-27a47.26,47.26,0,0,0-8.64-22.68l-4.32-1.08"/><path class="cls-1" d="M143.58,188.28a35,35,0,0,1,21.84-6.21c12.73.81,8.41,6.21,6.25,9.46s-1.38,7.39-2.85,11.25-1.47,6-4.71,6-3.24,0-8.65-4.32a111.78,111.78,0,0,1-11.88-11.88Z"/><path class="cls-1" d="M140.34,192.61l-17.29,31.32s-3.24,15.13-1.08,22.69,1.08,11.88,8.65,1.08,11.88-23.77,11.88-34.57,1.08-20.52,1.08-20.52Z"/><path class="cls-2" d="M140.88,191s-22.25,11.15-21.23,14.36,2.17,1.12,3.27,1.15,13.44-10.3,13.44-10.3l4.52-5.21"/><path class="cls-2" d="M143.9,191.3s22.59,9.94,21.81,13.29-2.05,1.28-3.12,1.38-13.89-9.65-13.89-9.65l-4.8-5"/><path class="cls-1" d="M139.8,185.58s-2.16,0-1.08,3.24,0,6.49,2.16,5.41,2.16,0,3.24,0,1.08-7.57,1.08-7.57S144.12,184.5,139.8,185.58Z"/><path class="cls-3" d="M120.89,189.36s11.89-2.16,15.13-1.08,3,1.58,3,1.58l-12.7,2.75"/><path class="cls-3" d="M145.74,189.36s11.88-4.32,13-2.16-9.72,3.24-9.72,3.24h-3.24s14,2.17,15.13,3.25"/></svg>