<svg xmlns="http://www.w3.org/2000/svg" viewBox="0 0 193 169"><defs><style>.cls-1{fill:#ffecca;stroke:#cea284;stroke-linecap:round;stroke-linejoin:round;}.cls-2{opacity:0.3;}.cls-3{fill:#f28270;}.cls-4{fill:#fff;}.cls-5{fill:#cea284;}</style></defs><title>base</title><g id="귀"><path class="cls-1" d="M121.78,24.58S174.26,6.94,178.17,3.82s-9.07,30.3-26.72,41.85c-3.76,2.46-7.26,2.92-10.45,2.11"/><g class="cls-2"><path class="cls-3" d="M172.3,10c1,0,2.56-1.6,3-2,0,2-2,5.18-3.12,7.23-4.47,8.43-10.58,15.82-16.6,23.25a23.31,23.31,0,0,1-2.08,2.46,16.52,16.52,0,0,1-4.8,2.86c-2.38,1-4.91,2-7.5,1.78a.63.63,0,0,1-.42-.14c-.19-.19-.08-.51,0-.78a2.62,2.62,0,0,0-.64-1.78l-1.77-2.59a2,2,0,0,0-.77-.79c-.44-.19-1-.06-1.42-.23-.76-.29-1-1.34-1.79-1.63-.32-.11-.7-.09-1-.32-.46-.43,0-1.24-.24-1.83-.32-.85-1.87-1.08-1.65-2,4.09-.17,7.93-1.94,11.56-3.82s7-3.76,10.35-5.83a21.55,21.55,0,0,0,2.85-2c.7-.6,1.33-1.28,2.06-1.85A23.61,23.61,0,0,1,162.07,18a60.76,60.76,0,0,0,7.4-4.85,8.32,8.32,0,0,0,3-3.18"/></g><path class="cls-4" d="M131,33.65c.43.2.35.77.52,1.19.29.72,1.44,1,1.47,1.82,0,.16,0,.33,0,.49,0,.55.53,1,1,1.28a12.79,12.79,0,0,0,1.55.94,1.49,1.49,0,0,1,.47.29,2.89,2.89,0,0,1,.29.55c.22.39.69.61.93,1a7,7,0,0,0,.45.86c.22.24.74.3.86,0a2.41,2.41,0,0,0,1.26,1.13c0-.32.5-.37.85-.3l1.64.31c.21-.13-.13-.45,0-.65a.33.33,0,0,1,.25-.15,1.86,1.86,0,0,1,1.12.14c.3.15.6.4.94.33a1.53,1.53,0,0,0,.41-.19,1.8,1.8,0,0,1,1.21-.15.51.51,0,0,1,.41-.73,2.67,2.67,0,0,0,.4,0c.14,0,.26-.15.21-.26a.26.26,0,0,0-.12-.11l-.93-.59a10.71,10.71,0,0,0,2.88-.27.47.47,0,0,0-.25-.32c.19-.1.38-.19.56-.3a5.63,5.63,0,0,0,1.16-.88c-.44-.16-.88-.33-1.31-.51a.42.42,0,0,0,.42-.48.79.79,0,0,0-.48-.53c-.23-.11-.48-.16-.72-.27-.09,0-.19-.1-.21-.19s.22-.28.38-.38a.61.61,0,0,0,.12-1,1,1,0,0,0,.9-.81.94.94,0,0,0-.66-1,.94.94,0,0,0,.7-1.06A2.66,2.66,0,0,0,149,31.7a1.46,1.46,0,0,0,.59-.14.41.41,0,0,0,.23-.48,1,1,0,0,0-.17-.24,5.33,5.33,0,0,1-.31-.58.55.55,0,0,0-.56-.3.27.27,0,0,0,.29-.22,1.28,1.28,0,0,0-.05-.38,3.32,3.32,0,0,1,.12-.82A2.75,2.75,0,0,0,148.5,27"/><path class="cls-1" d="M168.36,14.2s-27.8,19.37-37.64,19.24"/><path class="cls-1" d="M170.15,12.69a27.08,27.08,0,0,0,3.2-2.88"/><path class="cls-1" d="M68.73,23.89S16.26,6.25,12.35,3.13,21.41,33.42,39.06,45c3.76,2.46,7.27,2.92,10.46,2.11"/><g class="cls-2"><path class="cls-3" d="M17.5,9c-1,0-2.57-1.6-3-2,0,2,2,5.18,3.11,7.23,4.47,8.43,10.59,15.82,16.61,23.25a24.48,24.48,0,0,0,2.07,2.46A16.57,16.57,0,0,0,41.1,42.8c2.38,1,4.91,2,7.5,1.78a.63.63,0,0,0,.42-.14c.19-.19.07-.51,0-.78a2.53,2.53,0,0,1,.64-1.78l1.76-2.59a2,2,0,0,1,.78-.79c.44-.19,1-.06,1.42-.23.76-.29,1-1.34,1.79-1.63.31-.11.7-.09,1-.32.46-.43,0-1.24.24-1.83.31-.85,1.87-1.08,1.64-2-4.09-.17-7.92-1.94-11.56-3.82s-7-3.76-10.34-5.83a21.66,21.66,0,0,1-2.86-2c-.7-.6-1.33-1.28-2-1.85A23.61,23.61,0,0,0,27.73,17a60,60,0,0,1-7.4-4.85,8.25,8.25,0,0,1-3-3.18"/></g><path class="cls-4" d="M59.06,33.11a.92.92,0,0,1-.51.8,3,3,0,0,1-.95.3.58.58,0,0,0-.28.12c-.15.16-.09.41,0,.63a2.2,2.2,0,0,1-.92,2.22,6.17,6.17,0,0,1-1.64.59,2.27,2.27,0,0,0-1.41,1,.83.83,0,0,1-.17.27c-.32.29-.93-.17-1.25.13s-.08.58-.15.87c-.16.69-1.31.65-1.6,1.29a4.54,4.54,0,0,0-.12.5,1.7,1.7,0,0,1-2,1c-.35-.07-.76-.41-.55-.7A4,4,0,0,1,44.14,42a.38.38,0,0,1-.19-.14c-.19-.29.38-.64.24-1-.76.22-1.75.36-2.21-.29l.53-.27a1.26,1.26,0,0,1-.94-.11c-.27-.19-.28-.69,0-.77,0,0,.12,0,.15-.06s0-.14,0-.19l-.53-.67.52-.44c-.68,0-1.53-.18-1.67-.84a1.43,1.43,0,0,1-.89-.28.56.56,0,0,1,0-.83,1.16,1.16,0,0,1-.68-.53,1.51,1.51,0,0,1,.62-.47,8.37,8.37,0,0,1-1.37-.69.62.62,0,0,1-.33-.36c0-.16.14-.36.28-.28l-.2-.36c.35-.44,1-.26,1.59-.3a.27.27,0,0,0,.19-.08c.08-.09,0-.24,0-.34s-.39-.4-.55-.63a.68.68,0,0,1-.07-.78l-1.17-.73c.3,0,.46-.4.43-.7s-.19-.58-.23-.89.12-.68.42-.71A1.21,1.21,0,0,1,37.34,27a6.79,6.79,0,0,1,2.35,1.37.46.46,0,0,1-.35-.67.56.56,0,0,1,.8-.11,4.57,4.57,0,0,1-.83-.93,4.46,4.46,0,0,1,1.82-.07.31.31,0,0,1,.1-.44.82.82,0,0,1,.49-.1H43a2.07,2.07,0,0,1,.82.09,2.38,2.38,0,0,1,.75.51,21.05,21.05,0,0,0,6.88,3.71,70.59,70.59,0,0,0,7.6,2c.2,0,.46.17.4.37"/><path class="cls-1" d="M59.8,32.75C50,32.88,22.16,13.51,22.16,13.51"/><path class="cls-1" d="M20.36,12a27.36,27.36,0,0,1-3.19-2.88"/><path class="cls-5" d="M42.56,42l2.14-.9a.38.38,0,0,0,.26-.46c-.05-.17-.27-.35-.46-.26l-2.14.9a.38.38,0,0,0-.26.46.38.38,0,0,0,.46.26Z"/><path class="cls-5" d="M44.52,42.45l1-.12a.36.36,0,0,0,.26-.11.33.33,0,0,0,.11-.26.35.35,0,0,0-.11-.27.38.38,0,0,0-.26-.11l-1,.12a.38.38,0,0,0-.26.11.36.36,0,0,0-.11.26.39.39,0,0,0,.11.27.38.38,0,0,0,.26.11Z"/><path class="cls-5" d="M37.53,27a24.79,24.79,0,0,0,4.73,2.55.37.37,0,0,0,.46-.26.38.38,0,0,0-.27-.46,24.69,24.69,0,0,1-4.54-2.48c-.4-.27-.77.38-.38.65Z"/><path class="cls-5" d="M39.38,30.11a7.31,7.31,0,0,0,1.3.51.39.39,0,0,0,.46-.26.38.38,0,0,0-.26-.46,7.75,7.75,0,0,1-.81-.28l.09,0-.4-.18a.38.38,0,0,0-.52.13.37.37,0,0,0,.14.51Z"/><path class="cls-5" d="M39.8,31.42l1.24,0a.38.38,0,0,0,.37-.37.38.38,0,0,0-.37-.38l-1.24,0a.37.37,0,0,0-.37.37.38.38,0,0,0,.37.38Z"/><path class="cls-5" d="M37.36,33.86a24.69,24.69,0,0,0,2.85.11.38.38,0,0,0,0-.75,24.69,24.69,0,0,1-2.85-.11.38.38,0,0,0-.37.38.38.38,0,0,0,.37.37Z"/><path class="cls-5" d="M38.58,37.83a20.15,20.15,0,0,1,3.36-.65.39.39,0,0,0,.37-.38.36.36,0,0,0-.37-.37,22.57,22.57,0,0,0-3.56.67.38.38,0,0,0,.2.73Z"/><path class="cls-5" d="M41.48,38.58l.71-.23a.38.38,0,0,0,.26-.46.38.38,0,0,0-.17-.22.37.37,0,0,0-.29,0l-.71.23a.33.33,0,0,0-.23.17.48.48,0,0,0,0,.29.39.39,0,0,0,.18.22.36.36,0,0,0,.29,0Z"/><path class="cls-5" d="M41.41,40.37a8.41,8.41,0,0,0,3-1.14.39.39,0,0,0,.13-.52.38.38,0,0,0-.51-.13c-.45.2-.88.45-1.32.67a3.43,3.43,0,0,1-1.28.37A.38.38,0,0,0,41,40a.38.38,0,0,0,.37.37Z"/><path class="cls-5" d="M46.51,42.88a8.69,8.69,0,0,1,1-.66L48.1,42h0l.07,0,.15-.05.3-.11a.39.39,0,0,0,.26-.46.38.38,0,0,0-.46-.26,7.83,7.83,0,0,0-2.31,1.2.38.38,0,0,0-.13.51.38.38,0,0,0,.51.13Z"/><path class="cls-5" d="M50,36.9l-.56.49a.2.2,0,0,0-.08.12.22.22,0,0,0,0,.14.4.4,0,0,0,.11.27.41.41,0,0,0,.26.11l.1,0a.4.4,0,0,0,.17-.09l.56-.49a.42.42,0,0,0,.08-.12.37.37,0,0,0-.08-.41.35.35,0,0,0-.27-.11h-.1a.39.39,0,0,0-.16.1Z"/><path class="cls-5" d="M51.72,37.76a4,4,0,0,0-.61.75.38.38,0,0,0,0,.29.39.39,0,0,0,.17.23.42.42,0,0,0,.29,0,.46.46,0,0,0,.23-.18c.06-.1.13-.19.2-.29l-.06.08a3.25,3.25,0,0,1,.35-.39.39.39,0,0,0,.11-.27.36.36,0,0,0-.11-.26.35.35,0,0,0-.27-.11.33.33,0,0,0-.26.11Z"/><path class="cls-5" d="M52.59,38.18h0v-.1a.89.89,0,0,1-.07.28l0-.09,0,.09a.33.33,0,0,0,0,.14.26.26,0,0,0,0,.15.32.32,0,0,0,.17.22l.09,0a.34.34,0,0,0,.2,0l.09,0a.4.4,0,0,0,.13-.13,1.19,1.19,0,0,0,.17-.56.37.37,0,0,0,0-.15.37.37,0,0,0-.2-.2.32.32,0,0,0-.14,0h-.1a.37.37,0,0,0-.17.1l-.06.08a.38.38,0,0,0,0,.19Z"/><path class="cls-5" d="M46.09,31.1l.46.44a.44.44,0,0,0,.27.11.23.23,0,0,0,.14,0,.24.24,0,0,0,.12-.07.35.35,0,0,0,.11-.27.36.36,0,0,0-.11-.26l-.46-.44a.39.39,0,0,0-.27-.11.32.32,0,0,0-.14,0,.25.25,0,0,0-.12.08.33.33,0,0,0-.11.26.39.39,0,0,0,.11.27Z"/><path class="cls-5" d="M45.74,32.69a2.48,2.48,0,0,0,.77.12.39.39,0,0,0,.27-.11.41.41,0,0,0,.11-.26.44.44,0,0,0-.11-.27.46.46,0,0,0-.27-.11,1.37,1.37,0,0,1-.28,0l.1,0a1.86,1.86,0,0,1-.39-.1.42.42,0,0,0-.29,0,.39.39,0,0,0-.17.23.34.34,0,0,0,0,.28.46.46,0,0,0,.23.18Z"/><path class="cls-5" d="M135,39.14a3,3,0,0,0,.45,1.06.37.37,0,0,0,.22.17.37.37,0,0,0,.29,0,.39.39,0,0,0,.17-.23.37.37,0,0,0,0-.29,2.59,2.59,0,0,1-.26-.46l0,.09a3.33,3.33,0,0,1-.16-.51.39.39,0,0,0-.17-.23.41.41,0,0,0-.29,0,.37.37,0,0,0-.26.46Z"/><path class="cls-5" d="M138.75,39.18l.55.91a.34.34,0,0,0,.22.17.37.37,0,0,0,.29,0,.39.39,0,0,0,.13-.52l-.54-.91a.4.4,0,0,0-.23-.17.42.42,0,0,0-.29,0,.38.38,0,0,0-.13.51Z"/><path class="cls-5" d="M140.18,38.41a3.24,3.24,0,0,0,1.52,1,.37.37,0,1,0,.2-.72l-.18-.07s-.08,0,0,0,0,0,0,0l-.09,0a3.24,3.24,0,0,1-.35-.21l-.08-.06,0,0s.06.05,0,0l-.15-.13a2.68,2.68,0,0,1-.28-.3.39.39,0,0,0-.27-.11.36.36,0,0,0-.26.11.33.33,0,0,0-.11.26.39.39,0,0,0,.11.27Z"/><path class="cls-5" d="M145.76,30a17.88,17.88,0,0,1,2.29-.47.36.36,0,0,0,.26-.46.39.39,0,0,0-.46-.26,16.32,16.32,0,0,0-2.29.47.37.37,0,0,0-.26.46.39.39,0,0,0,.46.26Z"/><path class="cls-5" d="M145.76,31.75c.24-.07.48-.14.73-.19l.36-.06H147l.19,0a.4.4,0,0,0,.27-.11.41.41,0,0,0,.11-.26.39.39,0,0,0-.38-.38,8.72,8.72,0,0,0-1.6.32.37.37,0,0,0,.2.72Z"/><path class="cls-5" d="M145.59,33.11l.12,0-.1,0a3.9,3.9,0,0,1,.59.14.37.37,0,0,0,.29,0,.34.34,0,0,0,.17-.22.36.36,0,0,0,0-.29.34.34,0,0,0-.22-.17,3.77,3.77,0,0,0-.81-.17.39.39,0,0,0-.27.11.44.44,0,0,0-.11.27.41.41,0,0,0,.11.26l.08.06a.32.32,0,0,0,.19,0Z"/><path class="cls-5" d="M137.77,34.14l.27.1-.09,0,.51.25a.36.36,0,0,0,.29,0A.38.38,0,0,0,139,34a.44.44,0,0,0-.17-.23,6.79,6.79,0,0,0-.87-.39.38.38,0,0,0-.46.26.36.36,0,0,0,0,.29.46.46,0,0,0,.23.18Z"/><path class="cls-5" d="M137.56,35.17l.34.22a.22.22,0,0,0,.13,0,.26.26,0,0,0,.15,0,.27.27,0,0,0,.13-.07.32.32,0,0,0,.1-.1l0-.09a.67.67,0,0,0,0-.2l0-.09a.38.38,0,0,0-.14-.14l-.34-.22a.2.2,0,0,0-.13,0h-.15a.27.27,0,0,0-.13.07.36.36,0,0,0-.1.11l0,.08a.67.67,0,0,0,0,.2l0,.09a.38.38,0,0,0,.14.14Z"/><path class="cls-5" d="M139.47,42.33a14,14,0,0,0,1.69,1.05.38.38,0,0,0,.38-.65,14,14,0,0,1-1.69-1,.37.37,0,0,0-.51.13.39.39,0,0,0,.13.52Z"/><path class="cls-5" d="M142.34,42.09l3.15.84a.37.37,0,0,0,.2-.72l-3.15-.84a.37.37,0,0,0-.2.72Z"/><path class="cls-5" d="M145,40.45l3,.22a.37.37,0,0,0,.37-.37.38.38,0,0,0-.37-.38l-3-.22a.38.38,0,0,0-.38.37.39.39,0,0,0,.38.38Z"/><path class="cls-5" d="M149,39.49a7.46,7.46,0,0,1,1.16,0,.37.37,0,0,0,.37-.37.38.38,0,0,0-.37-.38,7.46,7.46,0,0,0-1.16,0,.4.4,0,0,0-.27.11.41.41,0,0,0-.11.26.44.44,0,0,0,.11.27.39.39,0,0,0,.27.11Z"/><path class="cls-5" d="M136.9,41.91l.29.76a.38.38,0,0,0,.46.26.38.38,0,0,0,.22-.17.34.34,0,0,0,0-.29l-.29-.76a.41.41,0,0,0-.17-.22.37.37,0,0,0-.29,0,.41.41,0,0,0-.23.18.34.34,0,0,0,0,.28Z"/><path class="cls-5" d="M143.67,35.74l2,0a.39.39,0,0,0,.38-.38.38.38,0,0,0-.38-.37l-2,0a.37.37,0,0,0-.37.37.38.38,0,0,0,.37.38Z"/><path class="cls-5" d="M38,32.44l1.84-.19a.38.38,0,0,0,.38-.37.39.39,0,0,0-.38-.38L38,31.69a.37.37,0,0,0-.37.37.38.38,0,0,0,.37.38Z"/></g></svg>