<svg id="장식_뒷부분인데_이걸_어떻게_넣을까_" data-name="장식 뒷부분인데 이걸 어떻게 넣을까??" xmlns="http://www.w3.org/2000/svg" viewBox="0 0 284 355"><defs><style>.cls-1{fill:#efefef;stroke:#939393;stroke-miterlimit:10;opacity:0.5;}</style></defs><title>base_뒷장식</title><path class="cls-1" d="M226.5,174.5s-7,12-10,13-15-7-15-7-6,4-10,5-11-4-11-4a24.13,24.13,0,0,1-8,3l11-63,25,3S226.5,167.5,226.5,174.5Z"/><path class="cls-1" d="M60.39,174.5s7,12,10,13,15-7,15-7,6,4,10,5,11-4,11-4a24.13,24.13,0,0,0,8,3l-11-63-25,3S60.39,167.5,60.39,174.5Z"/></svg>