<svg xmlns="http://www.w3.org/2000/svg" viewBox="0 0 193 246"><defs><style>.cls-1{fill:#ffecca;}.cls-1,.cls-4{stroke:#cea284;}.cls-1,.cls-10,.cls-4,.cls-6,.cls-9{stroke-linecap:round;stroke-linejoin:round;}.cls-2{fill:#cea284;}.cls-3,.cls-9{fill:#ffe8e1;}.cls-4,.cls-6{fill:none;}.cls-5{fill:#f28270;opacity:0.3;}.cls-6,.cls-9{stroke:#ff846c;}.cls-7{fill:#ff846c;}.cls-8{opacity:0.7;}.cls-10{fill:#ffb5d0;stroke:#ff9aab;}</style></defs><title>base</title><g id="꼬리"><path class="cls-1" d="M96.31,204.29s19.54,12.28,40.45,1S184.6,167.23,174.14,161c0,0-2.48-2.78-6.91-.81S140.53,197,119.54,197s-21.36-8.74-21.36-8.74Z"/><path class="cls-2" d="M169.4,158.57a8.45,8.45,0,0,0,.28.85.33.33,0,0,0,.07.13.24.24,0,0,0,.11.09.35.35,0,0,0,.28,0,.4.4,0,0,0,.23-.17.42.42,0,0,0,0-.29,5.28,5.28,0,0,1-.28-.85.41.41,0,0,0-.17-.22.38.38,0,0,0-.29,0,.39.39,0,0,0-.27.46Z"/><path class="cls-2" d="M171,158.76v.73a.38.38,0,0,0,.11.26.35.35,0,0,0,.27.11.33.33,0,0,0,.26-.11.36.36,0,0,0,.11-.26v-.73a.39.39,0,0,0-.11-.27.41.41,0,0,0-.26-.11.44.44,0,0,0-.27.11.37.37,0,0,0-.11.27Z"/><path class="cls-2" d="M172,176.44h-.73a.36.36,0,0,0-.26.11.33.33,0,0,0-.11.26.35.35,0,0,0,.11.27.36.36,0,0,0,.26.11H172a.39.39,0,0,0,.27-.11.44.44,0,0,0,.11-.27.41.41,0,0,0-.11-.26.4.4,0,0,0-.27-.11Z"/><path class="cls-2" d="M171.39,177.34h-.9a.38.38,0,0,0-.26.11.33.33,0,0,0-.11.26.38.38,0,0,0,.37.38h.9a.39.39,0,0,0,.27-.11.44.44,0,0,0,.11-.27.38.38,0,0,0-.38-.37Z"/><path class="cls-2" d="M158.08,168a2.56,2.56,0,0,0,.13,1.06.38.38,0,0,0,.46.26.38.38,0,0,0,.26-.46,2.07,2.07,0,0,1-.1-.43v.1a3.13,3.13,0,0,1,0-.53.36.36,0,0,0-.11-.26.33.33,0,0,0-.26-.11.35.35,0,0,0-.27.11.41.41,0,0,0-.11.26Z"/><path class="cls-2" d="M157.18,169.27a1,1,0,0,0,0,.24.89.89,0,0,0,0,.14l.09.21a1.24,1.24,0,0,0,.14.18.28.28,0,0,0,.12.08.21.21,0,0,0,.15,0,.17.17,0,0,0,.14,0A.2.2,0,0,0,158,170a.33.33,0,0,0,.11-.26v-.1a.42.42,0,0,0-.1-.17l0,0,.06.07a.86.86,0,0,1-.1-.16l0,.09a1.33,1.33,0,0,1-.05-.19v0a.35.35,0,0,0,0-.14.36.36,0,0,0-.08-.12.42.42,0,0,0-.12-.08.4.4,0,0,0-.15,0,.38.38,0,0,0-.37.37Z"/><path class="cls-2" d="M173.91,162.66a5.18,5.18,0,0,0-1.39,1.41.37.37,0,0,0,.13.51.38.38,0,0,0,.51-.13l.13-.18,0-.05,0,0,.07-.08a3.11,3.11,0,0,1,.29-.33l.32-.3.09-.07,0,0s-.06,0,0,0l.19-.13a.39.39,0,0,0,.17-.23.31.31,0,0,0,0-.28.37.37,0,0,0-.51-.14Z"/><path class="cls-2" d="M174,164a2.31,2.31,0,0,0-.4.58.34.34,0,0,0,0,.14.38.38,0,0,0,0,.15.33.33,0,0,0,.07.13.28.28,0,0,0,.1.09.38.38,0,0,0,.29,0,.4.4,0,0,0,.23-.17,2,2,0,0,1,.22-.37l-.06.08.12-.14a.39.39,0,0,0,.11-.27.32.32,0,0,0,0-.14.25.25,0,0,0-.08-.12.35.35,0,0,0-.27-.11.38.38,0,0,0-.26.11Z"/></g><g id="몸통"><path class="cls-3" d="M121.59,104,104,113.5l31.1,33s11.54,5.5,15.54,7.5,8,2,16,1,14-7,14-7a45.11,45.11,0,0,0,6.83-10.18c-.89-.46-1.16-1.82-.59-3.09a2.6,2.6,0,0,1,2.24-1.71,11.27,11.27,0,0,0-.48-7c-4-9-11-9-11-9-6-1-10-2-18-4S121.59,104,121.59,104Zm57.68,27.27c-.59,1.31-1.83,2-2.78,1.6s-1.25-1.83-.66-3.14,1.82-2,2.77-1.6S179.85,130,179.27,131.27Zm4.22,1.6c-1-.43-1.25-1.83-.66-3.14s1.82-2,2.77-1.6,1.25,1.83.67,3.14S184.44,133.29,183.49,132.87Zm-7.6,6c1.24-2.77,3.88-4.29,5.9-3.39s2.65,3.88,1.41,6.65-3.88,4.29-5.9,3.39S174.66,141.64,175.89,138.87Z"/><path class="cls-4" d="M177.59,117s7,0,11,9-8,22-8,22-6,6-14,7-12,1-16-1l-16-8-31-33,18-9s30,7,38,9S171.59,116,177.59,117Z"/><path class="cls-5" d="M181.79,135.48c2,.9,2.65,3.88,1.41,6.65s-3.88,4.29-5.9,3.39-2.64-3.88-1.41-6.65S179.77,134.58,181.79,135.48Z"/><path class="cls-5" d="M176.49,132.87c-1-.43-1.25-1.83-.66-3.14s1.82-2,2.77-1.6,1.25,1.83.67,3.14S177.44,133.29,176.49,132.87Z"/><path class="cls-5" d="M186.83,134.73a2.6,2.6,0,0,1,2.24-1.71,23.3,23.3,0,0,1-1.65,4.8C186.53,137.36,186.26,136,186.83,134.73Z"/><path class="cls-5" d="M182.83,129.73c.58-1.31,1.82-2,2.77-1.6s1.25,1.83.67,3.14-1.83,2-2.78,1.6S182.24,131,182.83,129.73Z"/><path class="cls-5" d="M186.83,134.73a2.6,2.6,0,0,1,2.24-1.71,23.3,23.3,0,0,1-1.65,4.8C186.53,137.36,186.26,136,186.83,134.73Z"/><path class="cls-5" d="M182.83,129.73c.58-1.31,1.82-2,2.77-1.6s1.25,1.83.67,3.14-1.83,2-2.78,1.6S182.24,131,182.83,129.73Z"/><path class="cls-6" d="M177.59,117s7,0,11,9-8,22-8,22-6,6-14,7-12,1-16-1l-16-8-31-33,18-9s30,7,38,9S171.59,116,177.59,117Z"/><path class="cls-7" d="M171.6,154.61a1,1,0,0,0-.09-.22,1.33,1.33,0,0,0-.14-.19l-.1-.11-.19-.14a.25.25,0,0,0-.14,0h-.15a.33.33,0,0,0-.13.07.36.36,0,0,0-.1.11.34.34,0,0,0,0,.28.36.36,0,0,0,.17.23l.07.05-.08-.06a1.21,1.21,0,0,1,.16.16l-.06-.08a1.74,1.74,0,0,1,.11.18l0-.09s0,0,0,.05a.21.21,0,0,0,.07.13.32.32,0,0,0,.1.1.23.23,0,0,0,.14,0h.15a.36.36,0,0,0,.22-.18.33.33,0,0,0,0-.29Z"/><g class="cls-8"><path class="cls-7" d="M171.12,151.06c-4.07.17-4.62-4.87-4.85-7.85a35.62,35.62,0,0,1,.44-9.67c1.13-5.5,4.25-10.7,9.46-13.14.44-.21.06-.85-.38-.65-6,2.81-9.24,9.06-10.1,15.38a37.93,37.93,0,0,0,.13,10.85c.43,2.79,2,6,5.3,5.83.48,0,.48-.77,0-.75Z"/></g><g class="cls-8"><path class="cls-7" d="M178.81,119.38l.06,0,0,0,0,0a.54.54,0,0,1,.12-.09l.26-.13-.09,0a1.57,1.57,0,0,1,.47-.13h.16a.38.38,0,0,0,.37-.38.38.38,0,0,0-.37-.37,2.18,2.18,0,0,0-1.5.57.37.37,0,0,0,0,.53.39.39,0,0,0,.53,0Z"/></g><path class="cls-3" d="M34.41,113c-8,2-12,3-18,4,0,0-7,0-11,9a11.27,11.27,0,0,0-.48,7,2.6,2.6,0,0,1,2.24,1.71c.57,1.27.3,2.63-.59,3.09A45.11,45.11,0,0,0,13.41,148s6,6,14,7,12,1,16-1S59,146.5,59,146.5L82.41,115l-10-11S42.41,111,34.41,113Zm-19,15.13c1-.42,2.19.29,2.77,1.6s.29,2.71-.66,3.14-2.19-.29-2.78-1.6S14.44,128.56,15.4,128.13Zm-7.67,3.14c-.58-1.31-.29-2.71.67-3.14s2.19.29,2.77,1.6.29,2.71-.66,3.14S8.32,132.58,7.73,131.27Zm9,14.25c-2,.9-4.66-.62-5.9-3.39s-.61-5.75,1.41-6.65,4.66.62,5.9,3.39S18.71,144.62,16.7,145.52Z"/><path class="cls-4" d="M16.41,117s-7,0-11,9,8,22,8,22,6,6,14,7,12,1,16-1l16-8,31-33-18-9s-30,7-38,9S22.41,116,16.41,117Z"/><path class="cls-5" d="M12.21,135.48c-2,.9-2.65,3.88-1.41,6.65s3.88,4.29,5.9,3.39,2.64-3.88,1.41-6.65S14.23,134.58,12.21,135.48Z"/><path class="cls-5" d="M17.51,132.87c.95-.43,1.25-1.83.66-3.14s-1.82-2-2.77-1.6-1.25,1.83-.67,3.14S16.56,133.29,17.51,132.87Z"/><path class="cls-5" d="M7.17,134.73A2.6,2.6,0,0,0,4.93,133a23.3,23.3,0,0,0,1.65,4.8C7.47,137.36,7.74,136,7.17,134.73Z"/><path class="cls-5" d="M11.17,129.73c-.58-1.31-1.82-2-2.77-1.6s-1.25,1.83-.67,3.14,1.83,2,2.78,1.6S11.76,131,11.17,129.73Z"/><path class="cls-5" d="M7.17,134.73A2.6,2.6,0,0,0,4.93,133a23.3,23.3,0,0,0,1.65,4.8C7.47,137.36,7.74,136,7.17,134.73Z"/><path class="cls-5" d="M11.17,129.73c-.58-1.31-1.82-2-2.77-1.6s-1.25,1.83-.67,3.14,1.83,2,2.78,1.6S11.76,131,11.17,129.73Z"/><path class="cls-6" d="M16.41,117s-7,0-11,9,8,22,8,22,6,6,14,7,12,1,16-1l16-8,31-33-18-9s-30,7-38,9S22.41,116,16.41,117Z"/><path class="cls-7" d="M11.19,117.77l.49.55a.25.25,0,0,0,.12.08.32.32,0,0,0,.14,0,.37.37,0,0,0,.27-.11.44.44,0,0,0,.11-.27V118a.37.37,0,0,0-.1-.17l-.49-.55a.32.32,0,0,0-.12-.08.37.37,0,0,0-.41.08.35.35,0,0,0-.11.27v.1a.39.39,0,0,0,.1.16Z"/><path class="cls-7" d="M12.19,117.3l.08.48a.24.24,0,0,0,.07.13.22.22,0,0,0,.1.09.34.34,0,0,0,.14,0,.26.26,0,0,0,.15,0,.38.38,0,0,0,.22-.17l0-.09a.34.34,0,0,0,0-.2l-.08-.48a.33.33,0,0,0-.07-.13.28.28,0,0,0-.1-.09.27.27,0,0,0-.14,0,.26.26,0,0,0-.15,0,.39.39,0,0,0-.23.17l0,.09a.34.34,0,0,0,0,.2Z"/><path class="cls-7" d="M27.17,155.77a.65.65,0,0,1,0-.13l0,.09a.46.46,0,0,1,.09-.15l-.06.07a.46.46,0,0,1,.07-.07.42.42,0,0,0,.08-.12.4.4,0,0,0,0-.15.32.32,0,0,0,0-.14.25.25,0,0,0-.08-.12l-.08-.06a.3.3,0,0,0-.19-.05h-.09a.37.37,0,0,0-.17.1.52.52,0,0,0-.1.11l-.09.13-.08.18,0,.11a.33.33,0,0,0,0,.14.23.23,0,0,0,0,.14.27.27,0,0,0,.1.11.4.4,0,0,0,.13.07h.1A.37.37,0,0,0,27,156l.08-.06a.37.37,0,0,0,.1-.17Z"/><path class="cls-7" d="M28,155.84a1.31,1.31,0,0,1,0-.28v.1a1.74,1.74,0,0,1,.05-.22.26.26,0,0,0,0-.15.33.33,0,0,0,0-.14.52.52,0,0,0-.1-.11.31.31,0,0,0-.13-.06.37.37,0,0,0-.29,0l-.07.06a.37.37,0,0,0-.1.17,1.37,1.37,0,0,0-.07.34,1.13,1.13,0,0,0,0,.26.37.37,0,0,0,0,.15.42.42,0,0,0,.08.12.25.25,0,0,0,.12.08.37.37,0,0,0,.15,0,.43.43,0,0,0,.26-.11l.06-.08a.41.41,0,0,0,0-.19Z"/><path class="cls-7" d="M11.44,147l.5-.12a.31.31,0,0,0,.13-.06.52.52,0,0,0,.1-.11.33.33,0,0,0,0-.14.26.26,0,0,0,0-.15.34.34,0,0,0-.17-.22.42.42,0,0,0-.29,0l-.5.12a.24.24,0,0,0-.13.07.32.32,0,0,0-.1.1.33.33,0,0,0,0,.14.26.26,0,0,0,0,.15.34.34,0,0,0,.17.22.37.37,0,0,0,.29,0Z"/><g class="cls-8"><path class="cls-7" d="M14.86,118.6a5.25,5.25,0,0,1,3.1,1.45c.35.34.88-.19.53-.53a6.09,6.09,0,0,0-3.63-1.67.38.38,0,0,0-.37.38.37.37,0,0,0,.37.37Z"/></g><g class="cls-8"><path class="cls-7" d="M23.4,152.62c2.63,1.12,4.73-1.13,5.52-3.44a28.75,28.75,0,0,0,1.59-10.75c-.26-3.62-2-6.35-4.08-9.21-1.06-1.47-1.9-3-2.88-4.56a13.24,13.24,0,0,0-3.42-3.38c-.38-.29-.76.36-.37.65a12.24,12.24,0,0,1,3.37,3.47c.72,1.18,1.37,2.39,2.17,3.52,1.66,2.36,3.51,4.6,4.16,7.47a21.43,21.43,0,0,1-.42,9.15,21,21,0,0,1-1.11,4.13c-.7,1.55-2.33,3.08-4.15,2.3-.44-.19-.82.46-.38.65Z"/></g><path class="cls-3" d="M141,171c-3-26-19.5-66.5-19.5-66.5L103,107H91l-17.5-3.5S56,145,53,171s-6,65,2,66,23,1,23,1,5-1,5-6,2-22,2-22a74.65,74.65,0,0,0,12,.88,74.65,74.65,0,0,0,12-.88s2,17,2,22,5,6,5,6,15,0,23-1S144,197,141,171Z"/><path class="cls-9" d="M70,119s-14,27-17,53-6,65,2,66,25,1,25,1,5-1,5-6,2-22,2-22a41.7,41.7,0,0,0,10,.88,41.7,41.7,0,0,0,10-.88s2,17,2,22,5,6,5,6,17,0,25-1,5-40,2-66-17-53-17-53"/><path class="cls-6" d="M63,233a37,37,0,0,0,.52,5.55"/><path class="cls-6" d="M69,233a37,37,0,0,0,.52,5.55"/><path class="cls-6" d="M129.52,233a37,37,0,0,1-.52,5.55"/><path class="cls-6" d="M123.52,233a37,37,0,0,1-.52,5.55"/><path class="cls-10" d="M94,186.5s2-3,4-4"/><path class="cls-10" d="M98,186.5s-2-3-4-4"/><path class="cls-7" d="M49.28,230.18a4,4,0,0,0,1.31-.39.38.38,0,0,0,.13-.52.37.37,0,0,0-.51-.13l-.22.1.09,0a3.33,3.33,0,0,1-.82.23h0a.43.43,0,0,0-.27.1.4.4,0,0,0-.11.27.38.38,0,0,0,.38.38Z"/><path class="cls-7" d="M49.94,230.94l.33-.11a.33.33,0,0,0,.13-.07l.1-.1a.37.37,0,0,0,0-.14.26.26,0,0,0,0-.15l0-.09a.47.47,0,0,0-.14-.14l-.09,0h-.2l-.33.12a.21.21,0,0,0-.13.07.32.32,0,0,0-.1.1.23.23,0,0,0,0,.14.38.38,0,0,0,0,.15l0,.09a.29.29,0,0,0,.14.13l.09,0a.34.34,0,0,0,.2,0Z"/><path class="cls-7" d="M85.5,229.72h1a.38.38,0,1,0,0-.75h-1a.38.38,0,0,0-.37.38.37.37,0,0,0,.37.37Z"/><path class="cls-7" d="M107.39,226.81a2.33,2.33,0,0,0,1.07.65.41.41,0,0,0,.29,0,.43.43,0,0,0,.18-.22.4.4,0,0,0-.27-.47l-.23-.08.09,0a1.92,1.92,0,0,1-.44-.25l.08.06a1.7,1.7,0,0,1-.24-.22.37.37,0,0,0-.53,0,.39.39,0,0,0,0,.53Z"/><path class="cls-7" d="M107.58,228.44l.68.45a.42.42,0,0,0,.29,0,.4.4,0,0,0,.22-.18.36.36,0,0,0,0-.29.46.46,0,0,0-.17-.22l-.68-.45a.41.41,0,0,0-.29,0,.41.41,0,0,0-.22.17.38.38,0,0,0,0,.29.44.44,0,0,0,.17.23Z"/><path class="cls-7" d="M145,225.85a1.23,1.23,0,0,0-.76,0,1.17,1.17,0,0,0-.34.16,1.29,1.29,0,0,0-.33.33.41.41,0,0,0,0,.29.43.43,0,0,0,.18.22.36.36,0,0,0,.29,0,.46.46,0,0,0,.22-.17l0,0-.06.08a.54.54,0,0,1,.15-.15l-.08.06a1.06,1.06,0,0,1,.2-.12l-.09,0a1,1,0,0,1,.25-.07h-.1a1,1,0,0,1,.24,0h-.1l.16,0a.38.38,0,0,0,.46-.27.4.4,0,0,0-.27-.46Z"/><path class="cls-7" d="M144.9,227.06h-.19a1.73,1.73,0,0,1-.43-.12l.09,0-.18-.09a.42.42,0,0,0-.29,0,.38.38,0,0,0-.22.17.39.39,0,0,0,.13.52,2.18,2.18,0,0,0,1.09.27.4.4,0,0,0,.27-.11.35.35,0,0,0,.1-.26.38.38,0,0,0-.1-.27.46.46,0,0,0-.27-.11Z"/></g><g id="얼굴"><ellipse class="cls-9" cx="97" cy="58.19" rx="54" ry="51.19"/><path class="cls-5" d="M80,93.25a12.75,12.75,0,0,0-25.4-1.65,53.75,53.75,0,0,0,18.36,13A12.73,12.73,0,0,0,80,93.25Z"/><path class="cls-5" d="M137.38,91.6a12.75,12.75,0,1,0-18.36,13A53.75,53.75,0,0,0,137.38,91.6Z"/></g></svg>