<svg xmlns="http://www.w3.org/2000/svg" viewBox="0 0 193 169"><defs><style>.cls-1{fill:#efefef;stroke:#939393;stroke-miterlimit:10;opacity:0.5;}</style></defs><title>base</title><g id="장식_뒷부분인데_이걸_어떻게_넣을까_" data-name="장식 뒷부분인데 이걸 어떻게 넣을까??"><path class="cls-1" d="M180,127.5s-7,12-10,13-15-7-15-7-6,4-10,5-11-4-11-4a24.13,24.13,0,0,1-8,3l11-63,25,3S180,120.5,180,127.5Z"/><path class="cls-1" d="M13.89,127.5s7,12,10,13,15-7,15-7,6,4,10,5,11-4,11-4a24.13,24.13,0,0,0,8,3l-11-63-25,3S13.89,120.5,13.89,127.5Z"/></g></svg>