<svg xmlns="http://www.w3.org/2000/svg" viewBox="0 0 193 169"><defs><style>.cls-1{fill:#e5cda5;}.cls-2{fill:#fff9dc;}.cls-3{fill:#ffd44d;}.cls-4,.cls-5{fill:#efefef;stroke:#939393;opacity:0.5;}.cls-4{stroke-miterlimit:10;}.cls-5{stroke-linecap:round;stroke-linejoin:round;}.cls-6{fill:#3eaf4b;}.cls-7{fill:#1d7023;}.cls-8{fill:#ffddd0;}.cls-9{fill:#ff846c;}</style></defs><title>base</title><g id="장식2"><path class="cls-1" d="M142.2,77.61l-.6-.45A1,1,0,0,0,141,77a1.11,1.11,0,0,0-.6,0,1.26,1.26,0,0,0-.51.27,1.18,1.18,0,0,0-.38.42l-.15.36a1.55,1.55,0,0,0,0,.8l.15.36a1.45,1.45,0,0,0,.54.53l.6.45a1.09,1.09,0,0,0,.55.18,1.11,1.11,0,0,0,.6,0,1.14,1.14,0,0,0,.51-.27,1.21,1.21,0,0,0,.39-.42l.15-.36a1.55,1.55,0,0,0,0-.8l-.15-.36a1.55,1.55,0,0,0-.54-.54Z"/><path class="cls-1" d="M137.64,70.78a5.89,5.89,0,0,0,3.9,4.06,1.54,1.54,0,0,0,1.15-.15,1.5,1.5,0,0,0-.36-2.74l-.37-.14.36.15a4,4,0,0,1-.91-.54l.3.24a5.17,5.17,0,0,1-.81-.81l.24.3a4.49,4.49,0,0,1-.56-.94l.15.35a3.93,3.93,0,0,1-.19-.58,1.59,1.59,0,0,0-.69-.9,1.52,1.52,0,0,0-1.16-.15,1.5,1.5,0,0,0-.89.69,1.61,1.61,0,0,0-.16,1.16Z"/><path class="cls-1" d="M41.4,88a7.38,7.38,0,0,0,3.44-1.66A6.21,6.21,0,0,0,46,84.86a5.55,5.55,0,0,0,.91-2c0-.19.23-.15-.11,0s.06.11.17.12A8,8,0,0,0,48,83a3.43,3.43,0,0,0,2.09-.91,3.72,3.72,0,0,0,1.06-4l-1.05,1.84c.49-.09,1.38.54,1.8.7a3.7,3.7,0,0,0,2.48,0,4.32,4.32,0,0,0,2.63-4c0-1.9-1.18-3.36-2.37-4.72,0,0-.32-.44-.34-.44l0,.06c-.25.39-.27.51-.06.37.2,0,.81-.51.95-.64a2.28,2.28,0,0,0,.48-2.75,1.48,1.48,0,0,0-1.29-.74,5.55,5.55,0,0,0-3.57,1.33,1.48,1.48,0,0,0-.23,1.82,9.3,9.3,0,0,1,1.9,4.75,8.73,8.73,0,0,0,0,1.26.22.22,0,0,1,0,.14c-.07.15,0,.06.25-.27,0,0-.16,0-.18,0-.34-.18-.69-.16-1-.39a2.39,2.39,0,0,1-.67-.71A1.51,1.51,0,0,0,49,75a1.49,1.49,0,0,0-.87,1.77c.31.78-1,1.67-1.48,2.13a6.71,6.71,0,0,1-2.73,1.72c-1.22.32-2.25.39-3.16,1.4-.7.78-1.34,1.71-.79,2.76l-.2-.76q.26-.83-.06-.3a1.48,1.48,0,0,0,0,1.52c-.1-.53-.15-.63-.15-.32,0-.11,0-.12,0,0a2.09,2.09,0,0,0-.08.61A1.52,1.52,0,0,0,42,86.58l0,0c1.41-1.32-.71-3.44-2.12-2.12l0,0,2.56,1.06c0-.18-.06.44,0,0,0-.21.07-.42.07-.64a1.76,1.76,0,0,0-.25-1.12v1.52a1.82,1.82,0,0,0,.22-2l.21.76c0,.77-.14.5.14.18a1.06,1.06,0,0,1,.45-.35c.51-.21,1.12-.19,1.65-.36a9.27,9.27,0,0,0,3-1.76C49.6,80.4,52,78.3,51,76l-2.74,1.15a5.38,5.38,0,0,0,3.49,2.48c1.51.29,3.14-.14,3.61-1.79a8.84,8.84,0,0,0-.22-4.3,11.88,11.88,0,0,0-2-4.19l-.24,1.82a2.27,2.27,0,0,1,1.45-.45L53.08,70l.08.18L53,69.4c.33-.41.35-.52,0-.3l-.38.21a2.78,2.78,0,0,0-.88.79,2.53,2.53,0,0,0-.29,2.25c.47,1.38,1.87,2.14,2.4,3.5.25.63.23,2-.72,2-.52,0-1.19-.5-1.66-.67A3.85,3.85,0,0,0,49.33,77a1.5,1.5,0,0,0-1,1.85A.76.76,0,0,1,47.56,80a6,6,0,0,0-1.84.07,2.59,2.59,0,0,0-1.54,1.5A8,8,0,0,1,42.91,84a4.25,4.25,0,0,1-2.31,1.08c-1.88.42-1.09,3.31.8,2.9Z"/><path class="cls-1" d="M50.35,65.71a16,16,0,0,0,1.36-6.78L49.15,60c1.54,1.34,5,4,6.33,1.06,1.22-2.58-.33-5.49-1.7-7.67l-1.69,2.21a4.19,4.19,0,0,0,4.66-2.13c1-2,.08-3.4-.9-5.05s-.34-3.45.53-5.09c.29-.55.1-.41.72-.7a3.36,3.36,0,0,0,.86-.54,2.29,2.29,0,0,0,.69-2.5c-.69-1.78-3.6-1-2.89.79-.18-.45.33-.6-.47-.23a2.83,2.83,0,0,0-1.71,2A14.9,14.9,0,0,0,52.3,46a6.64,6.64,0,0,0,1,3.89c.33.53,1,1.07.94,1.74a1.09,1.09,0,0,1-1.3,1c-1.2-.2-2.45,1-1.7,2.21a9,9,0,0,1,1.7,3.82,7.21,7.21,0,0,0,0,.79c-.15.36-.06.38.25,0,.38-.14.42-.26.12-.34-.13-.21-.68-.38-.91-.53a9,9,0,0,1-1-.8,1.52,1.52,0,0,0-2.56,1.06,12.32,12.32,0,0,1-1,5.26C47,66,49.58,67.48,50.35,65.71Z"/><path class="cls-1" d="M138.93,41.65a2.32,2.32,0,0,0-3.21,1.17,2.75,2.75,0,0,0-.23,1.85c.18.73.85,1.38.93,2.11s-.49,1.45-.7,2a4.63,4.63,0,0,0-.28,1.77,3,3,0,0,0,2.12,2.91L136.89,51c-2.87,2.54-.08,7.37,3.55,5.91l-1.84-1.85a15.38,15.38,0,0,0-.91,5.54c0,1.41,0,3.49,1.69,3.92a2.46,2.46,0,0,0,2-.33l.18-.1c-.76-1.07-1.18-1.21-1.26-.44a6.16,6.16,0,0,0-.39,1.09c-.59,1.56-1.13,3-.61,4.71.35,1.1,2.2,1.62,2.74.36l1.31-3h-2.6c.3.6.8,1.55.31,2.1s-1,.57-1.33,1a3.07,3.07,0,0,0-.55,1.22,3,3,0,0,0,.64,2.6c.24.24.36.64.3-.06s-.11-.33-.41,0A7.68,7.68,0,0,0,138.6,75c-1,1.55-1.69,4.23-.37,5.78a5.09,5.09,0,0,0,3.09,1.29,35.19,35.19,0,0,0,3.83.5A1.51,1.51,0,0,0,146.21,80a3.83,3.83,0,0,1-1.28-2.61,1.52,1.52,0,0,0-2.56-1.07c-1.82,1.51-.69,4.08.95,5.15,1.12.73,2,1,2.74,2.25a13.83,13.83,0,0,0,2.06,3.12c.67.64,1.71,1.38,2.69,1.08a3.07,3.07,0,0,0,1.64-2c.31-1.2-1-4.07-2.45-3.9-1.89.23-1.92,3.23,0,3h.07L149,84.55c-.15-.11,0-.09,0,.07a3.05,3.05,0,0,0,.2.46c.11.27.2.55.3.82l.15-1.16c0,.09-.5.84-.35.7l1.06-.44c.27,0,.21-.07-.17-.25a3.83,3.83,0,0,1-.51-.62,9.55,9.55,0,0,1-.6-1A12.42,12.42,0,0,0,147.76,81a6.58,6.58,0,0,0-2-1.55c-.19-.1-1.45-.74-1.23-.92l-2.56-1.06a6.92,6.92,0,0,0,2.16,4.73l1.06-2.56a29.67,29.67,0,0,1-3.26-.43c-.45-.09-1.15-.09-1.35-.51-.12-.24.11-.87.18-1.09.5-1.6,2.7-2.62,2.2-4.47-.12-.45-.89-1.09-.75-1.39a8,8,0,0,1,1-.67,3.09,3.09,0,0,0,.74-1c.7-1.55.08-3.26-.61-4.69a1.51,1.51,0,0,0-2.6,0l-1.3,3,2.75.36c-.65-2.06,3.08-6.07.06-7.38a2.29,2.29,0,0,0-1.78,0l-.36.15q-.84.34.72.48a4.4,4.4,0,0,0-.1-1.12,13.1,13.1,0,0,1,.79-5A1.51,1.51,0,0,0,139.65,54c-.81.33-1.35-.25-.63-.88a1.52,1.52,0,0,0-.67-2.51c.32.1,0,.12.08-.33.06-.22.1-.45.18-.67a12.65,12.65,0,0,0,.74-2.06,4,4,0,0,0-.13-1.93,7.36,7.36,0,0,0-.51-1.06l-.19-.34c-.2-.39-.56-.39-1.1,0a1.55,1.55,0,0,0,2.05-.54,1.5,1.5,0,0,0-.54-2.05Z"/><path class="cls-2" d="M53.85,40.4a2.34,2.34,0,0,0,1.33-2.12,1,1,0,0,0-.2-.63.86.86,0,0,0-.9-.16.9.9,0,0,0-.5.35,1.13,1.13,0,0,0-.1.77,12.79,12.79,0,0,1,.25,1.74"/><path class="cls-3" d="M54,40.72a2.68,2.68,0,0,0,1.5-2.62,1.09,1.09,0,0,0-1.22-1,1.57,1.57,0,0,0-.86.35,1.16,1.16,0,0,0-.37.82,3.94,3.94,0,0,0,.13,1.08,5.1,5.1,0,0,1,.13,1,.38.38,0,0,0,.75,0,8.91,8.91,0,0,0-.23-1.62,1.63,1.63,0,0,1,0-.58.47.47,0,0,1,.31-.29l.13,0s.08,0,0,0h.2c-.05,0,.08,0,.1,0s.06,0,0,0l.05,0a.53.53,0,0,1,.08.24,1.64,1.64,0,0,1-.21,1,1.88,1.88,0,0,1-.92.88.38.38,0,0,0,.38.65Z"/><path class="cls-2" d="M53.87,40.47a3.1,3.1,0,0,1,1.2-.5,1.38,1.38,0,0,1,.67,0,1.25,1.25,0,0,1,.47.28.81.81,0,0,1,.27.37.77.77,0,0,1-.35.78,1.57,1.57,0,0,1-1.16.3,1.09,1.09,0,0,1-.62-.27c-.18-.18-.28-.44-.47-.62"/><path class="cls-3" d="M54.06,40.8a2.9,2.9,0,0,1,1-.46,1.35,1.35,0,0,1,.53,0,1,1,0,0,1,.38.26l.07.08s0,.09,0,0,0,.06,0,0,0,0,0,0v0s0,0,0,0,0,0,0,0l0,.05L56,41l-.09.09-.06,0h0a1.21,1.21,0,0,1-.91.2.62.62,0,0,1-.25-.09.63.63,0,0,1-.17-.15,4.8,4.8,0,0,0-.39-.53.38.38,0,0,0-.53,0,.37.37,0,0,0,0,.53.83.83,0,0,1,.16.21,3,3,0,0,0,.25.34,1.35,1.35,0,0,0,.69.4,1.92,1.92,0,0,0,1.53-.26,1.13,1.13,0,0,0,.52-1.42,1.5,1.5,0,0,0-.56-.56,1.42,1.42,0,0,0-.8-.24,3.16,3.16,0,0,0-1.73.59.38.38,0,0,0,.38.65Z"/><path class="cls-2" d="M53.82,40.75a2.17,2.17,0,0,1-.29,1.87,1.62,1.62,0,0,1-1.72.63.37.37,0,0,1-.18-.08.46.46,0,0,1-.08-.41,2.5,2.5,0,0,1,.49-1,5.47,5.47,0,0,1,.68-.83,2,2,0,0,1,.93-.52"/><path class="cls-3" d="M53.46,40.85a1.88,1.88,0,0,1,.07.63,1.66,1.66,0,0,1-.12.61,1.45,1.45,0,0,1-.73.75,1.57,1.57,0,0,1-.29.08s-.08,0,0,0H52a.83.83,0,0,0-.15,0s0,0,0,0l0,0s0,.07,0,0,0,0,0,0,0,0,0,0a.29.29,0,0,0,0-.09l.06-.18c0-.09.11-.2.16-.29s.27-.4.42-.59a2.14,2.14,0,0,1,1.18-.9.38.38,0,0,0,.27-.46.4.4,0,0,0-.47-.27A2.82,2.82,0,0,0,52,41.18a3.18,3.18,0,0,0-.88,1.7c0,.77.87.88,1.45.76a2.08,2.08,0,0,0,1.35-1,2.66,2.66,0,0,0,.22-2,.37.37,0,0,0-.72.2Z"/><path class="cls-2" d="M53.65,40.45a2,2,0,0,0-.12-.91.9.9,0,0,0-.26-.4.94.94,0,0,0-.51-.19,2.76,2.76,0,0,0-1.45.19.32.32,0,0,0-.14.08c-.11.11-.06.29,0,.42a1.9,1.9,0,0,0,.48.5,2.89,2.89,0,0,0,.91.53,1.21,1.21,0,0,0,1-.12"/><path class="cls-3" d="M54,40.45a2.39,2.39,0,0,0-.09-.84,1.41,1.41,0,0,0-.42-.75,2.77,2.77,0,0,0-2.51,0,.68.68,0,0,0-.18.9,1.91,1.91,0,0,0,.51.59,4.48,4.48,0,0,0,.67.47,1.77,1.77,0,0,0,1.78.05.39.39,0,0,0,.13-.52.37.37,0,0,0-.51-.13l-.12.07h0l-.07,0-.06,0H53a1.18,1.18,0,0,1-.48-.1,2.73,2.73,0,0,1-.9-.65.65.65,0,0,1-.13-.16s0-.08,0,0,0,0,0,0,0,.06,0,0a.73.73,0,0,1,0,.12h0s0,0,0,0l.15,0,.3-.08a2.78,2.78,0,0,1,.59,0h.16l.09,0,.11,0,.08,0h0a.32.32,0,0,1,.14.14l0,.07v0a1,1,0,0,1,.05.16,1.69,1.69,0,0,1,.07.67.37.37,0,0,0,.37.38.39.39,0,0,0,.38-.38Z"/><path class="cls-2" d="M37.42,48.14a2.1,2.1,0,0,0,.09-1.6,8.55,8.55,0,0,0-.65-2.12,3.46,3.46,0,0,0-1.48-1.61.91.91,0,0,0-.5-.13,1,1,0,0,0-.58.29,4.92,4.92,0,0,0-.92,1,.84.84,0,0,0-.2.51c0,.27.26.46.48.62A15.05,15.05,0,0,1,37,48.39"/><path class="cls-3" d="M38.07,48.52a2.64,2.64,0,0,0,.23-1.81,10.92,10.92,0,0,0-.37-1.6,5.08,5.08,0,0,0-1.87-2.77,1.73,1.73,0,0,0-1.78-.25A4,4,0,0,0,33,43.21c-.42.54-.81,1.17-.44,1.85a4.24,4.24,0,0,0,1.17,1.06,14.55,14.55,0,0,1,2.55,2.65.77.77,0,0,0,1,.26.75.75,0,0,0,.27-1,15.76,15.76,0,0,0-1.82-2.09c-.32-.31-.66-.61-1-.89s-.39-.31-.59-.45L34,44.42s-.06-.06,0-.05,0,0,0,0,.18.25,0,.17c0,0-.15.1,0,0s.09-.15.13-.2a4.91,4.91,0,0,1,.43-.48,1.86,1.86,0,0,1,.4-.35c.09-.06.09,0,0,0s.07,0,.13.07a3,3,0,0,1,1.29,1.67,11.78,11.78,0,0,1,.41,1.52,3.25,3.25,0,0,1,.09.59.8.8,0,0,1-.09.48.75.75,0,0,0,1.29.76Z"/><path class="cls-2" d="M37.49,48.45a4.47,4.47,0,0,1,1.25-2,2.34,2.34,0,0,1,3,.14.49.49,0,0,1,.16.24.55.55,0,0,1-.08.35,6.13,6.13,0,0,1-1.64,2.19,2.82,2.82,0,0,1-2.59.54"/><path class="cls-3" d="M38.21,48.65c0-.09.07-.18.1-.26l0-.1c0-.11,0,.1,0,0s.15-.34.24-.51a4,4,0,0,1,.27-.44s.09-.1,0,0l.06-.08.22-.21s.11-.1,0,0l.08-.05.18-.12.11-.05s-.14.05,0,0a1.19,1.19,0,0,1,.23-.07s.29-.05.11,0l.21,0h.34c-.17,0,0,0,0,0l.21,0s.26.1.11,0l.19.1s.25.17.12.07c.06,0,.11.1.16.14l0,0a.2.2,0,0,1-.07-.16s-.05-.19,0-.18v0l0,.07s0,.08-.07.13l-.15.29-.29.46a1.53,1.53,0,0,1-.14.21l-.06.09c-.14.19.09-.1-.06.08s-.22.26-.34.38l-.21.19-.08.07,0,0c-.17.12-.34.2-.51.3s.1,0,0,0l-.16.06-.27.07-.14,0c-.2,0,.08,0,0,0s-.21,0-.31,0H38.1c.08,0,.07,0,0,0a2,2,0,0,1-.33-.09.75.75,0,0,0-.4,1.45,3.45,3.45,0,0,0,2.88-.42,5.85,5.85,0,0,0,2-2.2c.29-.52.62-1.11.26-1.69a2.53,2.53,0,0,0-1.24-.89,3.12,3.12,0,0,0-2.62.2,4.79,4.79,0,0,0-1.84,2.66.74.74,0,0,0,.52.92.77.77,0,0,0,.92-.52Z"/><path class="cls-2" d="M37.12,49.74a7.23,7.23,0,0,1,1.6,3.55c0,.21,0,.49-.19.54a.41.41,0,0,1-.22,0,3.42,3.42,0,0,1-1.86-1.19,2.17,2.17,0,0,1-.32-2.12,3.79,3.79,0,0,0,.48-1.12,1.32,1.32,0,0,0-.76-1.19,2.33,2.33,0,0,0-3.07.88.82.82,0,0,0-.13.57.78.78,0,0,0,.18.35,3.36,3.36,0,0,0,.6.65.58.58,0,0,0,.29.17.64.64,0,0,0,.42-.1c.65-.34,1.22-1,2-.94"/><path class="cls-3" d="M36.59,50.27a6.39,6.39,0,0,1,1.28,2.58,4.26,4.26,0,0,1,.1.49s0,.09,0,.1.05-.14.08-.17l.33-.19h.11l-.13,0L38.15,53l-.25-.12a2.53,2.53,0,0,1-.68-.48A1.38,1.38,0,0,1,37,50.54a2.78,2.78,0,0,0,.4-1.07,1.92,1.92,0,0,0-.74-1.66,3,3,0,0,0-3.32-.25,2.74,2.74,0,0,0-1.18,1.18,1.57,1.57,0,0,0-.17,1.14,2.39,2.39,0,0,0,.61.95,2.11,2.11,0,0,0,.93.69,1.48,1.48,0,0,0,1.19-.25c.26-.15.5-.34.75-.5a3,3,0,0,1,.39-.22.69.69,0,0,1,.28,0,.75.75,0,0,0,0-1.5,3.35,3.35,0,0,0-2,.81s-.37.19-.38.24.35.19.09-.06a3.41,3.41,0,0,1-.37-.39s0,0-.06-.09,0-.06,0,0a1.47,1.47,0,0,1,1-.82,1.4,1.4,0,0,1,1.19.2.65.65,0,0,1,.22.26.31.31,0,0,1,0,.19c-.1.27-.33.62-.46.93a2.84,2.84,0,0,0,.14,2.25,3.53,3.53,0,0,0,1.52,1.56c.69.38,1.81.84,2.29-.08a2,2,0,0,0,0-1.33A6.84,6.84,0,0,0,39,51.53a8.26,8.26,0,0,0-1.37-2.32.75.75,0,0,0-1.06,0,.76.76,0,0,0,0,1.06Z"/><path class="cls-2" d="M30.35,60a4,4,0,0,0,3.83-2,1.68,1.68,0,0,0,.25-1.1,1.47,1.47,0,0,0-1.2-1,1.52,1.52,0,0,0-1,.09,2,2,0,0,0-.84,1,21.25,21.25,0,0,1-1.15,2.79"/><path class="cls-3" d="M30.35,60.7A4.71,4.71,0,0,0,35,58a2,2,0,0,0,0-1.79,2.34,2.34,0,0,0-1.23-1,2.44,2.44,0,0,0-1.62-.06,2.31,2.31,0,0,0-1.26,1.12,10.71,10.71,0,0,0-.66,1.65c-.09.26-.19.53-.3.79.05-.11,0,0,0,.06s-.07.16-.11.23l-.21.39a.75.75,0,1,0,1.29.76,14,14,0,0,0,1-2.5l.11-.27c0-.14,0-.06,0,0a1,1,0,0,1,.07-.15c0-.07.08-.15.12-.23l.07-.11a.56.56,0,0,1,0-.08s0,.06,0,0l.09-.1s.11-.1,0,0,.08,0,.08,0,.12-.06,0,0l.14,0H33c-.14,0,.1,0,.13,0s.25.1.11,0a1.71,1.71,0,0,1,.23.13s.12.1,0,0,0,0,.05.06.11.15.06.06l0,0c.09.17,0-.08,0,.1s0-.18,0,0c0,0,0,.15,0,0a1.29,1.29,0,0,1-.1.35c0-.12-.07.13-.08.15l-.13.21a1.43,1.43,0,0,1-.14.2c.09-.12,0,0,0,0l-.12.13a3.24,3.24,0,0,1-.38.36s-.12.1,0,0,0,0,0,0l-.26.17a1.35,1.35,0,0,1-.26.15l-.11.06c-.07,0-.12.05,0,0a5.8,5.8,0,0,1-.59.19l-.3.06H31a3.21,3.21,0,0,1-.62,0,.76.76,0,0,0-.75.75.77.77,0,0,0,.75.75Z"/><path class="cls-2" d="M30.31,60.08a5.28,5.28,0,0,1,2.23.31,2.37,2.37,0,0,1,1,.6,2.15,2.15,0,0,1,.44.83,1.14,1.14,0,0,1-1.12,1.63,2.75,2.75,0,0,1-2-.57,1.92,1.92,0,0,1-.66-1c-.12-.43,0-.9-.17-1.32"/><path class="cls-3" d="M30.31,60.83a5,5,0,0,1,.55,0h.4c.06,0,.1,0,0,0a5.81,5.81,0,0,1,1.09.28l.09,0h0l.23.12.13.08,0,0,.11.11,0,.06,0,0,.14.24s0,.13,0,0l0,.09.09.31s0,.12,0,0,0,.06,0,.08v.11c0-.13,0,0,0,0,.09-.21,0,0,0,.06s.1-.11,0,0-.07.09-.09.09.15-.1,0,0l-.07,0-.09,0c-.08.05,0,0,0,0l-.21.07-.11,0c-.11,0,0,0,0,0s-.21,0-.26,0h-.33L32,62.63l-.22-.08c.13.05,0,0-.09,0a.82.82,0,0,1-.2-.12.41.41,0,0,1-.11-.07l0,0-.2-.2L31.05,62c-.06-.06.05.1,0,0l-.12-.21c.06.13,0,0,0,0s0-.11-.05-.16,0,.11,0,0,0-.12,0-.17,0-.19,0-.29a3.76,3.76,0,0,0-.1-.75.75.75,0,1,0-1.45.4.85.85,0,0,1,0,.17c0,.12,0-.17,0,0s0,.19,0,.28a3.85,3.85,0,0,0,.1.83,2.56,2.56,0,0,0,.72,1.16,3.46,3.46,0,0,0,2.6.91,2,2,0,0,0,2-1.67,2.82,2.82,0,0,0-.36-1.5,2.59,2.59,0,0,0-1-1.05,5.7,5.7,0,0,0-3.14-.65.75.75,0,0,0,0,1.5Z"/><path class="cls-2" d="M30,60.44A3.8,3.8,0,0,1,27.93,63a2.81,2.81,0,0,1-3.11-.58.68.68,0,0,1-.18-.27.72.72,0,0,1,.23-.68,4.53,4.53,0,0,1,1.57-1,9.77,9.77,0,0,1,1.74-.63,3.38,3.38,0,0,1,1.84,0"/><path class="cls-3" d="M29.27,60.24a3.28,3.28,0,0,1-1,1.67,3.36,3.36,0,0,1-.73.42l-.22.06-.15,0s-.13,0-.06,0h-.47s-.26,0-.15,0l-.22,0L26,62.31c-.08,0,0,0,0,0l-.14-.06-.23-.14-.09-.06h0l-.19-.19,0,.13s.05,0,0,0l.22-.22a4.54,4.54,0,0,1,.43-.29,11.62,11.62,0,0,1,1.13-.53,3.93,3.93,0,0,1,2.64-.36.75.75,0,0,0,.92-.52.77.77,0,0,0-.52-.92,5.09,5.09,0,0,0-3.49.38c-1,.41-2.36.9-2.77,2s.92,2.06,1.89,2.31a3.71,3.71,0,0,0,2.89-.44,4.65,4.65,0,0,0,2-2.75.75.75,0,0,0-1.45-.4Z"/><path class="cls-2" d="M30,59.86a3.6,3.6,0,0,0,.61-1.47,1.59,1.59,0,0,0,0-.81,1.71,1.71,0,0,0-.6-.73,4.94,4.94,0,0,0-2.31-1,.94.94,0,0,0-.29,0,.62.62,0,0,0-.33.64,3.44,3.44,0,0,0,.27,1.18,4.72,4.72,0,0,0,.9,1.57,2.09,2.09,0,0,0,1.6.72"/><path class="cls-3" d="M30.65,60.24a4.37,4.37,0,0,0,.62-1.31,2.68,2.68,0,0,0,0-1.61A3.81,3.81,0,0,0,29,55.44a4.81,4.81,0,0,0-1.39-.35,1.22,1.22,0,0,0-1.26,1,3,3,0,0,0,.18,1.57,7.41,7.41,0,0,0,.6,1.35,3.12,3.12,0,0,0,2.7,1.71.75.75,0,0,0,0-1.5h-.25c.14,0,0,0-.09,0l-.21-.07h0L29.17,59A1.53,1.53,0,0,1,29,58.9l-.08-.07-.16-.17-.09-.11c.05.06,0,0,0,0s-.19-.3-.27-.45a2.26,2.26,0,0,1-.11-.22l-.06-.13,0,0a4.68,4.68,0,0,1-.18-.48A2.58,2.58,0,0,1,27.9,57a.57.57,0,0,1,0-.14s-.05-.21,0-.13,0,0,0,0v-.16s0-.1,0-.1,0,.15,0,.07v0c0,.09,0,0,0,0a.3.3,0,0,1-.13.12s-.21.07-.11.05-.09,0,0,0l.1,0,.27.06a4,4,0,0,1,.49.15l.11,0,.25.12a5.05,5.05,0,0,1,.45.25l.19.14c.12.08,0,0,0,0l.1.08.16.15.09.1c.07.07-.07-.13,0,0a.41.41,0,0,0,.05.09s0-.1,0,0,0,.15,0,0V58a.76.76,0,0,1,0,.15.55.55,0,1,0,0,.06,1.31,1.31,0,0,1-.06.27l-.09.3a.3.3,0,0,0,0,.1c0,.07,0-.08,0,0a4.8,4.8,0,0,1-.32.54.75.75,0,0,0,.27,1,.77.77,0,0,0,1-.27Z"/><path class="cls-4" d="M152,79.5s5,43,13,49a37.24,37.24,0,0,0,16,7s2-4,0-12-16-46-20-50l-10,1Z"/><path class="cls-5" d="M40.89,79.5s-5,43-13,49a37.24,37.24,0,0,1-16,7s-2-4,0-12,16-46,20-50l10,1Z"/><path class="cls-6" d="M34.14,58.66a6.5,6.5,0,0,0-1.42-6.24A8.26,8.26,0,0,0,30,50.83a36.84,36.84,0,0,0-3.58-1.23c-.13,0-.29-.06-.38,0a.35.35,0,0,0-.08.26,8.53,8.53,0,0,0,7.69,8.87"/><path class="cls-7" d="M34.5,58.76a7.56,7.56,0,0,0-.45-5.15c-.91-1.84-2.73-2.67-4.55-3.36-.51-.2-1-.38-1.54-.55a8.49,8.49,0,0,0-1.63-.49c-1-.12-.82,1.3-.74,2a8.89,8.89,0,0,0,8,8c.48,0,.47-.7,0-.75a8.23,8.23,0,0,1-7-6.06,7.52,7.52,0,0,1-.23-1.24,5.85,5.85,0,0,1,0-.6c0-.1,0-.2,0-.3V50c0-.1,0-.1,0,0s.51.15.65.19l.66.21,1.38.48c1.57.58,3.28,1.23,4.2,2.73a6.64,6.64,0,0,1,.6,5c-.11.47.61.67.72.2Z"/><path class="cls-6" d="M30,78.59A6.53,6.53,0,0,0,24.16,76a8.4,8.4,0,0,0-2.93,1.27c-1.07.66-2.11,1.37-3.11,2.13-.11.09-.23.2-.21.33a.38.38,0,0,0,.16.22,8.55,8.55,0,0,0,11.71-.86"/><path class="cls-7" d="M30.28,78.32a7.46,7.46,0,0,0-4.71-2.73c-2.12-.25-4,.94-5.65,2.06l-1.37.95c-.3.22-.81.48-1,.85-.31.73.94,1.32,1.42,1.59a9,9,0,0,0,5.46,1.14A9.08,9.08,0,0,0,30,79.34c.33-.35-.2-.88-.53-.53a8.16,8.16,0,0,1-8.42,2.32,8.53,8.53,0,0,1-1.53-.64c-.23-.13-.45-.26-.67-.41l-.32-.22c-.26-.09-.32-.17-.16-.23s.48-.35.61-.44l.72-.52c.49-.33,1-.66,1.49-1a8.33,8.33,0,0,1,3-1.34c2.14-.35,4.16.92,5.49,2.5.31.36.84-.17.53-.54Z"/><path class="cls-6" d="M47.41,70.45a12.26,12.26,0,0,1,4.74,2.1,5.65,5.65,0,0,1,1.77,1.9,6.82,6.82,0,0,1,.55,3.14.83.83,0,0,1-.19.66.73.73,0,0,1-.48.13,4.18,4.18,0,0,1-2.51-1.06,10.78,10.78,0,0,1-3.9-6.74"/><path class="cls-7" d="M47.31,70.81a12.16,12.16,0,0,1,4,1.63A5.25,5.25,0,0,1,54,75.68a8.06,8.06,0,0,1,.13,1.1,3.87,3.87,0,0,1,0,1c-.17.61-1.58-.11-1.9-.31a9.24,9.24,0,0,1-2.83-2.84,10.49,10.49,0,0,1-1.61-4.17c-.08-.47-.8-.27-.73.2A11.2,11.2,0,0,0,48.71,75a9.68,9.68,0,0,0,3.39,3.28,2.82,2.82,0,0,0,2.22.35c.7-.33.54-1.32.5-2a6,6,0,0,0-.52-2.33,5.52,5.52,0,0,0-1.57-1.86,12.58,12.58,0,0,0-5.22-2.43c-.48-.1-.68.62-.2.72Z"/><path class="cls-6" d="M47.41,53.45a12.26,12.26,0,0,1,4.74,2.1,5.65,5.65,0,0,1,1.77,1.9,6.82,6.82,0,0,1,.55,3.14.83.83,0,0,1-.19.66.73.73,0,0,1-.48.13,4.18,4.18,0,0,1-2.51-1.06,10.78,10.78,0,0,1-3.9-6.74"/><path class="cls-7" d="M47.31,53.81a12.16,12.16,0,0,1,4,1.63A5.25,5.25,0,0,1,54,58.68a8.06,8.06,0,0,1,.13,1.1,3.87,3.87,0,0,1,0,1c-.17.61-1.58-.11-1.9-.31a9.24,9.24,0,0,1-2.83-2.84,10.49,10.49,0,0,1-1.61-4.17c-.08-.47-.8-.27-.73.2A11.2,11.2,0,0,0,48.71,58a9.68,9.68,0,0,0,3.39,3.28,2.82,2.82,0,0,0,2.22.35c.7-.33.54-1.32.5-1.95a6,6,0,0,0-.52-2.33,5.52,5.52,0,0,0-1.57-1.86,12.58,12.58,0,0,0-5.22-2.43c-.48-.1-.68.62-.2.72Z"/><path class="cls-6" d="M47.36,70.85a7.78,7.78,0,0,1,2.13-2.57A3.69,3.69,0,0,1,51,67.51a4.49,4.49,0,0,1,2.05.21.55.55,0,0,1,.37.23.44.44,0,0,1,0,.32,2.64,2.64,0,0,1-1.1,1.37,6.92,6.92,0,0,1-4.85,1.25"/><path class="cls-7" d="M47.68,71a7.7,7.7,0,0,1,1.55-2,3.44,3.44,0,0,1,2.28-1.16,4.79,4.79,0,0,1,1.41.24c.08,0,.11,0,.12.06a.58.58,0,0,1-.09.25,1.69,1.69,0,0,1-.35.49,5.44,5.44,0,0,1-2.24,1.33,6.57,6.57,0,0,1-2.92.3c-.48-.05-.48.7,0,.75a7.2,7.2,0,0,0,3.22-.36,5.87,5.87,0,0,0,2.66-1.7,1.59,1.59,0,0,0,.43-1.35c-.17-.48-.84-.56-1.27-.65a3.76,3.76,0,0,0-1.7,0,4.13,4.13,0,0,0-1.44.75A8.32,8.32,0,0,0,47,70.66c-.23.43.42.81.64.38Z"/><path class="cls-6" d="M49,53.42A7.85,7.85,0,0,1,52,52a3.63,3.63,0,0,1,1.67-.07A4.36,4.36,0,0,1,55.41,53c.12.1.25.22.25.37a.47.47,0,0,1-.14.29A2.62,2.62,0,0,1,54,54.4,6.93,6.93,0,0,1,49,53.48"/><path class="cls-7" d="M49.15,53.74a7.79,7.79,0,0,1,3.16-1.45,2.7,2.7,0,0,1,1.66.13,3.75,3.75,0,0,1,.74.45c.1.08.58.37.57.48s-.41.34-.52.39A2.88,2.88,0,0,1,54,54a6.2,6.2,0,0,1-1.55.12,6.66,6.66,0,0,1-3.19-1c-.41-.25-.79.39-.38.65a7.34,7.34,0,0,0,3,1A6,6,0,0,0,55,54.48a1.75,1.75,0,0,0,1.06-1c.12-.52-.4-.86-.76-1.13a4.34,4.34,0,0,0-1.34-.76,3.67,3.67,0,0,0-1.68,0,8,8,0,0,0-3.45,1.54c-.38.29,0,.94.37.65Z"/><path class="cls-6" d="M34.86,57.64a7.9,7.9,0,0,1-.77-3.24,3.58,3.58,0,0,1,.28-1.65,4.36,4.36,0,0,1,1.39-1.51.55.55,0,0,1,.41-.16.49.49,0,0,1,.26.19A2.73,2.73,0,0,1,36.86,53a6.88,6.88,0,0,1-1.92,4.62"/><path class="cls-7" d="M35.19,57.45a7.18,7.18,0,0,1-.72-3.5A2.53,2.53,0,0,1,35,52.41a3.51,3.51,0,0,1,.55-.54c.09-.08.43-.43.53-.39s.27.5.3.65a3.41,3.41,0,0,1,.08.85,6.6,6.6,0,0,1-1.82,4.36c-.33.35.2.88.53.53a7.46,7.46,0,0,0,1.65-2.7A6.34,6.34,0,0,0,37.16,52a1.84,1.84,0,0,0-.72-1.24c-.48-.27-.93.16-1.27.44A3.64,3.64,0,0,0,33.72,54a8,8,0,0,0,.82,3.88c.2.44.85.06.65-.38Z"/><path class="cls-6" d="M44.86,39.64a7.9,7.9,0,0,1-.77-3.24,3.58,3.58,0,0,1,.28-1.65,4.36,4.36,0,0,1,1.39-1.51.55.55,0,0,1,.41-.16.49.49,0,0,1,.26.19A2.73,2.73,0,0,1,46.86,35a6.88,6.88,0,0,1-1.92,4.62"/><path class="cls-7" d="M45.19,39.45a7.18,7.18,0,0,1-.72-3.5A2.53,2.53,0,0,1,45,34.41a3.51,3.51,0,0,1,.55-.54c.09-.08.43-.43.53-.39s.27.5.3.65a3.41,3.41,0,0,1,.08.85,6.6,6.6,0,0,1-1.82,4.36c-.33.35.2.88.53.53a7.46,7.46,0,0,0,1.65-2.7A6.34,6.34,0,0,0,47.16,34a1.84,1.84,0,0,0-.72-1.24c-.48-.27-.93.16-1.27.44A3.64,3.64,0,0,0,43.72,36a8,8,0,0,0,.82,3.88c.2.44.85.06.65-.38Z"/><path class="cls-6" d="M41.86,35.16a8,8,0,0,1,2.53,2.18,3.62,3.62,0,0,1,.73,1.5,4.33,4.33,0,0,1-.25,2,.51.51,0,0,1-.24.37.44.44,0,0,1-.32,0A2.68,2.68,0,0,1,43,40.12a7,7,0,0,1-1.15-4.88"/><path class="cls-7" d="M41.67,35.48a7.84,7.84,0,0,1,2,1.58,3.51,3.51,0,0,1,1.12,2.35,9.53,9.53,0,0,1-.29,1.41c0,.12,0,.08-.09.06a.87.87,0,0,1-.25-.1,2.19,2.19,0,0,1-.48-.37,5.56,5.56,0,0,1-1.23-2.18,6.44,6.44,0,0,1-.26-2.89.39.39,0,0,0-.27-.46.38.38,0,0,0-.46.26,7.4,7.4,0,0,0,.25,3.24,6,6,0,0,0,1.58,2.69,1.8,1.8,0,0,0,1.31.57c.54-.08.65-.67.76-1.1a4.07,4.07,0,0,0,.12-1.8,3.71,3.71,0,0,0-.71-1.5,8.35,8.35,0,0,0-2.72-2.4c-.42-.24-.8.41-.38.64Z"/><path class="cls-6" d="M32.82,77.66a13.52,13.52,0,0,1,.12,2.91,4.45,4.45,0,0,1-1.1,2.64,5.84,5.84,0,0,1-1.75,1.15,22.67,22.67,0,0,1-3.84,1.42.57.57,0,0,1-.46,0,.52.52,0,0,1-.16-.29,3.2,3.2,0,0,1,.72-2.42c1.07-1.65,2.29-3.21,3.51-4.76.54-.69,1.32-1.47,2.16-1.22"/><path class="cls-7" d="M32.44,77.66A8.25,8.25,0,0,1,32.2,82c-.6,1.35-2,1.94-3.26,2.47a19.09,19.09,0,0,1-2.08.75c-.18.06-.76.31-.87.17s0-.87.13-1.12a9.25,9.25,0,0,1,1.15-1.9c.42-.6.85-1.2,1.3-1.79s1.05-1.38,1.6-2.06c.41-.51,1-1.24,1.75-1.07.47.11.67-.61.2-.72-1.64-.38-2.75,1.59-3.59,2.68-.55.72-1.1,1.44-1.63,2.18a12.85,12.85,0,0,0-1.45,2.34c-.23.56-.49,1.64.08,2.11a.88.88,0,0,0,.82.11,13.51,13.51,0,0,0,1.41-.43,23,23,0,0,0,2.52-1,5.55,5.55,0,0,0,2-1.41c1.3-1.58,1.13-3.71.91-5.61,0-.47-.8-.48-.75,0Z"/><path class="cls-8" d="M40.16,38.36c-1.3.86-1.33,2.72-1.92,4.17-.42,1-1.16,1.91-1.48,3a8,8,0,0,0,.51,4.62l.58,1.82a4.38,4.38,0,0,0,1.44,2.45c1,.68,2.35.41,3.56.24a16.62,16.62,0,0,1,2.82-.16,14.11,14.11,0,0,0,2.68,0,5,5,0,0,0,3.94-6.28,2.71,2.71,0,0,1-.23-1.64,3.07,3.07,0,0,1,.54-.79,5,5,0,0,0,.8-2.29c.19-1.35.09-3-1-3.71a6.87,6.87,0,0,0-1.46-.59,26.53,26.53,0,0,1-3.06-1.75,3.48,3.48,0,0,0-3.37-.25c-.51.31-.91.83-1.49,1a3.17,3.17,0,0,1-.87,0,4.25,4.25,0,0,0-3.51,1.48"/><path class="cls-9" d="M45.79,48.37c-.81.18-1.25-1.27-1.4-1.82a.85.85,0,0,1,.36-1.06A11.62,11.62,0,0,1,46,44.68,14.46,14.46,0,0,1,47.42,44a1.81,1.81,0,0,1,.65-.23c.12,0,.24.16.31.25a2,2,0,0,1,.07,2,5.41,5.41,0,0,1-2.34,2.05c-.67.38-.07,1.41.61,1a6.37,6.37,0,0,0,2.8-2.56,3.18,3.18,0,0,0-.25-3.37,1.53,1.53,0,0,0-1.85-.52,15,15,0,0,0-1.94.92,9.4,9.4,0,0,0-1.69,1.13,1.93,1.93,0,0,0-.62,1.89,5.63,5.63,0,0,0,.35,1.05,4.57,4.57,0,0,0,.51,1,2,2,0,0,0,2.08.88c.75-.17.43-1.33-.32-1.16Z"/><path class="cls-9" d="M46.43,48.31c0,.07,0-.13-.06-.15a2.25,2.25,0,0,1-.08-.24c0-.14-.07-.29-.1-.44s0-.08,0-.12,0,0,0,0a2.28,2.28,0,0,1,0-.26,3.23,3.23,0,0,1,0-.44A3.85,3.85,0,0,1,46.64,45a.61.61,0,0,0-.22-.82.6.6,0,0,0-.82.21,5.08,5.08,0,0,0-.21,4.54.6.6,0,0,0,.82.22.62.62,0,0,0,.22-.83Z"/><path class="cls-9" d="M46.27,45.49a1.88,1.88,0,0,1,.34,0l-.16,0a2.15,2.15,0,0,1,.5.12s.11,0,0,0,0,0,0,0l.11.05.23.14.05,0c.06,0-.1-.09-.05,0l.11.09.18.18,0,.05c-.06-.09,0,0,0,0l0,0a1.38,1.38,0,0,1,.14.24.6.6,0,0,0,.82.21.61.61,0,0,0,.22-.82,2.87,2.87,0,0,0-2.58-1.53.6.6,0,1,0,0,1.2Z"/><path class="cls-9" d="M43.72,47.9A4.21,4.21,0,0,0,43.33,50a2,2,0,0,0,1,1.56,3.5,3.5,0,0,0,2.15.09A2.12,2.12,0,0,0,48,50.4a10.15,10.15,0,0,0,.63-2.25.63.63,0,0,0-.42-.74.61.61,0,0,0-.74.42c-.07.4-.16.79-.26,1.18,0,.16-.09.31-.13.47a2.09,2.09,0,0,0-.08.23c0,.12,0,0,0,.09a2.12,2.12,0,0,1-.11.21s-.14.19-.08.12l-.12.13c0,.05-.06.05,0,0l-.11.07a1.55,1.55,0,0,1-.36.11,3.74,3.74,0,0,1-.42,0l-.53,0a.78.78,0,0,1-.3-.07.78.78,0,0,1-.34-.42c0-.07,0-.13,0-.2s0-.08,0,0v-.11a1.85,1.85,0,0,1,0-.42,7.83,7.83,0,0,1,.34-1.07.59.59,0,0,0-.42-.73.6.6,0,0,0-.73.41Z"/><path class="cls-9" d="M48.42,49.3a4.83,4.83,0,0,0,1.2.05,1.49,1.49,0,0,0,1.2-.51,3.41,3.41,0,0,0,.39-1,6.92,6.92,0,0,0,.21-1.12,4.14,4.14,0,0,0-.25-2.12,1.64,1.64,0,0,0-1.82-1,.61.61,0,0,0-.42.74.62.62,0,0,0,.74.42c.16,0,0,0,.06,0h0l.07,0,.06,0s0,0,0,0,.11.07.06,0a.71.71,0,0,1,.24.41,3.79,3.79,0,0,1,.07,1.43,4.8,4.8,0,0,1-.35,1.35s-.1.18,0,.07,0,0,0,0-.24,0-.34,0a3.22,3.22,0,0,1-.76,0,.62.62,0,0,0-.74.42.61.61,0,0,0,.42.74Z"/><path class="cls-9" d="M44,48.06c-.44.14-.91.26-1.34.43.09,0-.11,0-.11,0s0,.1,0-.05-.15-.4-.21-.6a3.93,3.93,0,0,1,0-2.4A2.88,2.88,0,0,1,45.7,43.9a.61.61,0,0,0,.73-.42.6.6,0,0,0-.42-.74,4.36,4.36,0,0,0-4.31,1.34,4.87,4.87,0,0,0-.2,5c.59,1.11,1.92.42,2.8.14s.42-1.4-.31-1.16Z"/><path class="cls-9" d="M45.78,42.79a2.77,2.77,0,0,1,0-.91c.05-.24.17-.34.43-.41a11.66,11.66,0,0,1,1.33-.3A6,6,0,0,1,48.83,41c.27,0,.51.3.68.49a3.63,3.63,0,0,1,.54.8,3.39,3.39,0,0,1,.29,2,.61.61,0,0,0,.6.6.62.62,0,0,0,.6-.6A4.52,4.52,0,0,0,51,41.52c-.42-.77-1.21-1.74-2.17-1.73a9.8,9.8,0,0,0-1.7.24,7,7,0,0,0-1.57.41,2.14,2.14,0,0,0-1,2.35.61.61,0,0,0,.6.6.62.62,0,0,0,.6-.6Z"/><path class="cls-9" d="M42.13,44.69a7.08,7.08,0,0,1-1.06-2c-.08-.22-.28-.63-.2-.87s.53-.4.73-.5a6.52,6.52,0,0,1,2.11-.68,1.53,1.53,0,0,1,1.55.53c.41.65,1.45,0,1-.61-1.13-1.85-3.76-1.06-5.31-.27a2.52,2.52,0,0,0-1.11.85,1.81,1.81,0,0,0-.09,1.51,8.4,8.4,0,0,0,1.3,2.61.63.63,0,0,0,.82.22.61.61,0,0,0,.22-.82Z"/><path class="cls-9" d="M44.31,40a5.42,5.42,0,0,1,1.49-1.74c.5-.38,1.36-1,2-.64a4,4,0,0,1,.84.75,7.52,7.52,0,0,1,.84.94,3.85,3.85,0,0,1,.83,2.38.6.6,0,0,0,1.2,0,4.85,4.85,0,0,0-1-3,10.48,10.48,0,0,0-1.07-1.23,4.11,4.11,0,0,0-1.25-1,3.16,3.16,0,0,0-2.9.68,6.66,6.66,0,0,0-2,2.24c-.37.67.66,1.28,1,.6Z"/><path class="cls-9" d="M47.3,51.66l1.83.11a5.14,5.14,0,0,0,1.66-.05,3.31,3.31,0,0,0,1.92-2.08,6.84,6.84,0,0,0,.76-3.22,4.06,4.06,0,0,0-.39-1.5,5.62,5.62,0,0,0-1-1.3c-.52-.57-1.37.28-.85.85a4.6,4.6,0,0,1,.82,1,2.91,2.91,0,0,1,.26,1.12,5.76,5.76,0,0,1-.66,2.56c-.27.6-.61,1.35-1.34,1.45a7.58,7.58,0,0,1-1.43-.05l-1.55-.09c-.77-.05-.77,1.15,0,1.2Z"/><path class="cls-9" d="M53.86,46.47l.42-2.88A7.23,7.23,0,0,0,54.39,41a3.84,3.84,0,0,0-3.77-2.62.6.6,0,0,0,0,1.2c1.2,0,2.59.76,2.65,2.09a10.2,10.2,0,0,1-.22,2.13l-.34,2.38a.62.62,0,0,0,.42.74.59.59,0,0,0,.73-.42Z"/><path class="cls-9" d="M43.71,50.86a2.35,2.35,0,0,1-2.18.56c-.75-.28-.91-1.18-1.11-1.86-.13-.45-.26-.9-.37-1.35a5.42,5.42,0,0,1-.26-1.32,1.17,1.17,0,0,1,1.1-1.11c.77,0,.77-1.23,0-1.2a2.39,2.39,0,0,0-2.22,1.76,3.39,3.39,0,0,0,.1,1.67c.15.63.31,1.25.49,1.87.33,1.11.68,2.2,1.85,2.66a3.41,3.41,0,0,0,3.21-.64.61.61,0,0,0,.21-.82.61.61,0,0,0-.82-.22Z"/><path class="cls-9" d="M42.42,52.73a2.45,2.45,0,0,0,1.24,1.49,3.57,3.57,0,0,0,2.09.63,5.12,5.12,0,0,0,2.09-1c.71-.48,1.4-1,2.08-1.52a.61.61,0,0,0,0-.85.62.62,0,0,0-.85,0c-.52.4-1,.79-1.58,1.16a9.23,9.23,0,0,1-1.58,1,1.84,1.84,0,0,1-1.48-.32,1.39,1.39,0,0,1-.85-.86c-.18-.75-1.34-.44-1.16.32Z"/><path class="cls-9" d="M39.65,49a2.71,2.71,0,0,1-1.87-.77,5.79,5.79,0,0,1-.93-2.25c-.08-.36-.18-.64.09-.92a5.31,5.31,0,0,1,.85-.72,6.2,6.2,0,0,1,2.14-.93c.75-.17.43-1.32-.32-1.15a7,7,0,0,0-2.74,1.27,4.39,4.39,0,0,0-1.09,1.06,2.09,2.09,0,0,0-.11,1.59A6.67,6.67,0,0,0,36.91,49a4,4,0,0,0,2.74,1.16.61.61,0,0,0,.6-.6.62.62,0,0,0-.6-.6Z"/><path class="cls-9" d="M38.49,43.16a5.46,5.46,0,0,1,.14-2.31,3.85,3.85,0,0,1,1.06-1.92c.57-.48,1.4-.25,2.09-.28a8.9,8.9,0,0,0,1.35-.17c.2,0,.41-.09.61-.15l.34-.11.1,0c.13,0,.07,0-.16-.14v-.23a.61.61,0,0,0,.41.73.6.6,0,0,0,.74-.42A.94.94,0,0,0,44.23,37a2.51,2.51,0,0,0-.81.18,8.26,8.26,0,0,1-.86.2,8.77,8.77,0,0,1-1.7.07,2.9,2.9,0,0,0-1.53.29,4.27,4.27,0,0,0-1.76,2.47,6.64,6.64,0,0,0-.23,3.28.6.6,0,0,0,.73.42.61.61,0,0,0,.42-.74Z"/><path class="cls-9" d="M43.14,53.05c-.89.34-1.76.73-2.66,1a.68.68,0,0,1-.78-.25,7.39,7.39,0,0,1-.71-.88,9.48,9.48,0,0,1-1.11-2,9,9,0,0,1-.38-1.14c0-.18-.09-.36-.13-.53a1.17,1.17,0,0,0,0-.26v0q-.17.15,0,.06l-.3.08h.08a.62.62,0,0,0,.6-.6.61.61,0,0,0-.6-.6c-1.38.18-.94,1.72-.65,2.64a10.58,10.58,0,0,0,1.33,2.8c.52.78,1.23,1.89,2.26,2a4,4,0,0,0,1.7-.45l1.7-.65a.61.61,0,0,0,.41-.74.6.6,0,0,0-.73-.42Z"/><path class="cls-9" d="M47.63,54.65c1.37-.29,2.83-.16,4-1.09a3.65,3.65,0,0,0,1.07-1.72,3.43,3.43,0,0,0,.23-2.09c-.23-.73-1.39-.42-1.16.32a2.64,2.64,0,0,1-.26,1.53,2.16,2.16,0,0,1-.79,1.15c-1,.63-2.29.51-3.4.74a.6.6,0,0,0,.32,1.16Z"/><path class="cls-2" d="M39.35,55a4,4,0,0,0,3.83-2,1.68,1.68,0,0,0,.25-1.1,1.47,1.47,0,0,0-1.2-1,1.52,1.52,0,0,0-1,.09,2,2,0,0,0-.84,1,21.25,21.25,0,0,1-1.15,2.79"/><path class="cls-3" d="M39.35,55.63A4.64,4.64,0,0,0,43.92,53a2,2,0,0,0,0-1.72,2.18,2.18,0,0,0-1.18-1,2.38,2.38,0,0,0-1.58-.06,2.23,2.23,0,0,0-1.21,1.09,10.49,10.49,0,0,0-.66,1.63,7.31,7.31,0,0,1-.65,1.49.68.68,0,0,0,.24.92.7.7,0,0,0,.93-.24,14.53,14.53,0,0,0,1-2.48c0-.09.07-.18.11-.27s0-.07,0,0a1,1,0,0,0,.07-.15l.12-.24.07-.11.06-.08h0l.09-.1,0,0c-.07.06.1-.07.09-.06s.11,0,0,0l.14,0s.13,0,0,0a1.37,1.37,0,0,1,.35,0l.15,0s.24.09.12,0a1.38,1.38,0,0,1,.24.14s.11.09,0,0l.07.07s.11.14.06.06,0,0,0,.06.05.13,0,.05,0,0,0,.06,0-.16,0,.06c0,0,0,.13,0,0a1,1,0,0,1-.1.35l-.09.17a2.39,2.39,0,0,1-.13.21,1.43,1.43,0,0,1-.14.2c.07-.09,0,0,0,0l-.12.14a3.15,3.15,0,0,1-.37.36l-.06,0,0,0-.26.17-.27.15L41,54a4.06,4.06,0,0,1-.59.19l-.3.06h0l-.18,0c-.21,0-.41,0-.62,0a.66.66,0,0,0-.67.67.71.71,0,0,0,.67.68Z"/><path class="cls-2" d="M39.31,55.08a5.28,5.28,0,0,1,2.23.31,2.37,2.37,0,0,1,1,.6,2.15,2.15,0,0,1,.44.83,1.14,1.14,0,0,1-1.12,1.63,2.75,2.75,0,0,1-2-.57,1.92,1.92,0,0,1-.66-1c-.12-.43,0-.9-.17-1.32"/><path class="cls-3" d="M39.31,55.76a5.06,5.06,0,0,1,.55,0l.26,0h.18a5.14,5.14,0,0,1,1.09.28l.09,0h0l.23.11.08,0,.06,0,0,0,.12.11s.09.12,0,.06l0,0c0,.08.09.16.13.24s.05.12,0,0a.36.36,0,0,1,0,.09,1.81,1.81,0,0,1,.09.31s0,.11,0,0,0,.08,0,.09a.4.4,0,0,1,0,.11c0-.09,0,0,0,0s0-.06,0,0a.41.41,0,0,1-.05.09s.08-.08,0,0l-.09.09c.09-.09,0,0-.06,0s-.18.08-.06,0l-.21.07c-.06,0-.24,0-.09,0a2.68,2.68,0,0,1-.49,0h-.12l-.29-.07-.22-.08-.11,0-.2-.12-.11-.07c.07,0,0,0,0,0a1.8,1.8,0,0,1-.2-.19L40,57.08c0-.06,0,.06,0,0l-.12-.22c0,.11,0,0,0,0s0-.11,0-.16,0,.09,0,0,0-.12,0-.17,0-.19,0-.29a3.07,3.07,0,0,0-.11-.73.67.67,0,0,0-.83-.47.69.69,0,0,0-.47.83.85.85,0,0,1,0,.17c0,.12,0-.16,0,.06a2.46,2.46,0,0,0,0,.28,3.66,3.66,0,0,0,.09.81,2.42,2.42,0,0,0,.71,1.12,3.34,3.34,0,0,0,2.54.9,2,2,0,0,0,1.95-1.6,2.68,2.68,0,0,0-.35-1.46,2.45,2.45,0,0,0-1-1,5.47,5.47,0,0,0-3.1-.64.68.68,0,0,0,0,1.35Z"/><path class="cls-2" d="M39,55.44A3.8,3.8,0,0,1,36.93,58a2.81,2.81,0,0,1-3.11-.58.68.68,0,0,1-.18-.27.72.72,0,0,1,.23-.68,4.53,4.53,0,0,1,1.57-1,9.77,9.77,0,0,1,1.74-.63,3.38,3.38,0,0,1,1.84,0"/><path class="cls-3" d="M38.35,55.26A3.38,3.38,0,0,1,37.3,57a2.29,2.29,0,0,1-1.68.56,2.07,2.07,0,0,1-.8-.21l-.23-.13c-.06,0-.08,0-.1-.08a1.71,1.71,0,0,1-.2-.18s0,.07,0,0c.07-.21.51-.46.72-.57a10.46,10.46,0,0,1,1.12-.53,4,4,0,0,1,2.7-.37c.83.26,1.18-1,.36-1.3a5.09,5.09,0,0,0-3.45.38c-1,.4-2.31.88-2.72,2s.91,2,1.84,2.22a3.65,3.65,0,0,0,2.83-.43,4.63,4.63,0,0,0,1.95-2.71.67.67,0,0,0-1.3-.36Z"/><path class="cls-2" d="M39,54.86a3.6,3.6,0,0,0,.61-1.47,1.59,1.59,0,0,0,0-.81,1.71,1.71,0,0,0-.6-.73,4.94,4.94,0,0,0-2.31-1,.94.94,0,0,0-.29,0,.62.62,0,0,0-.33.64,3.44,3.44,0,0,0,.27,1.18,4.72,4.72,0,0,0,.9,1.57,2.09,2.09,0,0,0,1.6.72"/><path class="cls-3" d="M39.59,55.2a4.37,4.37,0,0,0,.61-1.29,2.63,2.63,0,0,0,0-1.57A3.76,3.76,0,0,0,38,50.51a4.37,4.37,0,0,0-1.37-.34,1.14,1.14,0,0,0-1.19.93,3,3,0,0,0,.18,1.53A7.91,7.91,0,0,0,36.2,54a3.07,3.07,0,0,0,2.64,1.68.68.68,0,1,0,0-1.35h-.25c.11,0-.07,0-.11,0l-.21-.07-.13-.07a1.7,1.7,0,0,1-.22-.15c.08.06-.07-.06-.09-.08a1.29,1.29,0,0,1-.16-.17l-.09-.11,0,0a4.08,4.08,0,0,1-.28-.44l-.11-.22-.06-.13,0-.06h0a4.78,4.78,0,0,1-.32-1c0,.06,0-.06,0-.05a.86.86,0,0,1,0-.16s0-.07,0-.1,0,.11,0,0,0-.14,0,0,0,0,0,0a.52.52,0,0,1-.11.1l-.07,0s0,0,0,0h0c-.06,0-.06,0,0,0l.1,0a1.31,1.31,0,0,1,.27.06,4,4,0,0,1,.49.15s.21.08.13,0l.25.12.44.26.2.13,0,0,.1.08.17.16.09.09c.06.08-.07-.12,0,.05a.22.22,0,0,1,.05.08s0,0,0,0l0,.07s0,.13,0,0A.76.76,0,0,1,39,53a2.12,2.12,0,0,1-.09.5,1.71,1.71,0,0,1-.09.3,1,1,0,0,0,0,.1h0l0,.06a4.8,4.8,0,0,1-.32.54.67.67,0,0,0,.25.92.68.68,0,0,0,.92-.24Z"/><path class="cls-2" d="M53.85,48.4a2.34,2.34,0,0,0,1.33-2.12,1,1,0,0,0-.2-.63.86.86,0,0,0-.9-.16.9.9,0,0,0-.5.35,1.13,1.13,0,0,0-.1.77,12.79,12.79,0,0,1,.25,1.74"/><path class="cls-3" d="M54,48.72a2.68,2.68,0,0,0,1.5-2.62,1.09,1.09,0,0,0-1.22-1,1.57,1.57,0,0,0-.86.35,1.16,1.16,0,0,0-.37.82,3.94,3.94,0,0,0,.13,1.08,5.1,5.1,0,0,1,.13,1,.38.38,0,0,0,.75,0,8.91,8.91,0,0,0-.23-1.62,1.63,1.63,0,0,1,0-.58.47.47,0,0,1,.31-.29l.13,0s.08,0,0,0h.2c-.05,0,.08,0,.1,0s.06,0,0,0l.05,0a.53.53,0,0,1,.08.24,1.64,1.64,0,0,1-.21,1,1.88,1.88,0,0,1-.92.88.38.38,0,0,0,.38.65Z"/><path class="cls-2" d="M53.87,48.47a3.1,3.1,0,0,1,1.2-.5,1.38,1.38,0,0,1,.67,0,1.25,1.25,0,0,1,.47.28.81.81,0,0,1,.27.37.77.77,0,0,1-.35.78,1.57,1.57,0,0,1-1.16.3,1.09,1.09,0,0,1-.62-.27c-.18-.18-.28-.44-.47-.62"/><path class="cls-3" d="M54.06,48.8a2.9,2.9,0,0,1,1-.46,1.35,1.35,0,0,1,.53,0,1,1,0,0,1,.38.26l.07.08s0,.09,0,0,0,.06,0,0,0,0,0,0v0s0,0,0,0,0,0,0,0l0,.05L56,49l-.09.09-.06,0h0a1.21,1.21,0,0,1-.91.2.62.62,0,0,1-.25-.09.63.63,0,0,1-.17-.15,4.8,4.8,0,0,0-.39-.53.38.38,0,0,0-.53,0,.37.37,0,0,0,0,.53.83.83,0,0,1,.16.21,3,3,0,0,0,.25.34,1.35,1.35,0,0,0,.69.4,1.92,1.92,0,0,0,1.53-.26,1.13,1.13,0,0,0,.52-1.42,1.5,1.5,0,0,0-.56-.56,1.42,1.42,0,0,0-.8-.24,3.16,3.16,0,0,0-1.73.59.38.38,0,0,0,.38.65Z"/><path class="cls-2" d="M53.82,48.75a2.17,2.17,0,0,1-.29,1.87,1.62,1.62,0,0,1-1.72.63.37.37,0,0,1-.18-.08.46.46,0,0,1-.08-.41,2.5,2.5,0,0,1,.49-1,5.47,5.47,0,0,1,.68-.83,2,2,0,0,1,.93-.52"/><path class="cls-3" d="M53.46,48.85a1.88,1.88,0,0,1,.07.63,1.66,1.66,0,0,1-.12.61,1.45,1.45,0,0,1-.73.75,1.57,1.57,0,0,1-.29.08s-.08,0,0,0H52a.83.83,0,0,0-.15,0s0,0,0,0l0,0s0,.07,0,0,0,0,0,0,0,0,0,0a.29.29,0,0,0,0-.09l.06-.18c0-.09.11-.2.16-.29s.27-.4.42-.59a2.14,2.14,0,0,1,1.18-.9.38.38,0,0,0,.27-.46.4.4,0,0,0-.47-.27A2.82,2.82,0,0,0,52,49.18a3.18,3.18,0,0,0-.88,1.7c0,.77.87.88,1.45.76a2.08,2.08,0,0,0,1.35-1,2.66,2.66,0,0,0,.22-2,.37.37,0,0,0-.72.2Z"/><path class="cls-2" d="M53.65,48.45a2,2,0,0,0-.12-.91.9.9,0,0,0-.26-.4.94.94,0,0,0-.51-.19,2.76,2.76,0,0,0-1.45.19.32.32,0,0,0-.14.08c-.11.11-.06.29,0,.42a1.9,1.9,0,0,0,.48.5,2.89,2.89,0,0,0,.91.53,1.21,1.21,0,0,0,1-.12"/><path class="cls-3" d="M54,48.45a2.39,2.39,0,0,0-.09-.84,1.41,1.41,0,0,0-.42-.75,2.77,2.77,0,0,0-2.51,0,.68.68,0,0,0-.18.9,1.91,1.91,0,0,0,.51.59,4.48,4.48,0,0,0,.67.47,1.77,1.77,0,0,0,1.78.05.39.39,0,0,0,.13-.52.37.37,0,0,0-.51-.13l-.12.07h0l-.07,0-.06,0H53a1.18,1.18,0,0,1-.48-.1,2.73,2.73,0,0,1-.9-.65.65.65,0,0,1-.13-.16s0-.08,0,0,0,0,0,0,0,.06,0,0a.73.73,0,0,1,0,.12h0s0,0,0,0l.15,0,.3-.08a2.78,2.78,0,0,1,.59,0h.16l.09,0,.11,0,.08,0h0a.32.32,0,0,1,.14.14l0,.07v0a1,1,0,0,1,.05.16,1.69,1.69,0,0,1,.07.67.37.37,0,0,0,.37.38.39.39,0,0,0,.38-.38Z"/><path class="cls-8" d="M29.61,60.59a3.34,3.34,0,0,0-2.44,1.86,21.16,21.16,0,0,0-1.14,3c-.46,1.21-1.12,2.34-1.54,3.57a10,10,0,0,0,.38,7.29c.68,1.47,2,2.89,3.58,2.91.62,0,1.3-.17,1.81.18a3.2,3.2,0,0,1,.7.92,4.57,4.57,0,0,0,2.45,1.57,23.13,23.13,0,0,1,2.83.87,9.86,9.86,0,0,0,2.31,1,5.28,5.28,0,0,0,2.66-.53A4.24,4.24,0,0,0,43,82.18a3.68,3.68,0,0,1,.82-.93,2.53,2.53,0,0,1,.72-.23c1.82-.49,2.85-2.39,3.51-4.17.33-.89.62-1.8.87-2.72a2.07,2.07,0,0,0-.1-1.81c-.38-.47-1.2-.7-1.15-1.3a1.15,1.15,0,0,1,.15-.44,14.57,14.57,0,0,0,1.11-5.84A6.34,6.34,0,0,0,48.85,63a6.32,6.32,0,0,0-1-2c-.48-.7-1.07-1.46-1.92-1.53a8.26,8.26,0,0,1-.86,0c-1-.18-1.21-1.45-1.86-2.2a4.37,4.37,0,0,0-3-1.08c-1.19-.1-2.59-.12-3.33.83a2.91,2.91,0,0,1-.47.58,1.91,1.91,0,0,1-1.08.26,13.34,13.34,0,0,0-3.79,1A4.79,4.79,0,0,0,29,60.51a4.33,4.33,0,0,1-.39.62,3.07,3.07,0,0,1-.84.58c-1.73,1-1.82,2.75-1.44,4.72"/><path class="cls-9" d="M36.24,57a11.57,11.57,0,0,0-2.94,0,4.93,4.93,0,0,0-2.61,1.31,6.25,6.25,0,0,0-1.9,5,.7.7,0,0,0,.67.68.68.68,0,0,0,.68-.68,5,5,0,0,1,1.5-4.06c1.27-1.19,3-1.06,4.6-.92a.68.68,0,0,0,0-1.35Z"/><path class="cls-9" d="M45.09,62.21c-.27-1.46.28-2.93-.1-4.38a3.16,3.16,0,0,0-1-1.61,3.88,3.88,0,0,0-1.95-.81c-1.4-.25-3.29-.5-4.51.4A5.21,5.21,0,0,0,35.89,59c-.19.85,1.11,1.21,1.3.36a4.16,4.16,0,0,1,1.15-2.47A2.66,2.66,0,0,1,40,56.57a9.9,9.9,0,0,1,2,.19,2.11,2.11,0,0,1,1.31.65,2.42,2.42,0,0,1,.46,1.27c.13,1.3-.23,2.58,0,3.89a.69.69,0,0,0,.83.47.7.7,0,0,0,.48-.83Z"/><path class="cls-9" d="M45,60.19c.35-.1.7-.2,1.06-.27s.81-.14,1.1.32a9.51,9.51,0,0,1,.85,1.9,15,15,0,0,1,.72,4.32,5.13,5.13,0,0,1-1.52,3.8,16.17,16.17,0,0,1-3.32,2.8c-.73.47-.05,1.64.68,1.17a16.85,16.85,0,0,0,4.06-3.56,6.54,6.54,0,0,0,1.41-5,15.7,15.7,0,0,0-1.25-5.23c-.31-.67-.7-1.55-1.42-1.85a4.45,4.45,0,0,0-2.73.29.67.67,0,0,0,.36,1.3Z"/><path class="cls-9" d="M47.51,70.55a8.29,8.29,0,0,1,0,7.07,3.6,3.6,0,0,1-2.59,2,8.13,8.13,0,0,1-4-.48c-.83-.26-1.18,1-.35,1.3a9.53,9.53,0,0,0,4.67.48,4.85,4.85,0,0,0,3.32-2.49,9.67,9.67,0,0,0,.08-8.57c-.37-.79-1.54-.1-1.17.68Z"/><path class="cls-9" d="M37.62,80.52c.25.41-1.68.6-1.87.6A5.3,5.3,0,0,1,33,80.64a4,4,0,0,1-1.51-2.12,15.62,15.62,0,0,1-.95-3c-.19-.84-1.49-.48-1.3.36a17.2,17.2,0,0,0,1.37,3.94,4.21,4.21,0,0,0,2.61,2.36,8.08,8.08,0,0,0,3.88.12,2.5,2.5,0,0,0,1.48-.74,1.48,1.48,0,0,0,.18-1.72c-.46-.74-1.62-.06-1.17.68Z"/><path class="cls-9" d="M30.68,77.89l-2.52,0a3,3,0,0,1-1,0c-.33-.12-.45-.51-.57-.81a22.23,22.23,0,0,1-1.35-4.36,8.88,8.88,0,0,1-.09-4.46A3.09,3.09,0,0,1,27.71,66c.87-.05.87-1.4,0-1.35a4.31,4.31,0,0,0-3.56,2.52,8.86,8.86,0,0,0-.3,5.44,21.07,21.07,0,0,0,1.73,5.48,2,2,0,0,0,1.79,1.18c1.09.07,2.21,0,3.31,0a.68.68,0,0,0,0-1.35Z"/><path class="cls-9" d="M43.4,71.57a21.2,21.2,0,0,1,.36,3.9A2.92,2.92,0,0,1,43.44,77a2.74,2.74,0,0,1-1.21.91A15.09,15.09,0,0,1,38.69,79c-.4.08-1,.31-1.29-.07a8.3,8.3,0,0,1-.65-1.66.68.68,0,0,0-.92-.24.69.69,0,0,0-.24.92,7.57,7.57,0,0,0,.82,1.89,1.94,1.94,0,0,0,1.89.6,17.71,17.71,0,0,0,4.5-1.3,4.06,4.06,0,0,0,1.6-1.17,3.65,3.65,0,0,0,.69-2,18.87,18.87,0,0,0-.39-4.74c-.16-.86-1.46-.5-1.3.36Z"/><path class="cls-9" d="M32.27,63.12a3.55,3.55,0,0,0-3.86,1.34,9.49,9.49,0,0,0-1.58,4.8c-.19,1.54-.36,3.48.48,4.87s2.45,1.56,3.79,2.23c.78.38,1.46-.78.68-1.17-1-.49-2.41-.64-3.14-1.51s-.62-2.6-.53-3.75a10.66,10.66,0,0,1,.95-4,2.46,2.46,0,0,1,2.85-1.5c.83.28,1.18-1,.36-1.3Z"/><path class="cls-9" d="M41.27,64.25c.81-.12,2.77-1.35,3,0a12.61,12.61,0,0,1,.16,2.12,8.39,8.39,0,0,1-.13,2.18A5.35,5.35,0,0,1,42,71.44a7.63,7.63,0,0,1-3.69,1.73c-.86.07-.86,1.42,0,1.35a9.14,9.14,0,0,0,4.71-2.18,6.05,6.05,0,0,0,2.7-4,13.7,13.7,0,0,0,0-2.79,5.2,5.2,0,0,0-.47-2.44,2.05,2.05,0,0,0-1.86-.88,20.81,20.81,0,0,0-2.55.67c-.86.14-.49,1.44.36,1.3Z"/><path class="cls-9" d="M41.18,63.49A3.53,3.53,0,0,0,37.32,59,5.44,5.44,0,0,0,34,60.73a9,9,0,0,0-2.07,3.21,4.11,4.11,0,0,0,.62,4,.69.69,0,0,0,1,0,.71.71,0,0,0,0-1,3,3,0,0,1,0-3.23A7.33,7.33,0,0,1,35.74,61a3,3,0,0,1,3.2-.36,2.21,2.21,0,0,1,.94,2.47.67.67,0,0,0,1.3.36Z"/><path class="cls-9" d="M37.34,73.93c-.13.55-.05,1.1-.14,1.66s-.73.72-1.25.87a7.93,7.93,0,0,1-2,.36,1.06,1.06,0,0,1-1.18-.7,7.07,7.07,0,0,1-.31-1.77c-.08-.7-.13-1.4-.17-2.11,0-1-.38-2.85.76-3.39.79-.37.1-1.53-.68-1.16-1.21.57-1.48,2-1.47,3.16a35.39,35.39,0,0,0,.31,4.37c.15,1.15.5,2.41,1.72,2.83a4.49,4.49,0,0,0,2,0A9.36,9.36,0,0,0,37,77.52a2.13,2.13,0,0,0,1.41-1.36c.19-.61,0-1.26.19-1.87.19-.85-1.11-1.21-1.3-.36Z"/><path class="cls-9" d="M37,82.14a2.85,2.85,0,0,0-1.22-.54l.49.65v-.13l-.2.47s-.15,0,0,0a1,1,0,0,0,.24,0,3.58,3.58,0,0,0,.45-.09,4.9,4.9,0,0,0,.84-.29,4.75,4.75,0,0,0,1.48-1c.36-.38.63-.8,1.21-.77s1,.48,1.57.62a8.8,8.8,0,0,0,1.36,0,.53.53,0,0,1,.18,0,.31.31,0,0,1-.06-.06,1,1,0,0,1-.21.44,5,5,0,0,1-2.63,1.72c-.15,0-.33.07-.48.13a.28.28,0,0,1-.1,0c.15,0,0,0,0-.1a3.82,3.82,0,0,0-.83-.54,3.65,3.65,0,0,0-1-.31,2.66,2.66,0,0,1-1-.23.67.67,0,0,0-.68,1.16c.69.41,1.52.26,2.21.64.31.16.53.43.83.59a1.66,1.66,0,0,0,1.22,0,6.52,6.52,0,0,0,3.68-2.37,1.48,1.48,0,0,0-1.45-2.49,2,2,0,0,1-.69,0c-.36-.11-.67-.37-1-.49a2.44,2.44,0,0,0-2.25.29,10.08,10.08,0,0,0-.87.86A3.42,3.42,0,0,1,37,81c-.69.3-2.16.16-2.07,1.26a.68.68,0,0,0,.5.65,2,2,0,0,1,.9.4C37.07,83.79,37.75,82.62,37,82.14Z"/><path class="cls-9" d="M29.72,59.84a2,2,0,0,0-1.88.63,5.46,5.46,0,0,0-1.11,1.29A5.6,5.6,0,0,0,25.88,65a.69.69,0,0,0,.67.68.69.69,0,0,0,.68-.68,5.17,5.17,0,0,1,0-.68s0-.18,0-.11,0-.12,0-.11a3.4,3.4,0,0,1,.07-.34,4.35,4.35,0,0,1,.2-.61s.06-.15,0-.06.05-.11.07-.16.1-.2.16-.3a5.07,5.07,0,0,1,.36-.54l0,0,.11-.13.24-.25.25-.22.11-.09.08-.06.25-.15s.12,0,0,0h.07c-.06,0-.06,0,0,0a.68.68,0,0,0,.83-.48.7.7,0,0,0-.47-.83Z"/><path class="cls-9" d="M40.66,62.85a11.76,11.76,0,0,0-3.6.25,4.51,4.51,0,0,0-2.76,1.4,7.89,7.89,0,0,0-.95,3.28,21.61,21.61,0,0,0-.32,3.6,3,3,0,0,0,3.71,3.3c2-.35,3.42-2.35,4.19-4.11a13.21,13.21,0,0,0,.84-7.14.68.68,0,0,0-.83-.47.69.69,0,0,0-.47.83,12,12,0,0,1-.36,5.13,7.26,7.26,0,0,1-2.67,4,2.29,2.29,0,0,1-2,.29,1.69,1.69,0,0,1-1-1.72,18,18,0,0,1,.77-5.7c.3-1,1.34-1.22,2.27-1.44a10.67,10.67,0,0,1,3.24-.2c.86.07.86-1.28,0-1.35Z"/><path class="cls-9" d="M34.76,64.71a22.93,22.93,0,0,0,2.17,8.2.68.68,0,0,0,.92.24.69.69,0,0,0,.25-.92,21.18,21.18,0,0,1-2-7.52c-.07-.86-1.42-.87-1.35,0Z"/><path class="cls-9" d="M40.39,65.5a9.7,9.7,0,0,1-1,.61l-.44.23-.26.12-.13.06h0a9.91,9.91,0,0,1-2.13.59A.68.68,0,0,0,36,68a.7.7,0,0,0,.83.47,10.08,10.08,0,0,0,4.28-1.75.68.68,0,1,0-.68-1.17Z"/><path class="cls-2" d="M48.42,58.14a2.1,2.1,0,0,0,.09-1.6,8.55,8.55,0,0,0-.65-2.12,3.46,3.46,0,0,0-1.48-1.61.91.91,0,0,0-.5-.13,1,1,0,0,0-.58.29,4.92,4.92,0,0,0-.92,1,.84.84,0,0,0-.2.51c0,.27.26.46.48.62A15.05,15.05,0,0,1,48,58.39"/><path class="cls-3" d="M49,58.48a2.58,2.58,0,0,0,.22-1.75,10.92,10.92,0,0,0-.37-1.6A5,5,0,0,0,47,52.41a1.67,1.67,0,0,0-1.71-.26,4,4,0,0,0-1.23,1.12A1.54,1.54,0,0,0,43.65,55a4,4,0,0,0,1.16,1,15,15,0,0,1,2.56,2.66.69.69,0,0,0,.92.24.67.67,0,0,0,.24-.92A16.18,16.18,0,0,0,46.73,56c-.32-.31-.66-.61-1-.89a9.87,9.87,0,0,1-.89-.71s.18.19,0,.12c0,0,.09-.09,0-.05s.1-.15.14-.21a5,5,0,0,1,.44-.49,2,2,0,0,1,.41-.36c.11-.05.12,0,.24,0a3.14,3.14,0,0,1,1.34,1.72,10.32,10.32,0,0,1,.4,1.52,1.57,1.57,0,0,1,0,1.13.68.68,0,0,0,1.17.68Z"/><path class="cls-2" d="M48.49,58.45a4.47,4.47,0,0,1,1.25-2,2.34,2.34,0,0,1,3,.14.49.49,0,0,1,.16.24.55.55,0,0,1-.08.35,6.13,6.13,0,0,1-1.64,2.19,2.82,2.82,0,0,1-2.59.54"/><path class="cls-3" d="M49.14,58.63c0-.09.07-.18.1-.26l0-.1c0-.11,0,.07,0,0s.15-.34.23-.51l.28-.44s.07-.09,0,0l.07-.08.22-.22s.1-.08,0,0l.08-.05.18-.11.11,0s-.11,0,0,0l.23-.07s.27,0,.13,0h.55c-.14,0,0,0,0,0l.21,0,.12,0,.2.09.14.09s.1.1.16.14l0,0a.17.17,0,0,1,0-.13.63.63,0,0,1,0-.13s-.22.41-.25.47-.18.32-.28.47-.1.14-.14.21-.1.13-.14.18-.22.26-.34.38l-.21.19-.08.07h0l0,0a2.5,2.5,0,0,1-1,.44l-.14,0c-.21,0,.07,0-.05,0H49.1c.08,0,0,0,0,0a2,2,0,0,1-.33-.09.69.69,0,0,0-.83.48.71.71,0,0,0,.47.83,3.41,3.41,0,0,0,2.83-.41,5.85,5.85,0,0,0,1.92-2.18c.28-.5.61-1.06.26-1.61a2.35,2.35,0,0,0-1.19-.86,3.06,3.06,0,0,0-2.56.19,4.78,4.78,0,0,0-1.81,2.62.68.68,0,0,0,.47.83.7.7,0,0,0,.83-.47Z"/><path class="cls-2" d="M48.12,59.74a7.23,7.23,0,0,1,1.6,3.55c0,.21,0,.49-.19.54a.41.41,0,0,1-.22,0,3.42,3.42,0,0,1-1.86-1.19,2.17,2.17,0,0,1-.32-2.12,3.79,3.79,0,0,0,.48-1.12,1.32,1.32,0,0,0-.76-1.19,2.33,2.33,0,0,0-3.07.88.82.82,0,0,0-.13.57.78.78,0,0,0,.18.35,3.36,3.36,0,0,0,.6.65.58.58,0,0,0,.29.17.64.64,0,0,0,.42-.1c.65-.34,1.22-1,2-.94"/><path class="cls-3" d="M47.64,60.22a6.45,6.45,0,0,1,1.3,2.61,4.26,4.26,0,0,1,.1.49l0,.12a.54.54,0,0,1,0-.11l.3-.18h.07l-.13,0L49.13,63l-.27-.12a2.62,2.62,0,0,1-.69-.49,1.68,1.68,0,0,1-.51-1.3,1.58,1.58,0,0,1,.22-.63,2.61,2.61,0,0,0,.4-1,1.86,1.86,0,0,0-.73-1.61,2.93,2.93,0,0,0-3.22-.23,2.72,2.72,0,0,0-1.16,1.14A1.55,1.55,0,0,0,43,59.86a2.5,2.5,0,0,0,.59.92,2.06,2.06,0,0,0,.9.67,1.41,1.41,0,0,0,1.14-.24c.45-.28.94-.78,1.45-.77a.68.68,0,0,0,0-1.35,3.34,3.34,0,0,0-1.91.81c-.12.08-.27.14-.38.23.05,0,.19.12,0-.06a2.79,2.79,0,0,1-.37-.4l-.08-.1c-.11-.14-.05,0,0-.07a1.65,1.65,0,0,1,2.36-.63.58.58,0,0,1,.27.51,5.89,5.89,0,0,1-.47.94,2.85,2.85,0,0,0,.13,2.2A3.5,3.5,0,0,0,48.1,64c.65.36,1.73.83,2.18-.05a1.85,1.85,0,0,0,0-1.27A6.84,6.84,0,0,0,50,61.55a8.53,8.53,0,0,0-1.35-2.29.69.69,0,0,0-1,0,.71.71,0,0,0,0,1Z"/><path class="cls-2" d="M33.85,83.4a2.34,2.34,0,0,0,1.33-2.12,1,1,0,0,0-.2-.63.86.86,0,0,0-.9-.16.9.9,0,0,0-.5.35,1.13,1.13,0,0,0-.1.77,12.79,12.79,0,0,1,.25,1.74"/><path class="cls-3" d="M34,83.72a2.68,2.68,0,0,0,1.5-2.62,1.09,1.09,0,0,0-1.22-1,1.57,1.57,0,0,0-.86.35,1.16,1.16,0,0,0-.37.82,3.94,3.94,0,0,0,.13,1.08,5.1,5.1,0,0,1,.13,1,.38.38,0,0,0,.75,0,8.91,8.91,0,0,0-.23-1.62,1.63,1.63,0,0,1,0-.58.47.47,0,0,1,.31-.29l.13,0s.08,0,0,0h.2c-.05,0,.08,0,.1,0s.06,0,0,0l.05,0a.53.53,0,0,1,.08.24,1.64,1.64,0,0,1-.21,1,1.88,1.88,0,0,1-.92.88.38.38,0,0,0,.38.65Z"/><path class="cls-2" d="M33.87,83.47a3.1,3.1,0,0,1,1.2-.5,1.38,1.38,0,0,1,.67,0,1.25,1.25,0,0,1,.47.28.81.81,0,0,1,.27.37.77.77,0,0,1-.35.78,1.57,1.57,0,0,1-1.16.3,1.09,1.09,0,0,1-.62-.27c-.18-.18-.28-.44-.47-.62"/><path class="cls-3" d="M34.06,83.8a2.9,2.9,0,0,1,1-.46,1.35,1.35,0,0,1,.53,0,1,1,0,0,1,.38.26l.07.08s0,.09,0,0,0,.06,0,0,0,0,0,0v0s0,0,0,0,0,0,0,0l0,0S36,84,36,84l-.09.09-.06.05h0a1.21,1.21,0,0,1-.91.2.62.62,0,0,1-.25-.09.63.63,0,0,1-.17-.15,4.8,4.8,0,0,0-.39-.53.38.38,0,0,0-.53,0,.37.37,0,0,0,0,.53.83.83,0,0,1,.16.21,3,3,0,0,0,.25.34,1.35,1.35,0,0,0,.69.4,1.92,1.92,0,0,0,1.53-.26,1.13,1.13,0,0,0,.52-1.42,1.5,1.5,0,0,0-.56-.56,1.42,1.42,0,0,0-.8-.24,3.16,3.16,0,0,0-1.73.59.38.38,0,0,0,.38.65Z"/><path class="cls-2" d="M33.82,83.75a2.17,2.17,0,0,1-.29,1.87,1.62,1.62,0,0,1-1.72.63.37.37,0,0,1-.18-.08.46.46,0,0,1-.08-.41,2.5,2.5,0,0,1,.49-1,5.47,5.47,0,0,1,.68-.83,2,2,0,0,1,.93-.52"/><path class="cls-3" d="M33.46,83.85a1.88,1.88,0,0,1,.07.63,1.66,1.66,0,0,1-.12.61,1.45,1.45,0,0,1-.73.75,1.57,1.57,0,0,1-.29.08s-.08,0,0,0H32a.83.83,0,0,0-.15,0c-.05,0,0,0,0,0l0,0s0,.07,0,0,0,0,0,0,0,0,0,0a.29.29,0,0,0,0-.09l.06-.18c0-.09.11-.2.16-.29s.27-.4.42-.59a2.14,2.14,0,0,1,1.18-.9.38.38,0,0,0,.27-.46.4.4,0,0,0-.47-.27A2.82,2.82,0,0,0,32,84.18a3.18,3.18,0,0,0-.88,1.7c0,.77.87.88,1.45.76a2.08,2.08,0,0,0,1.35-1,2.66,2.66,0,0,0,.22-2,.37.37,0,0,0-.72.2Z"/><path class="cls-2" d="M33.65,83.45a2,2,0,0,0-.12-.91.9.9,0,0,0-.26-.4.94.94,0,0,0-.51-.19,2.76,2.76,0,0,0-1.45.19.32.32,0,0,0-.14.08c-.11.11-.06.29,0,.42a1.9,1.9,0,0,0,.48.5,2.89,2.89,0,0,0,.91.53,1.21,1.21,0,0,0,1-.12"/><path class="cls-3" d="M34,83.45a2.39,2.39,0,0,0-.09-.84,1.41,1.41,0,0,0-.42-.75,2.77,2.77,0,0,0-2.51,0,.68.68,0,0,0-.18.9,1.91,1.91,0,0,0,.51.59,4.48,4.48,0,0,0,.67.47,1.77,1.77,0,0,0,1.78,0,.39.39,0,0,0,.13-.52.37.37,0,0,0-.51-.13l-.12.07h0l-.07,0-.06,0H33a1.18,1.18,0,0,1-.48-.1,2.73,2.73,0,0,1-.9-.65.65.65,0,0,1-.13-.16s0-.08,0,0,0,0,0,0,0,.06,0,0a.73.73,0,0,1-.05.12h0s0,0,0,0l.15,0,.3-.08a2.78,2.78,0,0,1,.59,0h.16l.09,0,.11,0,.08,0c.06,0,0,0,0,0a.32.32,0,0,1,.14.14l0,.07v0a1,1,0,0,1,.05.16,1.69,1.69,0,0,1,.07.67.37.37,0,0,0,.37.38.39.39,0,0,0,.38-.38Z"/><path class="cls-2" d="M138.55,42.4a2.33,2.33,0,0,1-1.32-2.12.93.93,0,0,1,.2-.63.86.86,0,0,1,.9-.16.91.91,0,0,1,.49.35,1.19,1.19,0,0,1,.11.77,12.79,12.79,0,0,0-.25,1.74"/><path class="cls-3" d="M138.74,42.07a2,2,0,0,1-1.14-1.77.55.55,0,0,1,.15-.44c-.05,0,.08,0,.05,0l.11,0h.14c.12,0,0,0,0,0a.71.71,0,0,1,.41.22.79.79,0,0,1,.06.53,15.44,15.44,0,0,0-.26,1.79.38.38,0,0,0,.75,0c0-.64.23-1.25.27-1.88a1.34,1.34,0,0,0-.26-.93,1.25,1.25,0,0,0-.71-.43,1.13,1.13,0,0,0-1.43.71,2.34,2.34,0,0,0,.2,1.64,2.66,2.66,0,0,0,1.24,1.26.39.39,0,0,0,.52-.13.39.39,0,0,0-.14-.52Z"/><path class="cls-2" d="M138.54,42.47a3.14,3.14,0,0,0-1.21-.5,1.34,1.34,0,0,0-.66,0,1.25,1.25,0,0,0-.47.28.81.81,0,0,0-.27.37.77.77,0,0,0,.35.78,1.54,1.54,0,0,0,1.16.3,1.06,1.06,0,0,0,.61-.27c.19-.18.28-.44.47-.62"/><path class="cls-3" d="M138.73,42.15a3.36,3.36,0,0,0-1.52-.57,1.59,1.59,0,0,0-1.45.6,1,1,0,0,0-.2.84,1.28,1.28,0,0,0,.42.63,2,2,0,0,0,1.46.44,1.54,1.54,0,0,0,.88-.39,1.72,1.72,0,0,0,.26-.33,1.28,1.28,0,0,1,.21-.28.37.37,0,0,0-.53-.53,2.41,2.41,0,0,0-.36.48.67.67,0,0,1-.29.24,1.16,1.16,0,0,1-1-.07l-.18-.12-.09-.08s0,0,0,0l0,0s-.05-.11,0-.07,0-.11,0,0v0s0-.05,0-.1a1.18,1.18,0,0,1,.36-.29.42.42,0,0,1,.18-.06,1,1,0,0,1,.3,0,2.63,2.63,0,0,1,1.19.48.38.38,0,0,0,.51-.14.39.39,0,0,0-.13-.51Z"/><path class="cls-2" d="M138.59,42.75a2.17,2.17,0,0,0,.28,1.87,1.63,1.63,0,0,0,1.73.63.38.38,0,0,0,.17-.08.46.46,0,0,0,.09-.41,2.65,2.65,0,0,0-.49-1,5.53,5.53,0,0,0-.69-.83,1.92,1.92,0,0,0-.93-.52"/><path class="cls-3" d="M138.23,42.65a2.63,2.63,0,0,0,.12,1.81,2.09,2.09,0,0,0,1.27,1.13c.51.17,1.43.18,1.6-.47s-.33-1.25-.67-1.71a3.15,3.15,0,0,0-1.7-1.33.39.39,0,0,0-.46.27.38.38,0,0,0,.26.46,2,2,0,0,1,1.1.78c.14.18.27.37.4.55a2.48,2.48,0,0,1,.32.6s0,.14,0,.1a.19.19,0,0,1,0,.08c0-.05,0,0,0,0l0,0-.15,0s-.07,0,0,0h-.22a.87.87,0,0,1-.26,0,1.34,1.34,0,0,1-.83-.68,1.93,1.93,0,0,1-.1-1.36.37.37,0,0,0-.72-.2Z"/><path class="cls-2" d="M138.75,42.45a2.17,2.17,0,0,1,.13-.91,1,1,0,0,1,.25-.4.94.94,0,0,1,.52-.19,2.77,2.77,0,0,1,1.45.19.39.39,0,0,1,.14.08.36.36,0,0,1,0,.42,1.79,1.79,0,0,1-.49.5,2.69,2.69,0,0,1-.91.53,1.19,1.19,0,0,1-1-.12"/><path class="cls-3" d="M139.13,42.45a1.73,1.73,0,0,1,0-.56,2.47,2.47,0,0,1,.1-.29l0-.07.06-.08.05,0h0s.05,0,0,0,.05,0,.05,0l.12,0h.11a2.29,2.29,0,0,1,.64,0h0l.09,0,.13,0a3,3,0,0,1,.32.09l.07,0,0-.08c0-.08,0,0,0,0s0-.07,0,0,0,0,0,0a.75.75,0,0,1-.07.12l0,0,0,.05-.1.1-.24.2a2.7,2.7,0,0,1-.45.3,1.19,1.19,0,0,1-.26.11l-.15,0h-.35l-.12,0h0l-.11-.06a.37.37,0,0,0-.51.13.4.4,0,0,0,.14.52,1.7,1.7,0,0,0,1.61,0,3.22,3.22,0,0,0,.66-.42,2.67,2.67,0,0,0,.59-.57.78.78,0,0,0,.1-.86,1.24,1.24,0,0,0-.81-.42,2.61,2.61,0,0,0-1.7.09,1.78,1.78,0,0,0-.69,1.72.38.38,0,0,0,.37.38.39.39,0,0,0,.38-.38Z"/><path class="cls-2" d="M155,49.14a2.19,2.19,0,0,1-.09-1.6,8.57,8.57,0,0,1,.66-2.12A3.41,3.41,0,0,1,157,43.81a.91.91,0,0,1,.5-.13,1,1,0,0,1,.57.29,5.27,5.27,0,0,1,.93,1,.84.84,0,0,1,.2.51c0,.27-.26.46-.48.62a14.84,14.84,0,0,0-3.29,3.28"/><path class="cls-3" d="M155.63,48.76a1.33,1.33,0,0,1,0-.89,11.86,11.86,0,0,1,.31-1.31A3.79,3.79,0,0,1,157,44.69a3.47,3.47,0,0,1,.4-.25s0,0,0,0,.15.09.2.13a7.1,7.1,0,0,1,.82.91s0,.08,0,.07l0-.16,0,0-.09.09c-.09.09.07,0,0,0l-.11.09-.31.23c-.37.29-.72.58-1.07.89a16.88,16.88,0,0,0-2.1,2.37.74.74,0,0,0,.27,1,.76.76,0,0,0,1-.26,14.12,14.12,0,0,1,2.21-2.36c.39-.34.86-.62,1.23-1a1.39,1.39,0,0,0,.14-1.83,5.83,5.83,0,0,0-1.2-1.28,1.62,1.62,0,0,0-1.83-.16,4.54,4.54,0,0,0-2,2.52,10.62,10.62,0,0,0-.49,1.84,2.82,2.82,0,0,0,.2,2,.75.75,0,0,0,1.3-.76Z"/><path class="cls-2" d="M154.92,49.45a4.65,4.65,0,0,0-1.25-2,2.36,2.36,0,0,0-3,.14.49.49,0,0,0-.16.24.56.56,0,0,0,.09.35,6.13,6.13,0,0,0,1.64,2.19,2.8,2.8,0,0,0,2.58.54"/><path class="cls-3" d="M155.64,49.25a5.3,5.3,0,0,0-1.59-2.49,3.1,3.1,0,0,0-2.61-.46,3,3,0,0,0-1.22.66,1.23,1.23,0,0,0-.45.83,1.75,1.75,0,0,0,.27.89,6.71,6.71,0,0,0,1.83,2.3,3.52,3.52,0,0,0,3.16.61.75.75,0,1,0-.4-1.45l-.26.08-.1,0c-.11,0,.11,0,0,0a1.92,1.92,0,0,0-.24,0h-.14c-.14,0,.05,0,0,0a4.7,4.7,0,0,1-.51-.12l-.13,0s.1,0,0,0l-.27-.14-.21-.14-.06,0,0,0c-.14-.13-.28-.26-.41-.4s-.13-.15-.19-.22-.09-.11,0,0L152,49a5,5,0,0,1-.32-.48q-.15-.24-.27-.48a1.14,1.14,0,0,0-.12-.22c-.05-.06,0,0,0,0s0,.27-.1.29.12-.1.16-.14-.1.06,0,0l.1-.07.19-.1s.13,0,0,0l.15,0,.2-.05.13,0h0a2.69,2.69,0,0,1,.49,0c-.15,0,0,0,.07,0l.21.06.11,0s-.13-.07,0,0a2.25,2.25,0,0,1,.21.12l.1.07c-.09-.07,0,0,0,0l.19.19,0,.06c0-.07.06.07.06.09a1.14,1.14,0,0,1,.15.23,4.18,4.18,0,0,1,.28.56l.06.13c0-.07,0,0,0,0s.09.22.13.33a.78.78,0,0,0,.93.52.76.76,0,0,0,.52-.92Z"/><path class="cls-2" d="M155.28,50.74a7.22,7.22,0,0,0-1.59,3.55c0,.21,0,.49.19.54a.42.42,0,0,0,.22,0A3.46,3.46,0,0,0,156,53.62a2.22,2.22,0,0,0,.32-2.12,3.82,3.82,0,0,1-.49-1.12,1.34,1.34,0,0,1,.76-1.19,2.34,2.34,0,0,1,3.08.88.88.88,0,0,1,.13.57.9.9,0,0,1-.18.35,4.13,4.13,0,0,1-.6.65.62.62,0,0,1-.29.17.66.66,0,0,1-.43-.1c-.64-.34-1.21-1-1.95-.94"/><path class="cls-3" d="M154.75,50.21a8.26,8.26,0,0,0-1.22,2,6.22,6.22,0,0,0-.6,2.27,1.15,1.15,0,0,0,.51,1,1.5,1.5,0,0,0,1.35-.09A4.07,4.07,0,0,0,156.6,54a3,3,0,0,0,.53-2.25,3.11,3.11,0,0,0-.38-1,2.61,2.61,0,0,1-.19-.37.26.26,0,0,1,0-.24,1.06,1.06,0,0,1,.5-.41c-.1.05.05,0,.08,0l.19-.05c.21,0-.11,0,.11,0h.23a2.16,2.16,0,0,1,.61.14,1.4,1.4,0,0,1,.59.46c-.07-.09,0,0,0,.07a.75.75,0,0,1,.1.2c0-.12.1-.15,0,0a1.83,1.83,0,0,0-.13.16,3.29,3.29,0,0,1-.41.42s.16,0,.18,0a.75.75,0,0,0-.14-.08,4,4,0,0,0-2.18-1,.75.75,0,0,0,0,1.5.75.75,0,0,1,.52.15c.26.16.5.34.75.51a2.38,2.38,0,0,0,.83.37,1.3,1.3,0,0,0,1.1-.38,2.19,2.19,0,0,0,1-1.93,2.58,2.58,0,0,0-1-1.47,3.12,3.12,0,0,0-3.21-.27A2.21,2.21,0,0,0,155.08,50,1.79,1.79,0,0,0,155.2,51c.11.26.29.52.39.76a1.49,1.49,0,0,1-.28,1.45,2.15,2.15,0,0,1-.64.52,2.55,2.55,0,0,1-.32.17l-.23.09-.13,0c-.13,0-.12,0,0,0l.33.19s0,.1.07.14,0-.09,0,0c0-.16.06-.33.1-.49a5.66,5.66,0,0,1,.32-1,6.3,6.3,0,0,1,1-1.62.75.75,0,0,0-1.06-1.06Z"/><path class="cls-2" d="M162.05,61a4,4,0,0,1-3.82-2,1.62,1.62,0,0,1-.25-1.1,1.47,1.47,0,0,1,1.19-1,1.55,1.55,0,0,1,1,.09,1.94,1.94,0,0,1,.83,1,24.39,24.39,0,0,0,1.15,2.79"/><path class="cls-3" d="M162.05,60.2a4.52,4.52,0,0,1-.52,0l-.27,0s.15,0,0,0l-.15,0a2.85,2.85,0,0,1-.5-.14l-.23-.08c.14,0,0,0,0,0l-.17-.08-.45-.27-.1-.07c-.09-.06.09.08,0,0l-.23-.2a4.14,4.14,0,0,1-.35-.38c.1.12,0-.06-.07-.1a2.26,2.26,0,0,1-.16-.26.54.54,0,0,1-.07-.13s-.06-.13,0,0a1.31,1.31,0,0,1-.09-.28c0-.15,0,0,0,0s0-.22,0-.11,0,0,0-.06-.07.1,0,0,.1-.17,0-.07a.49.49,0,1,0,0,0l.09-.08c.06-.08-.1.06,0,0l.24-.14s.12,0,0,0l.18-.06.11,0s.15,0,0,0h.3l.13,0c.14,0,.05,0,0,0l.17.11c-.12-.09.05.06.08.1s0-.08,0,0l.07.11c.05.08.09.16.13.24l.07.14c.06.12,0,0,0,.05a21.51,21.51,0,0,0,1.15,2.81.75.75,0,0,0,1.3-.76,5.75,5.75,0,0,1-.34-.65c-.1-.22.05.13,0-.09a.58.58,0,0,0-.05-.14l-.15-.42c-.18-.5-.35-1-.57-1.49a2.8,2.8,0,0,0-1-1.26,2.3,2.3,0,0,0-1.76-.22,2.41,2.41,0,0,0-1.27.75,1.93,1.93,0,0,0-.4,1.73,4.23,4.23,0,0,0,1.81,2.33,4.67,4.67,0,0,0,3,.77.75.75,0,0,0,0-1.5Z"/><path class="cls-2" d="M162.09,61.08a5.23,5.23,0,0,0-2.22.31,2,2,0,0,0-1.43,1.43,1.49,1.49,0,0,0-.08.78,1.34,1.34,0,0,0,1.2.85,2.73,2.73,0,0,0,2-.57,1.87,1.87,0,0,0,.67-1c.12-.43,0-.9.16-1.32"/><path class="cls-3" d="M162.09,60.33a5.91,5.91,0,0,0-2.84.51,2.88,2.88,0,0,0-1.65,2.33,1.86,1.86,0,0,0,1.6,2,3.45,3.45,0,0,0,2.68-.57,2.86,2.86,0,0,0,1-1.32,3.11,3.11,0,0,0,.13-.8c0-.12,0-.24,0-.36s0-.22,0-.11,0-.15.05-.17a.77.77,0,0,0-.53-.93.76.76,0,0,0-.92.53,5.76,5.76,0,0,0-.13,1.18c0,.15,0,0,0,0l0,.13s0,.08,0,.12.06-.11,0,0l-.1.19c-.07.12,0,0,0,0l-.11.12-.15.15-.1.08s.11-.08,0,0l-.19.12-.09.05-.09,0-.07,0-.09,0-.26.06-.13,0s.12,0,0,0-.2,0-.3,0h-.17l-.11,0-.21-.07s-.1,0,0,0l0,0-.1-.06h0c.09.1-.07-.07-.07-.08s.07.13,0,0-.05-.06-.05-.09.09.15,0,0c0,.05,0,.07,0,0v-.14s0,.11,0,0l.08-.24s.09-.24,0-.11c0-.09.09-.18.14-.27l.06-.09c-.07.11,0,0,0,0l.16-.16c.08-.07-.09.06,0,0l.08,0,.26-.14.05,0,.09,0,.28-.09a6,6,0,0,1,.61-.15l.14,0c.13,0-.17,0,0,0l.3,0c.22,0,.44,0,.65,0a.74.74,0,0,0,.75-.75.76.76,0,0,0-.75-.75Z"/><path class="cls-2" d="M162.41,61.44A3.78,3.78,0,0,0,164.47,64a2.83,2.83,0,0,0,3.12-.58.68.68,0,0,0,.18-.27.75.75,0,0,0-.24-.68,4.4,4.4,0,0,0-1.56-1,9.87,9.87,0,0,0-1.75-.63,3.35,3.35,0,0,0-1.83,0"/><path class="cls-3" d="M161.69,61.64a4.18,4.18,0,0,0,4.57,3.25c.93-.14,2.29-.84,2.28-1.93a2.07,2.07,0,0,0-1-1.53,7,7,0,0,0-1.35-.71,5.65,5.65,0,0,0-4-.59.76.76,0,0,0-.52.92.74.74,0,0,0,.92.52,3.61,3.61,0,0,1,2.41.27,5.39,5.39,0,0,1,2,1.09s.05.08.06.06a.36.36,0,0,0,0-.1s.06,0,0,0-.07.08-.11.11l-.08.07,0,0a2.12,2.12,0,0,1-.88.35c.11,0-.07,0-.1,0h-.5l-.18,0-.23-.06s-.22-.09-.14-.05a4.76,4.76,0,0,1-.49-.28,3.43,3.43,0,0,1-.67-.7,3.21,3.21,0,0,1-.49-1.07.75.75,0,0,0-1.44.4Z"/><path class="cls-2" d="M162.4,60.86a3.76,3.76,0,0,1-.62-1.47,1.59,1.59,0,0,1,0-.81,1.64,1.64,0,0,1,.6-.73,4.9,4.9,0,0,1,2.31-1,.88.88,0,0,1,.28,0c.25.08.34.39.34.64a3.24,3.24,0,0,1-.28,1.18,4.7,4.7,0,0,1-.89,1.57,2.09,2.09,0,0,1-1.61.72"/><path class="cls-3" d="M163.05,60.48a3.35,3.35,0,0,1-.27-.45s-.11-.23-.06-.1c0-.09-.07-.18-.1-.26a4.7,4.7,0,0,1-.12-.51c0-.09,0,0,0,0s0-.1,0-.15a.76.76,0,0,1,0-.15c0,.08,0,0,0,0s0,0,0,0,0-.07.06-.11.06-.09,0,0,0,0,0-.05a1.21,1.21,0,0,1,.16-.16.39.39,0,0,1,.1-.08c.1-.09,0,0,0,0a9.85,9.85,0,0,1,.89-.52c.08,0,0,0,0,0l.13-.05.23-.08a4.56,4.56,0,0,1,.53-.13l.14,0c.09,0,0,0,0,0s.08,0,0,0a.51.51,0,0,1-.16-.09s-.09-.12,0-.05-.06-.13,0,0l0,.08c0-.1,0-.12,0-.06v0a1.06,1.06,0,0,1,0,.25c0-.12,0,0,0,0l0,.15q-.08.27-.18.54l-.09.23c0,.14,0,.05,0,0l-.06.13c-.08.17-.17.33-.26.49l-.15.24s-.09.11,0,0l-.09.11-.21.21-.08.06c.1-.09,0,0,0,0l-.25.16s-.11,0,0,0l-.09,0-.25.07c.14,0,.05,0,0,0h-.2a.75.75,0,0,0,0,1.5,3,3,0,0,0,2.52-1.42,5.58,5.58,0,0,0,.65-1.29,4.17,4.17,0,0,0,.36-1.51,1.35,1.35,0,0,0-.84-1.34,2.69,2.69,0,0,0-1.53.17,4.65,4.65,0,0,0-2.41,1.6c-.67,1-.18,2.44.44,3.32a.77.77,0,0,0,1,.27.76.76,0,0,0,.27-1Z"/><path class="cls-6" d="M158.27,59.66a6.49,6.49,0,0,1,1.41-6.24,8.31,8.31,0,0,1,2.77-1.59A36.66,36.66,0,0,1,166,50.6a.44.44,0,0,1,.39,0,.47.47,0,0,1,.08.26,8.53,8.53,0,0,1-7.69,8.87"/><path class="cls-7" d="M158.63,59.56a6.89,6.89,0,0,1,.31-4.46,6.35,6.35,0,0,1,3.76-3q1.37-.52,2.76-1a2.06,2.06,0,0,1,.66-.19s0-.37,0,.07v.3a7.2,7.2,0,0,1-.12,1.32,8.17,8.17,0,0,1-7.2,6.73c-.48,0-.48.8,0,.75a9,9,0,0,0,7.92-7.28,10.44,10.44,0,0,0,.15-1.37c0-.39.08-1-.31-1.21s-.79,0-1.13.11c-.58.17-1.15.36-1.72.56-1.85.66-3.89,1.38-5,3.09a7.29,7.29,0,0,0-.77,5.72c.11.47.83.27.72-.2Z"/><path class="cls-6" d="M162.39,79.59a6.53,6.53,0,0,1,5.86-2.6,8.44,8.44,0,0,1,2.92,1.27,37.28,37.28,0,0,1,3.12,2.13c.11.09.23.2.21.33a.44.44,0,0,1-.16.22,8.54,8.54,0,0,1-11.71-.86"/><path class="cls-7" d="M162.66,79.86c1.32-1.58,3.35-2.85,5.49-2.5a8.28,8.28,0,0,1,3,1.34c.51.31,1,.64,1.49,1l.73.52c.13.09.54.3.61.44s.1.14-.16.23l-.32.22c-.22.15-.44.28-.67.41a8.63,8.63,0,0,1-1.54.64,8.15,8.15,0,0,1-8.41-2.32c-.33-.35-.86.18-.54.53A9,9,0,0,0,172.7,82.4a9.58,9.58,0,0,0,1.28-.73c.28-.19.76-.44.86-.8a.7.7,0,0,0-.29-.74,11.68,11.68,0,0,0-1.33-1c-1.63-1.14-3.48-2.49-5.54-2.59a7.08,7.08,0,0,0-5.55,2.76c-.31.37.22.9.53.54Z"/><path class="cls-6" d="M145,71.45a12.13,12.13,0,0,0-4.74,2.1,5.55,5.55,0,0,0-1.77,1.9,6.7,6.7,0,0,0-.55,3.14.8.8,0,0,0,.19.66.69.69,0,0,0,.47.13,4.18,4.18,0,0,0,2.52-1.06,10.78,10.78,0,0,0,3.9-6.74"/><path class="cls-7" d="M144.9,71.09a12.6,12.6,0,0,0-4.72,2,7.12,7.12,0,0,0-1.75,1.67,5,5,0,0,0-.79,2.3c0,.4-.07.81-.08,1.21a1.87,1.87,0,0,0,.15,1c.41.68,1.48.45,2.08.21a8.57,8.57,0,0,0,3.55-3,11.09,11.09,0,0,0,2-4.86c.08-.47-.65-.68-.72-.2a10.37,10.37,0,0,1-3.95,6.67,3.66,3.66,0,0,1-2,.86c-.46,0-.42-.25-.42-.62s0-.72.05-1.08a4.43,4.43,0,0,1,.69-2.06,5.67,5.67,0,0,1,1.51-1.46,12.15,12.15,0,0,1,4.54-2c.47-.1.27-.82-.2-.72Z"/><path class="cls-6" d="M145,54.45a12.13,12.13,0,0,0-4.74,2.1,5.55,5.55,0,0,0-1.77,1.9,6.7,6.7,0,0,0-.55,3.14.8.8,0,0,0,.19.66.69.69,0,0,0,.47.13,4.18,4.18,0,0,0,2.52-1.06,10.78,10.78,0,0,0,3.9-6.74"/><path class="cls-7" d="M144.9,54.09a12.6,12.6,0,0,0-4.72,2,7.12,7.12,0,0,0-1.75,1.67,5,5,0,0,0-.79,2.3c0,.4-.07.81-.08,1.21a1.87,1.87,0,0,0,.15,1c.41.68,1.48.45,2.08.21a8.57,8.57,0,0,0,3.55-3,11.09,11.09,0,0,0,2-4.86c.08-.47-.65-.68-.72-.2a10.37,10.37,0,0,1-3.95,6.67,3.66,3.66,0,0,1-2,.86c-.46,0-.42-.25-.42-.62s0-.72.05-1.08a4.43,4.43,0,0,1,.69-2.06,5.67,5.67,0,0,1,1.51-1.46,12.15,12.15,0,0,1,4.54-2c.47-.1.27-.82-.2-.72Z"/><path class="cls-6" d="M145.05,71.85a7.91,7.91,0,0,0-2.13-2.57,3.73,3.73,0,0,0-1.49-.77,4.44,4.44,0,0,0-2,.21.39.39,0,0,0-.38.55,2.69,2.69,0,0,0,1.1,1.37A7,7,0,0,0,145,71.89"/><path class="cls-7" d="M145.37,71.66a8.29,8.29,0,0,0-2-2.49,3.8,3.8,0,0,0-3-1,5.66,5.66,0,0,0-.8.16,1.58,1.58,0,0,0-.71.29c-.39.35-.19.92,0,1.31a5.08,5.08,0,0,0,2.5,1.87,7.26,7.26,0,0,0,3.6.5c.47-.05.48-.8,0-.75a6.47,6.47,0,0,1-4.89-1.37c-.24-.2-.7-.61-.7-1,0-.08,0,0,.07-.08l.3-.08a6,6,0,0,1,.71-.15,3.1,3.1,0,0,1,2.46.9,7.67,7.67,0,0,1,1.8,2.28c.23.43.87,0,.65-.38Z"/><path class="cls-6" d="M143.44,54.42a7.92,7.92,0,0,0-3-1.44,3.64,3.64,0,0,0-1.67-.07A4.39,4.39,0,0,0,137,54c-.11.1-.24.22-.24.37a.46.46,0,0,0,.13.29,2.65,2.65,0,0,0,1.58.78,6.91,6.91,0,0,0,4.92-.92"/><path class="cls-7" d="M143.63,54.09a8.37,8.37,0,0,0-3-1.44,3.69,3.69,0,0,0-3.15.45c-.35.24-.92.57-1.07,1s.28.93.66,1.18a5.08,5.08,0,0,0,3,.6,7.5,7.5,0,0,0,3.45-1.07.38.38,0,0,0-.38-.65,6.63,6.63,0,0,1-3.18,1,6.8,6.8,0,0,1-1.56-.12,3,3,0,0,1-.81-.28c-.12-.06-.51-.28-.51-.39s.48-.42.56-.48a3.55,3.55,0,0,1,.75-.45,2.67,2.67,0,0,1,1.65-.13,7.67,7.67,0,0,1,3.16,1.45c.38.29.76-.36.38-.65Z"/><path class="cls-6" d="M157.54,58.64a7.76,7.76,0,0,0,.78-3.24,3.71,3.71,0,0,0-.28-1.65,4.56,4.56,0,0,0-1.39-1.51.59.59,0,0,0-.42-.16.51.51,0,0,0-.25.19,2.6,2.6,0,0,0-.43,1.71,6.88,6.88,0,0,0,1.92,4.62"/><path class="cls-7" d="M157.87,58.83a8.31,8.31,0,0,0,.82-3.43,3.61,3.61,0,0,0-1.14-2.89c-.31-.29-.77-.79-1.23-.81s-.8.52-1,.93a5.31,5.31,0,0,0,.07,3.13,7.49,7.49,0,0,0,1.77,3.11c.34.35.87-.18.53-.53a6.7,6.7,0,0,1-1.57-2.78,6.11,6.11,0,0,1-.24-1.58,3.55,3.55,0,0,1,.06-.8c0-.15.14-.65.32-.7s.39.27.49.35a5.39,5.39,0,0,1,.59.58,2.59,2.59,0,0,1,.56,1.54,7.3,7.3,0,0,1-.72,3.5c-.21.44.44.82.65.38Z"/><path class="cls-6" d="M147.54,40.64a7.76,7.76,0,0,0,.78-3.24,3.71,3.71,0,0,0-.28-1.65,4.56,4.56,0,0,0-1.39-1.51.59.59,0,0,0-.42-.16.51.51,0,0,0-.25.19,2.6,2.6,0,0,0-.43,1.71,6.88,6.88,0,0,0,1.92,4.62"/><path class="cls-7" d="M147.87,40.83a8.31,8.31,0,0,0,.82-3.43,3.61,3.61,0,0,0-1.14-2.89c-.31-.29-.77-.79-1.23-.81s-.8.52-1,.93a5.31,5.31,0,0,0,.07,3.13,7.49,7.49,0,0,0,1.77,3.11c.34.35.87-.18.53-.53a6.7,6.7,0,0,1-1.57-2.78,6.11,6.11,0,0,1-.24-1.58,3.55,3.55,0,0,1,.06-.8c0-.15.14-.65.32-.7s.39.27.49.35a5.39,5.39,0,0,1,.59.58,2.59,2.59,0,0,1,.56,1.54,7.3,7.3,0,0,1-.72,3.5c-.21.44.44.82.65.38Z"/><path class="cls-6" d="M150.54,36.16A8,8,0,0,0,148,38.34a3.77,3.77,0,0,0-.74,1.5,4.46,4.46,0,0,0,.25,2c.05.15.1.31.24.37a.44.44,0,0,0,.32,0,2.7,2.7,0,0,0,1.35-1.13,6.92,6.92,0,0,0,1.14-4.88"/><path class="cls-7" d="M150.36,35.84a8.12,8.12,0,0,0-2.48,2.07,5.06,5.06,0,0,0-.85,1.43,3.45,3.45,0,0,0-.1,1.69,8.59,8.59,0,0,0,.21.84,1.18,1.18,0,0,0,.34.64c.39.3,1,.06,1.3-.18a5.26,5.26,0,0,0,1.78-2.56,7.36,7.36,0,0,0,.38-3.63.37.37,0,0,0-.46-.26.38.38,0,0,0-.26.46A6.46,6.46,0,0,1,149,41.16a2,2,0,0,1-.91.71s-.15,0-.11,0,0,0,0,0a1.14,1.14,0,0,1-.09-.3,6.41,6.41,0,0,1-.17-.73,3.06,3.06,0,0,1,.84-2.5,7.93,7.93,0,0,1,2.23-1.85c.43-.23.05-.88-.37-.64Z"/><path class="cls-6" d="M159.59,78.66a13.52,13.52,0,0,0-.13,2.91,4.52,4.52,0,0,0,1.11,2.64,5.67,5.67,0,0,0,1.74,1.15,23,23,0,0,0,3.84,1.42.56.56,0,0,0,.46,0,.54.54,0,0,0,.17-.29,3.24,3.24,0,0,0-.72-2.42c-1.07-1.65-2.3-3.21-3.51-4.76-.55-.69-1.32-1.47-2.17-1.22"/><path class="cls-7" d="M159.21,78.66c-.2,1.72-.36,3.59.58,5.14s2.71,2.12,4.23,2.69c.41.15.83.29,1.25.42a3.12,3.12,0,0,0,1.24.28c.76-.1.75-1.12.63-1.7a6.78,6.78,0,0,0-1.21-2.3c-.53-.77-1.08-1.52-1.65-2.26s-1.16-1.6-1.82-2.31a2.29,2.29,0,0,0-2.18-.9c-.47.11-.27.83.2.72.66-.15,1.2.42,1.59.87s.92,1.15,1.37,1.74a34.83,34.83,0,0,1,2.54,3.6,3.36,3.36,0,0,1,.42,1,1.81,1.81,0,0,1,0,.57c0,.25,0,.27-.28.21-.71-.19-1.41-.43-2.1-.69-1.26-.48-2.84-1-3.6-2.23-.91-1.43-.69-3.22-.51-4.82.06-.48-.69-.47-.75,0Z"/><path class="cls-8" d="M152.24,39.36c1.3.86,1.33,2.72,1.92,4.17.42,1,1.17,1.91,1.49,3a8,8,0,0,1-.51,4.62l-.58,1.82a4.43,4.43,0,0,1-1.44,2.45c-1,.68-2.35.41-3.56.24a16.68,16.68,0,0,0-2.82-.16,14.1,14.1,0,0,1-2.68,0,5,5,0,0,1-3.94-6.28,2.7,2.7,0,0,0,.22-1.64,2.84,2.84,0,0,0-.54-.79,5,5,0,0,1-.79-2.29c-.2-1.35-.09-3,1-3.71a6.74,6.74,0,0,1,1.47-.59,27.4,27.4,0,0,0,3.06-1.75,3.47,3.47,0,0,1,3.36-.25c.51.31.92.83,1.5,1a3.1,3.1,0,0,0,.86,0,4.26,4.26,0,0,1,3.52,1.48"/><path class="cls-9" d="M146.3,50.53a2,2,0,0,0,1.86-.61,5.09,5.09,0,0,0,.94-1.8,2.16,2.16,0,0,0-.14-2,5.33,5.33,0,0,0-1.58-1.25,16.35,16.35,0,0,0-1.86-1,3.76,3.76,0,0,0-1-.34,1.37,1.37,0,0,0-1.09.34,3,3,0,0,0-.72,3.22,6,6,0,0,0,3,3c.67.37,1.28-.66.6-1a6,6,0,0,1-2.13-1.71,2.24,2.24,0,0,1-.3-2.12,1.48,1.48,0,0,1,.31-.43c.16-.13.26-.08.45,0a10.75,10.75,0,0,1,1.42.66,14.27,14.27,0,0,1,1.35.82c.31.21.7.44.7.87a3.78,3.78,0,0,1-.52,1.51c-.18.34-.52.79-.95.69-.75-.17-1.08,1-.32,1.16Z"/><path class="cls-9" d="M147,49.92a5.08,5.08,0,0,0-.22-4.54.6.6,0,0,0-.82-.21.61.61,0,0,0-.21.82,3.89,3.89,0,0,1,.49,1.64v.44c0,.09,0,.17,0,.26s0,.08,0,0a.5.5,0,0,0,0,.12,3.15,3.15,0,0,1-.11.44,2.17,2.17,0,0,1-.07.24l-.06.15a.62.62,0,0,0,.22.83.61.61,0,0,0,.82-.22Z"/><path class="cls-9" d="M146.13,45.29a2.85,2.85,0,0,0-2.57,1.53.6.6,0,0,0,1,.61,1.67,1.67,0,0,1,.12-.23s.09-.1.08-.11-.09.11,0,0l0,0,.19-.18.1-.09-.05,0,.06,0,.22-.13.11-.06.06,0c-.16.08-.09,0-.05,0a1.89,1.89,0,0,1,.52-.13l-.16,0a1.83,1.83,0,0,1,.33,0,.6.6,0,0,0,.6-.6.61.61,0,0,0-.6-.6Z"/><path class="cls-9" d="M147.53,49.22a6.66,6.66,0,0,1,.34,1.07,1.33,1.33,0,0,1,0,.72.36.36,0,0,1,0,.11s0,0,0,0-.13.2-.07.12a.69.69,0,0,1-.11.13c-.06,0-.06,0,0,0l-.09.06a.87.87,0,0,1-.3.07l-.54,0a4.05,4.05,0,0,1-.42,0,1.73,1.73,0,0,1-.36-.11l-.11-.07,0,0-.12-.13c.06.08-.06-.1-.08-.12l-.09-.19a.2.2,0,0,1,0-.08s0,0,0,0a2.09,2.09,0,0,1-.08-.23c-.05-.16-.09-.31-.13-.47-.1-.39-.19-.78-.27-1.18a.61.61,0,0,0-.74-.42.62.62,0,0,0-.42.74c.25,1.25.5,2.94,1.89,3.4a4.26,4.26,0,0,0,1,.16,2.81,2.81,0,0,0,1.08-.07A1.92,1.92,0,0,0,149,51.22a4,4,0,0,0-.34-2.32.6.6,0,0,0-1.16.32Z"/><path class="cls-9" d="M143.67,49.14a3.22,3.22,0,0,1-.76,0l-.3,0s-.1,0-.11,0l.09.08a.3.3,0,0,1,0-.08,7.38,7.38,0,0,1-.36-1.38,5,5,0,0,1,0-.77,2.51,2.51,0,0,1,.08-.62.81.81,0,0,1,.26-.45l0,0c.11-.08,0,0,.06,0s.13-.06.06,0h.09a.6.6,0,0,0,.31-1.16,1.63,1.63,0,0,0-1.81,1,4.14,4.14,0,0,0-.25,2.12,6,6,0,0,0,.21,1.12,3.41,3.41,0,0,0,.39,1,1.43,1.43,0,0,0,1.15.51A5.24,5.24,0,0,0,144,50.3a.61.61,0,0,0,.42-.74.62.62,0,0,0-.74-.42Z"/><path class="cls-9" d="M148.1,50.22c.44.14.88.31,1.33.43a1.28,1.28,0,0,0,1.26-.27,2.89,2.89,0,0,0,.55-1.19,6.05,6.05,0,0,0,.25-1.4A3.82,3.82,0,0,0,149,43.88a5.4,5.4,0,0,0-2.62-.14.61.61,0,0,0-.42.74.62.62,0,0,0,.74.42c1.35-.23,2.91.15,3.4,1.57a3.86,3.86,0,0,1,0,2.4,5.84,5.84,0,0,1-.2.59c0,.08-.09.09,0,.08s-.13-.07-.09,0c-.42-.18-.89-.29-1.33-.43-.74-.24-1,.92-.32,1.16Z"/><path class="cls-9" d="M147.83,43.79a2.15,2.15,0,0,0-1-2.35,7.12,7.12,0,0,0-1.57-.41,9.78,9.78,0,0,0-1.71-.24c-.95,0-1.75,1-2.17,1.73a4.45,4.45,0,0,0-.53,2.72.62.62,0,0,0,.6.6.61.61,0,0,0,.6-.6,3.34,3.34,0,0,1,.27-1.92,3.42,3.42,0,0,1,.56-.84c.17-.19.41-.48.67-.49a6.08,6.08,0,0,1,1.28.18c.43.08.86.17,1.29.29.26.07.39.15.46.39a3,3,0,0,1,0,.94.6.6,0,0,0,.6.6.62.62,0,0,0,.6-.6Z"/><path class="cls-9" d="M151.31,46.29a8.19,8.19,0,0,0,1.3-2.61,1.81,1.81,0,0,0-.08-1.51,2.55,2.55,0,0,0-1.12-.85c-1.55-.79-4.17-1.58-5.31.27a.6.6,0,0,0,1,.61,1.52,1.52,0,0,1,1.56-.53,6.36,6.36,0,0,1,2.11.68c.19.1.65.26.73.49s-.12.65-.2.88a7.64,7.64,0,0,1-1.06,2,.59.59,0,0,0,.21.82.61.61,0,0,0,.82-.22Z"/><path class="cls-9" d="M149.13,40.4a6.56,6.56,0,0,0-2-2.24,3.15,3.15,0,0,0-2.9-.68,4.07,4.07,0,0,0-1.24,1,9.63,9.63,0,0,0-1.07,1.23,4.92,4.92,0,0,0-1,3,.6.6,0,0,0,1.2,0,3.86,3.86,0,0,1,.8-2.33,7.43,7.43,0,0,1,.83-1,3.94,3.94,0,0,1,.89-.79c.64-.32,1.47.24,2,.6A5.61,5.61,0,0,1,148.1,41c.37.68,1.41.07,1-.6Z"/><path class="cls-9" d="M145.11,51.46l-1.55.09a7.6,7.6,0,0,1-1.43.05c-.73-.09-1.07-.85-1.35-1.45a5.89,5.89,0,0,1-.65-2.56,2.74,2.74,0,0,1,.26-1.12,4.86,4.86,0,0,1,.81-1c.52-.57-.33-1.42-.85-.85a6,6,0,0,0-1,1.25,4.09,4.09,0,0,0-.41,1.49,6.72,6.72,0,0,0,.75,3.28,3.38,3.38,0,0,0,1.87,2.06,4.36,4.36,0,0,0,1.65.07l1.9-.11c.77,0,.77-1.25,0-1.2Z"/><path class="cls-9" d="M139.7,47.15l-.34-2.31a11.65,11.65,0,0,1-.23-2.2,2.52,2.52,0,0,1,2.65-2.09.6.6,0,0,0,0-1.2A3.84,3.84,0,0,0,138,42a7.23,7.23,0,0,0,.1,2.62l.42,2.88a.6.6,0,0,0,.74.42.63.63,0,0,0,.42-.74Z"/><path class="cls-9" d="M148.09,52.9a3.39,3.39,0,0,0,3.2.64c1.17-.46,1.52-1.55,1.85-2.66.19-.62.35-1.24.5-1.87a3.5,3.5,0,0,0,.1-1.67,2.4,2.4,0,0,0-2.22-1.76c-.77,0-.77,1.17,0,1.2a1.15,1.15,0,0,1,1.09,1.11,5.5,5.5,0,0,1-.24,1.26c-.12.47-.25.94-.38,1.41-.21.69-.36,1.58-1.11,1.86a2.37,2.37,0,0,1-2.19-.56.61.61,0,0,0-.82.22.62.62,0,0,0,.22.82Z"/><path class="cls-9" d="M148.83,53.41a1.44,1.44,0,0,1-.85.86,1.85,1.85,0,0,1-1.48.32,8.86,8.86,0,0,1-1.58-1c-.54-.37-1.07-.76-1.58-1.16a.62.62,0,0,0-.85,0,.6.6,0,0,0,0,.85c.66.51,1.33,1,2,1.48a5.09,5.09,0,0,0,2.14,1.07,3.54,3.54,0,0,0,2.05-.61A2.47,2.47,0,0,0,150,53.73c.18-.75-1-1.08-1.15-.32Z"/><path class="cls-9" d="M152.76,51.15A4,4,0,0,0,155.5,50a6.62,6.62,0,0,0,1.24-2.86,2.18,2.18,0,0,0-.11-1.59,4.27,4.27,0,0,0-1.1-1.06,6.91,6.91,0,0,0-2.73-1.27c-.75-.17-1.08,1-.32,1.15a6.35,6.35,0,0,1,2.09.89,6,6,0,0,1,.86.72.55.55,0,0,1,.22.36,2.09,2.09,0,0,1-.1.6,5.8,5.8,0,0,1-.89,2.2,2.66,2.66,0,0,1-1.9.82.62.62,0,0,0-.6.6.61.61,0,0,0,.6.6Z"/><path class="cls-9" d="M155.07,44.48a6.63,6.63,0,0,0-.24-3.28,4.3,4.3,0,0,0-1.75-2.47,2.91,2.91,0,0,0-1.54-.29,8.67,8.67,0,0,1-1.69-.07c-.29,0-.58-.12-.87-.2a2.45,2.45,0,0,0-.8-.18.94.94,0,0,0-.94,1.14.61.61,0,0,0,.74.42.6.6,0,0,0,.42-.73v.23c-.23.09-.29.13-.19.14a.27.27,0,0,1,.12,0l.29.09a6,6,0,0,0,.61.15,7.56,7.56,0,0,0,1.35.18c.7,0,1.56-.2,2.15.29a3.83,3.83,0,0,1,1,1.86,5.28,5.28,0,0,1,.15,2.37.63.63,0,0,0,.42.74.6.6,0,0,0,.74-.42Z"/><path class="cls-9" d="M149,55.21l1.7.65a3.92,3.92,0,0,0,1.7.45c1-.1,1.74-1.21,2.26-2a11.24,11.24,0,0,0,1.33-2.8c.29-.92.73-2.46-.65-2.64a.6.6,0,1,0,0,1.2h.08l-.3-.08c.08.05.1,0,0,0s-.05-.07,0,0,0,.15,0,.2c0,.2-.08.39-.14.59a8.92,8.92,0,0,1-.37,1.14,9.94,9.94,0,0,1-1.11,2,7.8,7.8,0,0,1-.68.84c-.25.26-.45.4-.81.29-.9-.29-1.78-.68-2.66-1a.61.61,0,0,0-.74.42.62.62,0,0,0,.42.74Z"/><path class="cls-9" d="M145.1,54.49c-1.12-.23-2.42-.11-3.4-.74a2.1,2.1,0,0,1-.78-1.11,2.62,2.62,0,0,1-.27-1.57c.23-.74-.93-1.06-1.16-.32a3.43,3.43,0,0,0,.23,2.09,3.65,3.65,0,0,0,1.07,1.72c1.16.93,2.62.8,4,1.09a.62.62,0,0,0,.74-.42.61.61,0,0,0-.42-.74Z"/><path class="cls-2" d="M153.05,56a4,4,0,0,1-3.82-2,1.62,1.62,0,0,1-.25-1.1,1.47,1.47,0,0,1,1.19-1,1.55,1.55,0,0,1,1,.09,1.94,1.94,0,0,1,.83,1,24.39,24.39,0,0,0,1.15,2.79"/><path class="cls-3" d="M153.05,55.28a4.51,4.51,0,0,1-.52,0l-.27,0s.12,0,0,0l-.15,0a4.07,4.07,0,0,1-.5-.13l-.23-.09c.11,0,0,0,0,0l-.17-.08a4,4,0,0,1-.44-.27l-.1-.07c-.09-.06.07.06,0,0l-.23-.21a3.24,3.24,0,0,1-.36-.38c.08.1-.06-.09-.07-.11a2.33,2.33,0,0,1-.17-.26l-.07-.13s-.05-.11,0,0a2.29,2.29,0,0,1-.08-.28.38.38,0,0,1,0-.15c0,.06,0-.06,0-.07s-.05.07,0,0,.09-.16,0-.08,0,0,0,0a.6.6,0,0,1,.08-.08c.07-.08-.08.05,0,0l.23-.14h0a.64.64,0,0,1,.18-.06l.11,0s.13,0,0,0a1.41,1.41,0,0,1,.29,0,.57.57,0,0,1,.36.14c-.08-.07,0,0,0,0l.09.09c.14.15,0,0,0,.05l.07.11a1.67,1.67,0,0,1,.12.23l.08.15c0,.08,0,0,0,.06a19.91,19.91,0,0,0,1.14,2.79.68.68,0,0,0,.92.24.67.67,0,0,0,.24-.92,24.42,24.42,0,0,1-1.14-2.8,2.77,2.77,0,0,0-1-1.22,2.24,2.24,0,0,0-1.7-.22,2.35,2.35,0,0,0-1.23.73,1.85,1.85,0,0,0-.39,1.66,4.12,4.12,0,0,0,1.78,2.28,4.6,4.6,0,0,0,2.93.77.71.71,0,0,0,.68-.68.68.68,0,0,0-.68-.67Z"/><path class="cls-2" d="M153.09,56.08a5.23,5.23,0,0,0-2.22.31,2,2,0,0,0-1.43,1.43,1.49,1.49,0,0,0-.08.78,1.34,1.34,0,0,0,1.2.85,2.73,2.73,0,0,0,2-.57,1.87,1.87,0,0,0,.67-1c.12-.43,0-.9.16-1.32"/><path class="cls-3" d="M153.09,55.41a5.86,5.86,0,0,0-2.8.49,2.81,2.81,0,0,0-1.61,2.27,1.79,1.79,0,0,0,1.54,1.9,3.35,3.35,0,0,0,2.62-.57,2.64,2.64,0,0,0,1-1.27,2.6,2.6,0,0,0,.13-.78c0-.12,0-.24,0-.36s0-.21,0-.12,0-.15,0-.18a.67.67,0,0,0-.47-.83.68.68,0,0,0-.83.47,7.49,7.49,0,0,0-.13,1.16c0,.14,0,0,0,0l0,.13s0,.08,0,.12.05-.08,0,0l-.11.19c-.06.1,0,0,0,0l-.1.12-.16.15a.39.39,0,0,1-.1.08s.09-.06,0,0a.82.82,0,0,1-.2.12l-.08,0-.1.05-.08,0-.09,0a2.44,2.44,0,0,1-.26.06l-.13,0h-.47l-.11,0-.21-.06s-.1-.05,0,0,0,0-.06,0-.17-.12-.11-.07l-.09-.09c.09.09,0,0,0,0a.41.41,0,0,1-.05-.09c0,.05,0,.1,0,0,0,.08,0,0,0,0a.61.61,0,0,1,0-.14s0,.08,0,0,.05-.16.07-.24.09-.22.05-.13c0-.09.09-.18.14-.27l.06-.08c-.06.07,0,0,0,0l.16-.15c.08-.07-.08,0,0,0l.08,0,.26-.14.07,0,.09,0,.28-.09a6,6,0,0,1,.61-.15l.14,0c.13,0-.16,0,.07,0l.3,0a4.68,4.68,0,0,1,.65,0,.68.68,0,1,0,0-1.35Z"/><path class="cls-2" d="M153.41,56.44A3.78,3.78,0,0,0,155.47,59a2.83,2.83,0,0,0,3.12-.58.68.68,0,0,0,.18-.27.75.75,0,0,0-.24-.68,4.4,4.4,0,0,0-1.56-1,9.87,9.87,0,0,0-1.75-.63,3.35,3.35,0,0,0-1.83,0"/><path class="cls-3" d="M152.76,56.62a4.1,4.1,0,0,0,4.48,3.2c.89-.14,2.23-.81,2.22-1.86a2,2,0,0,0-1-1.46,6.72,6.72,0,0,0-1.35-.72,5.59,5.59,0,0,0-3.92-.58c-.83.26-.47,1.56.36,1.3a3.65,3.65,0,0,1,2.45.27c.37.14.74.31,1.09.48a3.07,3.07,0,0,1,.92.63c.05.06.05.13.08,0,0,.08-.22.21-.26.24a2,2,0,0,1-.9.35h-.39a1.86,1.86,0,0,1-.43-.06,2.48,2.48,0,0,1-.88-.39,3.32,3.32,0,0,1-1.19-1.82.67.67,0,0,0-1.3.36Z"/><path class="cls-2" d="M153.4,55.86a3.76,3.76,0,0,1-.62-1.47,1.59,1.59,0,0,1,0-.81,1.64,1.64,0,0,1,.6-.73,4.9,4.9,0,0,1,2.31-1,.88.88,0,0,1,.28,0c.25.08.34.39.34.64a3.24,3.24,0,0,1-.28,1.18,4.7,4.7,0,0,1-.89,1.57,2.09,2.09,0,0,1-1.61.72"/><path class="cls-3" d="M154,55.52a3.3,3.3,0,0,1-.43-.83,3.14,3.14,0,0,1-.12-.51,1.38,1.38,0,0,1,0-.35c0-.13,0-.06,0,0l.06-.11s.06-.09,0,0,0,0,0,0a1.29,1.29,0,0,1,.17-.16l.09-.09.06,0a4.89,4.89,0,0,1,.89-.51c.07,0,0,0,0,0l.13-.05.23-.08.53-.14.13,0c.17,0,.05,0,0,0s-.12-.07-.13-.08-.07-.1,0,0-.06-.1,0,0,0,.06,0,.08,0-.05,0,0a2.09,2.09,0,0,1,0,.25c0-.09,0,0,0,0s0,.1,0,.15a3.8,3.8,0,0,1-.18.54.92.92,0,0,1-.09.23c-.05.13,0,.06,0,0l-.06.12a4.74,4.74,0,0,1-.26.5l-.15.23s-.08.1,0,0l-.09.11-.21.21-.08.07,0,0c-.08.06-.17.1-.25.15l0,0-.1,0-.25.06c.11,0,0,0,0,0h-.2a.67.67,0,0,0-.67.67.69.69,0,0,0,.67.68A3,3,0,0,0,156,55.26a6.38,6.38,0,0,0,.64-1.28,4,4,0,0,0,.35-1.49,1.28,1.28,0,0,0-.78-1.27,2.56,2.56,0,0,0-1.49.17A4.59,4.59,0,0,0,152.37,53c-.65,1-.16,2.38.45,3.24a.68.68,0,0,0,.92.24.67.67,0,0,0,.24-.92Z"/><path class="cls-2" d="M137.55,49.4a2.33,2.33,0,0,1-1.32-2.12.93.93,0,0,1,.2-.63.86.86,0,0,1,.9-.16.91.91,0,0,1,.49.35,1.19,1.19,0,0,1,.11.77,12.79,12.79,0,0,0-.25,1.74"/><path class="cls-3" d="M137.74,49.07a2,2,0,0,1-1.14-1.77.55.55,0,0,1,.15-.44c-.05,0,.08,0,.05,0l.11,0h.14c.12,0,0,0,0,0a.71.71,0,0,1,.41.22.79.79,0,0,1,.06.53,15.44,15.44,0,0,0-.26,1.79.38.38,0,0,0,.75,0c0-.64.23-1.25.27-1.88a1.34,1.34,0,0,0-.26-.93,1.25,1.25,0,0,0-.71-.43,1.13,1.13,0,0,0-1.43.71,2.34,2.34,0,0,0,.2,1.64,2.66,2.66,0,0,0,1.24,1.26.39.39,0,0,0,.52-.13.39.39,0,0,0-.14-.52Z"/><path class="cls-2" d="M137.54,49.47a3.14,3.14,0,0,0-1.21-.5,1.34,1.34,0,0,0-.66,0,1.25,1.25,0,0,0-.47.28.81.81,0,0,0-.27.37.77.77,0,0,0,.35.78,1.54,1.54,0,0,0,1.16.3,1.06,1.06,0,0,0,.61-.27c.19-.18.28-.44.47-.62"/><path class="cls-3" d="M137.73,49.15a3.36,3.36,0,0,0-1.52-.57,1.59,1.59,0,0,0-1.45.6,1,1,0,0,0-.2.84,1.28,1.28,0,0,0,.42.63,2,2,0,0,0,1.46.44,1.54,1.54,0,0,0,.88-.39,1.72,1.72,0,0,0,.26-.33,1.28,1.28,0,0,1,.21-.28.37.37,0,0,0-.53-.53,2.41,2.41,0,0,0-.36.48.67.67,0,0,1-.29.24,1.16,1.16,0,0,1-1-.07l-.18-.12-.09-.08s0,0,0,0l0,0s-.05-.11,0-.07,0-.11,0,0v0s0-.05,0-.1a1.18,1.18,0,0,1,.36-.29.42.42,0,0,1,.18-.06,1,1,0,0,1,.3,0,2.63,2.63,0,0,1,1.19.48.38.38,0,0,0,.51-.14.39.39,0,0,0-.13-.51Z"/><path class="cls-2" d="M137.59,49.75a2.17,2.17,0,0,0,.28,1.87,1.63,1.63,0,0,0,1.73.63.38.38,0,0,0,.17-.08.46.46,0,0,0,.09-.41,2.65,2.65,0,0,0-.49-1,5.53,5.53,0,0,0-.69-.83,1.92,1.92,0,0,0-.93-.52"/><path class="cls-3" d="M137.23,49.65a2.63,2.63,0,0,0,.12,1.81,2.09,2.09,0,0,0,1.27,1.13c.51.17,1.43.18,1.6-.47s-.33-1.25-.67-1.71a3.15,3.15,0,0,0-1.7-1.33.39.39,0,0,0-.46.27.38.38,0,0,0,.26.46,2,2,0,0,1,1.1.78c.14.18.27.37.4.55a2.48,2.48,0,0,1,.32.6s0,.14,0,.1a.19.19,0,0,1,0,.08c0-.05,0,0,0,0l0,0-.15,0s-.07,0,0,0h-.22a.87.87,0,0,1-.26,0,1.34,1.34,0,0,1-.83-.68,1.93,1.93,0,0,1-.1-1.36.37.37,0,0,0-.72-.2Z"/><path class="cls-2" d="M137.75,49.45a2.17,2.17,0,0,1,.13-.91,1,1,0,0,1,.25-.4.94.94,0,0,1,.52-.19,2.77,2.77,0,0,1,1.45.19.39.39,0,0,1,.14.08.36.36,0,0,1,0,.42,1.79,1.79,0,0,1-.49.5,2.69,2.69,0,0,1-.91.53,1.19,1.19,0,0,1-1-.12"/><path class="cls-3" d="M138.13,49.45a1.73,1.73,0,0,1,0-.56,2.47,2.47,0,0,1,.1-.29l0-.07.06-.08.05,0h0s.05,0,0,0,.05,0,.05,0l.12,0h.11a2.29,2.29,0,0,1,.64,0h0l.09,0,.13,0a3,3,0,0,1,.32.09l.07,0,0-.08c0-.08,0,0,0,0s0-.07,0,0,0,0,0,0a.75.75,0,0,1-.07.12l0,0,0,.05-.1.1-.24.2a2.7,2.7,0,0,1-.45.3,1.19,1.19,0,0,1-.26.11l-.15,0h-.35l-.12,0h0l-.11-.06a.37.37,0,0,0-.51.13.4.4,0,0,0,.14.52,1.7,1.7,0,0,0,1.61,0,3.22,3.22,0,0,0,.66-.42,2.67,2.67,0,0,0,.59-.57.78.78,0,0,0,.1-.86,1.24,1.24,0,0,0-.81-.42,2.61,2.61,0,0,0-1.7.09,1.78,1.78,0,0,0-.69,1.72.38.38,0,0,0,.37.38.39.39,0,0,0,.38-.38Z"/><path class="cls-8" d="M162.8,61.59a3.36,3.36,0,0,1,2.44,1.86,22.46,22.46,0,0,1,1.14,3c.46,1.21,1.11,2.34,1.53,3.57a9.94,9.94,0,0,1-.37,7.29c-.68,1.47-2,2.89-3.59,2.91-.61,0-1.3-.17-1.81.18a3.2,3.2,0,0,0-.7.92A4.5,4.5,0,0,1,159,82.88a22.75,22.75,0,0,0-2.84.87,9.51,9.51,0,0,1-2.31,1,5.26,5.26,0,0,1-2.65-.53,4.24,4.24,0,0,1-1.78-1.06,3.68,3.68,0,0,0-.82-.93,2.63,2.63,0,0,0-.72-.23c-1.83-.49-2.86-2.39-3.51-4.17-.33-.89-.62-1.8-.87-2.72a2,2,0,0,1,.1-1.81c.38-.47,1.19-.7,1.15-1.3a1.17,1.17,0,0,0-.16-.44,14.73,14.73,0,0,1-1.1-5.84,6.34,6.34,0,0,1,.07-1.74,6.11,6.11,0,0,1,1-2c.47-.7,1.07-1.46,1.91-1.53a8.19,8.19,0,0,0,.86,0c1-.18,1.22-1.45,1.87-2.2a4.35,4.35,0,0,1,3-1.08c1.19-.1,2.6-.12,3.33.83a3.31,3.31,0,0,0,.47.58,1.92,1.92,0,0,0,1.09.26,13.34,13.34,0,0,1,3.79,1,4.77,4.77,0,0,1,2.48,1.62,4.33,4.33,0,0,0,.39.62,3.12,3.12,0,0,0,.85.58c1.73,1,1.82,2.75,1.43,4.72"/><path class="cls-9" d="M156.17,59.35c1.61-.14,3.33-.27,4.59.92a5,5,0,0,1,1.51,4.06.67.67,0,0,0,.67.68.7.7,0,0,0,.68-.68,6.25,6.25,0,0,0-1.9-5,4.87,4.87,0,0,0-2.56-1.3,11.51,11.51,0,0,0-3,0,.68.68,0,1,0,0,1.35Z"/><path class="cls-9" d="M148.62,63.57c.24-1.31-.13-2.59,0-3.89a2.52,2.52,0,0,1,.44-1.26,2.2,2.2,0,0,1,1.33-.66,9.84,9.84,0,0,1,1.95-.19,2.73,2.73,0,0,1,1.71.35,4.07,4.07,0,0,1,1.15,2.47c.2.85,1.5.49,1.31-.36a5.26,5.26,0,0,0-1.69-3.22c-1.22-.9-3.12-.65-4.51-.4a3.88,3.88,0,0,0-2,.81,3.14,3.14,0,0,0-.94,1.61c-.38,1.45.16,2.92-.1,4.38a.69.69,0,0,0,.47.83.68.68,0,0,0,.83-.47Z"/><path class="cls-9" d="M147.82,59.89a4.68,4.68,0,0,0-2.65-.32c-.74.26-1.14,1.11-1.45,1.77a15.33,15.33,0,0,0-1.3,5.34,6.53,6.53,0,0,0,1.33,4.9,17.14,17.14,0,0,0,4.13,3.65c.74.47,1.41-.7.68-1.17a16.08,16.08,0,0,1-3.23-2.71,5.22,5.22,0,0,1-1.61-3.89,15.32,15.32,0,0,1,.69-4.2,9,9,0,0,1,.83-1.91c.28-.48.48-.55,1-.45a10,10,0,0,1,1.2.29.67.67,0,0,0,.36-1.3Z"/><path class="cls-9" d="M143.73,70.87a9.67,9.67,0,0,0,.07,8.57,4.87,4.87,0,0,0,3.32,2.49,9.45,9.45,0,0,0,4.68-.48c.83-.26.48-1.56-.36-1.3a8.29,8.29,0,0,1-3.88.5,3.66,3.66,0,0,1-2.67-2,8.26,8.26,0,0,1,0-7.07c.36-.78-.8-1.47-1.17-.68Z"/><path class="cls-9" d="M153.62,80.84a1.45,1.45,0,0,0,.12,1.65,2.5,2.5,0,0,0,1.54.81,7.85,7.85,0,0,0,3.88-.12,4.24,4.24,0,0,0,2.61-2.36,17.7,17.7,0,0,0,1.37-3.94c.19-.84-1.11-1.2-1.3-.36a16.61,16.61,0,0,1-.92,2.93,4.18,4.18,0,0,1-1.55,2.19,5.32,5.32,0,0,1-2.64.49c-.19,0-2.2-.19-1.94-.61.45-.74-.72-1.42-1.17-.68Z"/><path class="cls-9" d="M161.73,80.24c1.06,0,2.14.08,3.21,0a2,2,0,0,0,1.89-1.18,20.31,20.31,0,0,0,1.72-5.48,8.86,8.86,0,0,0-.29-5.44,4.32,4.32,0,0,0-3.57-2.52c-.86,0-.86,1.3,0,1.35a3,3,0,0,1,2.51,2.15,8.75,8.75,0,0,1,0,4.57A24.27,24.27,0,0,1,165.87,78c-.13.29-.24.72-.53.89a1.94,1.94,0,0,1-1,.08l-2.65,0a.68.68,0,0,0,0,1.35Z"/><path class="cls-9" d="M147.71,72.21a19.32,19.32,0,0,0-.4,4.68,3.7,3.7,0,0,0,.64,2,4,4,0,0,0,1.66,1.24A17.59,17.59,0,0,0,154,81.4a2,2,0,0,0,1.91-.54,6.91,6.91,0,0,0,.87-1.94.69.69,0,0,0-.25-.92.67.67,0,0,0-.92.24,9.75,9.75,0,0,1-.62,1.61c-.3.44-.87.21-1.31.12a15.17,15.17,0,0,1-3.55-1.08A2.77,2.77,0,0,1,149,78a2.92,2.92,0,0,1-.32-1.51,20.36,20.36,0,0,1,.36-3.9c.16-.85-1.15-1.22-1.3-.36Z"/><path class="cls-9" d="M160.49,65.42a2.47,2.47,0,0,1,2.86,1.5,10.46,10.46,0,0,1,.94,4c.1,1.16.28,2.78-.52,3.75s-2.17,1-3.15,1.51c-.78.39-.09,1.56.68,1.17,1.32-.65,2.89-.81,3.75-2.15s.71-3.39.53-4.95a9.6,9.6,0,0,0-1.53-4.73,3.58,3.58,0,0,0-3.92-1.41c-.81.28-.46,1.58.36,1.3Z"/><path class="cls-9" d="M151.5,64a23,23,0,0,0-2.56-.67,2,2,0,0,0-1.85.88,5.08,5.08,0,0,0-.47,2.44,13.69,13.69,0,0,0,0,2.79,6.09,6.09,0,0,0,2.7,4,9.18,9.18,0,0,0,4.71,2.18c.87.07.86-1.28,0-1.35a7.42,7.42,0,0,1-3.61-1.68,5.43,5.43,0,0,1-2.39-2.91,7.65,7.65,0,0,1-.13-2.08,15.28,15.28,0,0,1,.14-2.14c.26-1.49,2.2-.24,3.07-.11s1.21-1.16.36-1.3Z"/><path class="cls-9" d="M152.52,64.13a2.23,2.23,0,0,1,.94-2.47,3,3,0,0,1,3.21.36,7.52,7.52,0,0,1,2.26,2.74,3,3,0,0,1,0,3.23.69.69,0,0,0,0,1,.68.68,0,0,0,1,0c1.82-2.18.48-5-1.12-6.87a5.77,5.77,0,0,0-3.12-2,3.78,3.78,0,0,0-3.44.89,3.6,3.6,0,0,0-.94,3.51.67.67,0,0,0,1.3-.36Z"/><path class="cls-9" d="M153.77,75.29c.12.53,0,1.09.13,1.63a1.91,1.91,0,0,0,1,1.38,7.3,7.3,0,0,0,2,.65,6.6,6.6,0,0,0,2.07.21,2.6,2.6,0,0,0,2.2-2.44,30.5,30.5,0,0,0,.37-4.27c0-1.37,0-3.09-1.46-3.76-.78-.37-1.46.79-.68,1.16,1.15.54.81,2.38.76,3.39,0,.71-.09,1.41-.16,2.11a6.66,6.66,0,0,1-.32,1.77,1.05,1.05,0,0,1-1.18.7,8.09,8.09,0,0,1-2-.36c-.49-.14-1.14-.25-1.24-.84s0-1.13-.14-1.69c-.19-.85-1.49-.49-1.3.36Z"/><path class="cls-9" d="M156.06,84.3a2,2,0,0,1,.9-.4.67.67,0,0,0,.49-.65c.09-1-1.11-.94-1.78-1.16a3.91,3.91,0,0,1-1.7-1.22,2.42,2.42,0,0,0-2.07-.82,3.17,3.17,0,0,0-1.08.34,2.07,2.07,0,0,1-.85.33,2.86,2.86,0,0,0-1.73.24,1.43,1.43,0,0,0-.34,1.86,5.8,5.8,0,0,0,3.29,2.55,3.8,3.8,0,0,0,1.28.3c.47,0,.73-.3,1.08-.55.76-.55,1.72-.35,2.51-.82a.68.68,0,0,0-.69-1.16c-.48.29-1.14.2-1.67.39a3.6,3.6,0,0,0-.83.42,2.15,2.15,0,0,0-.41.32s-.15.09,0,.06,0,0-.06,0c-.27-.12-.6-.16-.88-.26a5.91,5.91,0,0,1-.8-.39,4.8,4.8,0,0,1-1.23-1,1.82,1.82,0,0,1-.36-.51c-.07-.16,0-.18-.1-.11.25-.15.83,0,1.13,0a5,5,0,0,0,1.54-.58,1.14,1.14,0,0,1,1.35.35,5.61,5.61,0,0,0,1.48,1.22,5.44,5.44,0,0,0,.94.38,4.37,4.37,0,0,0,.52.12l.21,0,.16,0c.09,0,.09,0,0,0l-.19-.47,0,.13.5-.65a2.83,2.83,0,0,0-1.23.54C154.66,83.62,155.33,84.79,156.06,84.3Z"/><path class="cls-9" d="M163.05,62.15c.17-.07,0,0,.06,0h0l.07,0,.08,0,.16.1.1.07.09.08.26.22c.13.14.32.34.4.44a5.49,5.49,0,0,1,.34.53c.06.09.1.18.15.27s.05.1.07.16,0,0,0,0,.15.43.21.65.05.22.07.34a.59.59,0,0,0,0,.13c0-.13,0,.09,0,.09a5.17,5.17,0,0,1,0,.68.68.68,0,0,0,.67.68.7.7,0,0,0,.68-.68,5.69,5.69,0,0,0-.86-3.23,5.24,5.24,0,0,0-1.08-1.27,2,2,0,0,0-1.9-.65.7.7,0,0,0-.47.83.68.68,0,0,0,.83.48Z"/><path class="cls-9" d="M151.75,65.2a10.23,10.23,0,0,1,2.87.13,4.12,4.12,0,0,1,2.37.92,2.7,2.7,0,0,1,.4,1.11c.13.52.24,1,.33,1.58a23.68,23.68,0,0,1,.3,2.92c0,.73.07,1.66-.58,2.16a2,2,0,0,1-1.91.23c-1.51-.53-2.48-2.27-3-3.68a11.71,11.71,0,0,1-.58-5.78.7.7,0,0,0-.47-.83.68.68,0,0,0-.83.47,13.2,13.2,0,0,0,.55,6.42c.68,1.87,1.88,3.89,3.83,4.65a3.1,3.1,0,0,0,4.3-2.36,12.84,12.84,0,0,0-.13-3.39,15.61,15.61,0,0,0-.74-3.58,3.51,3.51,0,0,0-2.73-2,11.55,11.55,0,0,0-4-.35c-.86.07-.87,1.42,0,1.35Z"/><path class="cls-9" d="M156.3,65.71a21.18,21.18,0,0,1-2,7.52.68.68,0,0,0,1.17.68,23.14,23.14,0,0,0,2.17-8.2c.06-.87-1.29-.87-1.35,0Z"/><path class="cls-9" d="M151.33,67.67a10.13,10.13,0,0,0,4.28,1.75.67.67,0,1,0,.36-1.3,9.67,9.67,0,0,1-2.12-.59h0l-.13-.06-.26-.12-.44-.23a8.79,8.79,0,0,1-1-.61.67.67,0,0,0-.92.24.7.7,0,0,0,.24.93Z"/><path class="cls-2" d="M144,59.14a2.19,2.19,0,0,1-.09-1.6,8.57,8.57,0,0,1,.66-2.12A3.41,3.41,0,0,1,146,53.81a.91.91,0,0,1,.5-.13,1,1,0,0,1,.57.29,5.27,5.27,0,0,1,.93,1,.84.84,0,0,1,.2.51c0,.27-.26.46-.48.62a14.84,14.84,0,0,0-3.29,3.28"/><path class="cls-3" d="M144.56,58.8a1.4,1.4,0,0,1,0-.95,11.86,11.86,0,0,1,.31-1.31A3.82,3.82,0,0,1,146,54.62a1.79,1.79,0,0,1,.42-.25c.08,0,.14,0,.25.11a6.65,6.65,0,0,1,.84.92l.05.09,0-.11v0l-.08.09c-.13.11-.32.24-.48.36-.36.28-.71.58-1.05.89a16.18,16.18,0,0,0-2.1,2.35.68.68,0,0,0,.25.92.69.69,0,0,0,.92-.24,14.71,14.71,0,0,1,2.22-2.38c.39-.33.86-.61,1.22-1a1.29,1.29,0,0,0,.13-1.74,5.4,5.4,0,0,0-1.17-1.26,1.54,1.54,0,0,0-1.75-.16,4.48,4.48,0,0,0-2,2.48,11.6,11.6,0,0,0-.49,1.84,2.76,2.76,0,0,0,.2,1.94.67.67,0,0,0,1.16-.68Z"/><path class="cls-2" d="M143.92,59.45a4.65,4.65,0,0,0-1.25-2,2.36,2.36,0,0,0-3,.14.49.49,0,0,0-.16.24.56.56,0,0,0,.09.35,6.13,6.13,0,0,0,1.64,2.19,2.8,2.8,0,0,0,2.58.54"/><path class="cls-3" d="M144.57,59.27A5.22,5.22,0,0,0,143,56.83a3,3,0,0,0-3.74.18,1.11,1.11,0,0,0-.42.78,1.52,1.52,0,0,0,.26.85,6.52,6.52,0,0,0,1.79,2.27,3.46,3.46,0,0,0,3.11.61.68.68,0,0,0-.36-1.31l-.26.08-.1,0c-.11,0,.09,0,0,0h-.43a4.77,4.77,0,0,1-.51-.13l-.13,0s.08,0,0,0l-.28-.15a1.37,1.37,0,0,1-.2-.13l-.08-.05s0,0,0,0a4,4,0,0,1-.42-.4,4.82,4.82,0,0,1-.6-.82l-.27-.48a1,1,0,0,0-.11-.23c-.07,0,0,0,0,0s0,.22-.07.23.12-.11.15-.14-.07,0,0,0l.11-.06.19-.11h0l.15,0,.2-.05.13,0s-.13,0,0,0a2,2,0,0,1,.49,0c-.13,0,0,0,.09,0l.21.05.11,0s-.1-.06,0,0l.21.12.1.07c-.07-.05,0,0,0,0l.2.19s.09.12,0,.06.06.09.07.1l.15.23c.1.18.19.37.28.56a.69.69,0,0,1,.05.13c0-.07,0,0,0,0l.12.33a.72.72,0,0,0,.84.47.69.69,0,0,0,.47-.83Z"/><path class="cls-2" d="M144.28,60.74a7.22,7.22,0,0,0-1.59,3.55c0,.21,0,.49.19.54a.42.42,0,0,0,.22,0A3.46,3.46,0,0,0,145,63.62a2.22,2.22,0,0,0,.32-2.12,3.82,3.82,0,0,1-.49-1.12,1.34,1.34,0,0,1,.76-1.19,2.34,2.34,0,0,1,3.08.88.88.88,0,0,1,.13.57.9.9,0,0,1-.18.35,4.13,4.13,0,0,1-.6.65.62.62,0,0,1-.29.17.66.66,0,0,1-.43-.1c-.64-.34-1.21-1-1.95-.94"/><path class="cls-3" d="M143.81,60.26a8,8,0,0,0-1.21,2,6,6,0,0,0-.6,2.23,1.1,1.1,0,0,0,.48,1,1.47,1.47,0,0,0,1.29-.1A4,4,0,0,0,145.54,64a3,3,0,0,0,.52-2.19,3.24,3.24,0,0,0-.37-1c-.13-.23-.3-.45-.18-.68a1.21,1.21,0,0,1,1.17-.54,1.74,1.74,0,0,1,1.25.62,1.11,1.11,0,0,1,.16.31s.08-.11,0,0l-.13.18a3.33,3.33,0,0,1-.42.42c-.15.12.12,0,.11,0l-.16-.1a4.09,4.09,0,0,0-2.14-.95.68.68,0,0,0,0,1.35c.47,0,.9.41,1.31.67a2.06,2.06,0,0,0,.8.36,1.23,1.23,0,0,0,1-.35,2.1,2.1,0,0,0,.95-1.86,2.45,2.45,0,0,0-1-1.42,3,3,0,0,0-3.13-.27A2.11,2.11,0,0,0,144.15,60a1.7,1.7,0,0,0,.12,1c.11.27.29.5.39.77a1.54,1.54,0,0,1-.3,1.52,2.26,2.26,0,0,1-.65.54l-.34.18-.23.08-.13,0c-.11,0-.12,0,0,0l.3.18c.07.06,0,.16,0,0a2.66,2.66,0,0,0,.1-.49,6.61,6.61,0,0,1,.32-1,6.89,6.89,0,0,1,1-1.65.7.7,0,0,0,0-1,.69.69,0,0,0-.95,0Z"/><path class="cls-2" d="M158.55,84.4a2.33,2.33,0,0,1-1.32-2.12.93.93,0,0,1,.2-.63.86.86,0,0,1,.9-.16.91.91,0,0,1,.49.35,1.19,1.19,0,0,1,.11.77,12.79,12.79,0,0,0-.25,1.74"/><path class="cls-3" d="M158.74,84.07a2,2,0,0,1-1.14-1.77.55.55,0,0,1,.15-.44c-.05,0,.08,0,.05,0l.11,0h.14c.12,0,0,0,0,0a.71.71,0,0,1,.41.22.79.79,0,0,1,.06.53,15.44,15.44,0,0,0-.26,1.79.38.38,0,0,0,.75,0c0-.64.23-1.25.27-1.88a1.34,1.34,0,0,0-.26-.93,1.25,1.25,0,0,0-.71-.43,1.13,1.13,0,0,0-1.43.71,2.34,2.34,0,0,0,.2,1.64,2.66,2.66,0,0,0,1.24,1.26.39.39,0,0,0,.52-.13.39.39,0,0,0-.14-.52Z"/><path class="cls-2" d="M158.54,84.47a3.14,3.14,0,0,0-1.21-.5,1.34,1.34,0,0,0-.66,0,1.25,1.25,0,0,0-.47.28.81.81,0,0,0-.27.37.77.77,0,0,0,.35.78,1.54,1.54,0,0,0,1.16.3,1.06,1.06,0,0,0,.61-.27c.19-.18.28-.44.47-.62"/><path class="cls-3" d="M158.73,84.15a3.36,3.36,0,0,0-1.52-.57,1.59,1.59,0,0,0-1.45.6,1,1,0,0,0-.2.84,1.28,1.28,0,0,0,.42.63,2,2,0,0,0,1.46.44,1.54,1.54,0,0,0,.88-.39,1.72,1.72,0,0,0,.26-.33,1.28,1.28,0,0,1,.21-.28.37.37,0,0,0-.53-.53,2.41,2.41,0,0,0-.36.48.67.67,0,0,1-.29.24,1.16,1.16,0,0,1-1-.07,1.11,1.11,0,0,1-.18-.12l-.09-.08s0-.05,0,0l0,0s-.05-.11,0-.07,0-.11,0-.05v0s0,0,0-.1a1.18,1.18,0,0,1,.36-.29.42.42,0,0,1,.18-.06,1,1,0,0,1,.3,0,2.63,2.63,0,0,1,1.19.48.38.38,0,0,0,.51-.14.39.39,0,0,0-.13-.51Z"/><path class="cls-2" d="M158.59,84.75a2.17,2.17,0,0,0,.28,1.87,1.63,1.63,0,0,0,1.73.63.38.38,0,0,0,.17-.08.46.46,0,0,0,.09-.41,2.65,2.65,0,0,0-.49-1,5.53,5.53,0,0,0-.69-.83,1.92,1.92,0,0,0-.93-.52"/><path class="cls-3" d="M158.23,84.65a2.63,2.63,0,0,0,.12,1.81,2.09,2.09,0,0,0,1.27,1.13c.51.17,1.43.18,1.6-.47s-.33-1.25-.67-1.71a3.15,3.15,0,0,0-1.7-1.33.39.39,0,0,0-.46.27.38.38,0,0,0,.26.46,2,2,0,0,1,1.1.78c.14.18.27.37.4.55a2.48,2.48,0,0,1,.32.6s0,.14,0,.1a.19.19,0,0,1,0,.08s0,0,0,0l0,0-.15,0s-.07,0,0,0h-.22a.87.87,0,0,1-.26,0,1.34,1.34,0,0,1-.83-.68,1.93,1.93,0,0,1-.1-1.36.37.37,0,0,0-.72-.2Z"/><path class="cls-2" d="M158.75,84.45a2.17,2.17,0,0,1,.13-.91,1,1,0,0,1,.25-.4.94.94,0,0,1,.52-.19,2.77,2.77,0,0,1,1.45.19.39.39,0,0,1,.14.08.36.36,0,0,1,0,.42,1.79,1.79,0,0,1-.49.5,2.69,2.69,0,0,1-.91.53,1.19,1.19,0,0,1-1-.12"/><path class="cls-3" d="M159.13,84.45a1.73,1.73,0,0,1,0-.56,2.47,2.47,0,0,1,.1-.29c0,.05,0-.06,0-.07l.06-.08.05,0h0s.05,0,0,0,.05,0,.05,0l.12,0h.11a2.29,2.29,0,0,1,.64,0h0l.09,0,.13,0a3,3,0,0,1,.32.09l.07,0,0-.08c0-.08,0,0,0,0s0-.07,0,0,0,0,0,0a.75.75,0,0,1-.07.12l0,0,0,0-.1.1-.24.2a2.7,2.7,0,0,1-.45.3,1.19,1.19,0,0,1-.26.11l-.15,0h-.35l-.12,0h0l-.11-.06a.37.37,0,0,0-.51.13.4.4,0,0,0,.14.52,1.7,1.7,0,0,0,1.61,0,3.22,3.22,0,0,0,.66-.42,2.67,2.67,0,0,0,.59-.57.78.78,0,0,0,.1-.86,1.24,1.24,0,0,0-.81-.42,2.61,2.61,0,0,0-1.7.09,1.78,1.78,0,0,0-.69,1.72.38.38,0,0,0,.37.38.39.39,0,0,0,.38-.38Z"/></g></svg>