<svg xmlns="http://www.w3.org/2000/svg" viewBox="0 0 193 122"><defs><style>.cls-1,.cls-3{fill:#afd1f9;stroke:#1282d6;}.cls-1{stroke-miterlimit:10;}.cls-2{fill:#1282d6;}.cls-3{stroke-linecap:round;stroke-linejoin:round;}</style></defs><title>base</title><g id="장식1"><path class="cls-1" d="M94.92,10.78A35,35,0,0,0,73.08,4.57c-12.73.81-8.41,6.21-6.25,9.46s1.38,7.39,2.85,11.25,1.47,6,4.71,6,3.24,0,8.65-4.32A111.78,111.78,0,0,0,94.92,15.11Z"/><path class="cls-1" d="M94.92,15.11l-1.08,32.4a50.13,50.13,0,0,0,4.32,18.37c4.32,9.72,10.8-14,9.72-27a47.26,47.26,0,0,0-8.64-22.68l-4.32-1.08"/><path class="cls-1" d="M97.08,10.78a35,35,0,0,1,21.84-6.21c12.73.81,8.41,6.21,6.25,9.46s-1.38,7.39-2.85,11.25-1.47,6-4.71,6-3.24,0-8.65-4.32A111.78,111.78,0,0,1,97.08,15.11Z"/><path class="cls-1" d="M93.84,15.11,76.55,46.43s-3.24,15.13-1.08,22.69S76.55,81,84.12,70.2,96,46.43,96,35.63s1.08-20.52,1.08-20.52Z"/><path class="cls-2" d="M94.38,13.48S72.13,24.63,73.15,27.84,75.32,29,76.42,29s13.44-10.3,13.44-10.3l4.52-5.21"/><path class="cls-2" d="M97.4,13.8S120,23.74,119.21,27.09s-2,1.28-3.12,1.38-13.89-9.65-13.89-9.65l-4.8-5"/><path class="cls-1" d="M93.3,8.08s-2.16,0-1.08,3.24,0,6.49,2.16,5.41,2.16,0,3.24,0S98.7,9.16,98.7,9.16,97.62,7,93.3,8.08Z"/><path class="cls-3" d="M74.39,11.86S86.28,9.7,89.52,10.78s3,1.58,3,1.58L79.8,15.11"/><path class="cls-3" d="M99.24,11.86s11.88-4.32,13-2.16-9.72,3.24-9.72,3.24H99.24s14,2.17,15.13,3.25"/></g></svg>