<svg id="눈썹" xmlns="http://www.w3.org/2000/svg" viewBox="0 0 284 355"><defs><style>.cls-1{fill:#442815;}</style></defs><title>base_눈썹_1</title><path class="cls-1" d="M102,131.55a90.66,90.66,0,0,1,23.75-3.05.75.75,0,0,0,0-1.5,92,92,0,0,0-24.15,3.11.75.75,0,0,0,.4,1.44Z"/><path class="cls-1" d="M153.6,128.57a57.73,57.73,0,0,1,25.31,3.89c.9.35,1.29-1.1.4-1.45a58.77,58.77,0,0,0-25.71-3.94c-1,.07-1,1.57,0,1.5Z"/><path class="cls-1" d="M107.24,140.6A65.36,65.36,0,0,1,122,138.92a.38.38,0,0,0,0-.75A66.57,66.57,0,0,0,107,139.88c-.47.11-.27.83.2.72Z"/><path class="cls-1" d="M159.9,139.12a43.57,43.57,0,0,1,12.95,1.59.37.37,0,0,0,.2-.72,43.93,43.93,0,0,0-13.15-1.62.38.38,0,0,0,0,.75Z"/></svg>